<svg xmlns="http://www.w3.org/2000/svg" xmlns:xlink="http://www.w3.org/1999/xlink" width="58.953" height="58.953" viewBox="0 0 58.953 58.953">
  <defs>
    <clipPath id="clip-path">
      <circle id="Ellipse_127" data-name="Ellipse 127" cx="29.477" cy="29.477" r="29.477" transform="translate(663.623 7517.749)" fill="none"/>
    </clipPath>
  </defs>
  <g id="Group_669" data-name="Group 669" transform="translate(-663.623 -7517.749)">
    <g id="Group_668" data-name="Group 668" clip-path="url(#clip-path)">
      <circle id="Ellipse_124" data-name="Ellipse 124" cx="29.477" cy="29.477" r="29.477" transform="translate(663.623 7517.749)" fill="#03c8a1"/>
      <g id="Group_653" data-name="Group 653">
        <g id="Group_650" data-name="Group 650">
          <path id="Path_724" data-name="Path 724" d="M661.269,7539.627s-13.223,2.7-13.061,10.839,25.553,10.944,25.553,10.944,21.233,3.348,48.75-1.431a17.469,17.469,0,0,0,8.093-3.641c2.8-2.295,5.12-5.732,2.1-9.872a10.408,10.408,0,0,0-4.494-3.433l-4.723-1.94,1.058,7.214s6.39,1.738,1.377,3.765-28.88,7.045-50.169,3.47-19.083-4.14-19.083-4.14-5.194-3.215,3.053-5.033Z" fill="#ffd244"/>
        </g>
        <g id="Group_652" data-name="Group 652">
          <g id="Group_651" data-name="Group 651">
            <path id="Path_725" data-name="Path 725" d="M661.193,7538.907a26.72,26.72,0,0,0-7.691,2.9,13.417,13.417,0,0,0-4.654,4.057,7.3,7.3,0,0,0-1.219,5.782,7.114,7.114,0,0,0,2.778,3.615,21.787,21.787,0,0,0,5.121,2.7,65.861,65.861,0,0,0,12.182,3.255c1.97.361,3.949.64,5.936.907s3.962.484,5.955.645c5.048.408,10.124.548,15.194.483a176.94,176.94,0,0,0,21.706-1.613c2.033-.278,4.065-.585,6.086-.944a18.932,18.932,0,0,0,5.407-1.792c2.726-1.411,5.578-3.641,6.547-6.569,1.075-3.247-.746-6.509-3.4-8.49a25.028,25.028,0,0,0-5.623-2.712l-1.714-.7a.766.766,0,0,0-1.069.741l.926,6.315.132.9a.764.764,0,0,0,.627.636c-.077-.021-.2-.06-.011,0,.153.048.3.1.457.149a10.049,10.049,0,0,1,1.26.524c.1.048.19.1.282.15-.136-.077.136.088.178.117.089.061.176.126.259.195.042.036.084.073.124.112-.085-.083-.035-.046.01.02.028.041.06.081.09.12.06.081.026-.078,0,0-.008.02.034.061.032.084.014-.177-.035-.092-.011-.016.037.12.052-.136,0-.017-.01.023-.015.159-.006.046s0,.023-.032.048c.14-.106-.027.029-.066.077-.106.128-.027.049-.181.161a4.13,4.13,0,0,1-.463.3,7.266,7.266,0,0,1-.847.376c-.315.122-.636.232-.958.337-.892.29-1.8.538-2.707.77-2.565.654-5.4,1.209-8.132,1.663q-5.4.9-10.874,1.36a109.645,109.645,0,0,1-25.644-.559c-3.982-.6-7.95-1.333-11.9-2.1-2.059-.4-4.121-.8-6.151-1.318-.279-.071-.556-.147-.834-.222-.141-.038.2.059-.011,0-.047-.014-.1-.027-.142-.042-.1-.03-.2-.061-.3-.093-.24-.079-.467-.174-.7-.271-.171-.071.163.143.006,0a.831.831,0,0,1,.17.224c.123.313-.052.823-.387.87l.016-.006a.716.716,0,0,0,.206-1.239,4.35,4.35,0,0,1-.415-.3c-.132-.106-.255-.221-.379-.336.153.142-.021-.025-.088-.1s-.135-.16-.2-.245-.172-.3-.076-.1c-.047-.094-.09-.188-.132-.284-.018-.042-.026-.087-.042-.13,0-.007.016.166.009.019a1.346,1.346,0,0,0-.018-.154c-.03-.166-.02.085,0,0,.009-.051.02-.109.024-.159.012-.14-.005,0-.005,0,.022-.046.041-.1.061-.142.052-.122.073-.121.031-.065a2.894,2.894,0,0,1,.243-.285c.074-.077-.093.08-.009.007.023-.021.047-.042.071-.061.08-.062.159-.124.243-.182a9.907,9.907,0,0,1,3.331-1.223.793.793,0,0,0,.671-.6l1.352-5.9.192-.842c.21-.915-1.286-1.139-1.494-.229l-1.351,5.9-.193.842.671-.6a13.021,13.021,0,0,0-3.788,1.32,3.068,3.068,0,0,0-1.489,1.722,2.89,2.89,0,0,0,1.209,2.81,4.464,4.464,0,0,0,.611.466l.206-1.238a.784.784,0,0,0-.378,1.223,3.08,3.08,0,0,0,1.545.741c1.629.484,3.3.837,4.97,1.181,3.5.722,7.03,1.347,10.559,1.954a109.026,109.026,0,0,0,14,1.586,131.717,131.717,0,0,0,34.4-3.279c1.053-.254,2.1-.527,3.135-.845a12.072,12.072,0,0,0,2.781-1.14,2.311,2.311,0,0,0,1.179-1.463,1.644,1.644,0,0,0-.483-1.38,6.534,6.534,0,0,0-2.694-1.493c-.241-.082-.485-.156-.731-.223l.627.636-.926-6.315-.132-.9-1.069.741,4.3,1.766c2.5,1.026,4.758,2.719,5.633,5.281.9,2.64-.754,5.106-2.78,6.814a16.236,16.236,0,0,1-4.456,2.665,25.45,25.45,0,0,1-5.462,1.318,176.054,176.054,0,0,1-21.979,2.128c-5.369.184-10.747.13-16.1-.208-2.666-.168-5.334-.391-7.977-.757-1.256-.174-2.515-.33-3.767-.527a82.806,82.806,0,0,1-11.049-2.431,37.1,37.1,0,0,1-5.637-2.154,14.992,14.992,0,0,1-2.209-1.286,11.339,11.339,0,0,1-.942-.732c-.138-.121-.273-.245-.4-.373-.086-.084.118.124-.014-.015l-.081-.085c-.066-.071-.131-.143-.194-.216a6.239,6.239,0,0,1-.618-.85c.1.167-.026-.05-.047-.092-.036-.069-.071-.14-.1-.212a4.209,4.209,0,0,1-.186-.481c-.02-.066-.038-.131-.056-.2.058.214-.011-.066-.019-.111a3.951,3.951,0,0,1-.057-.484,5.551,5.551,0,0,1,.1-1.344,8,8,0,0,1,2.945-4.585,22.549,22.549,0,0,1,8.9-4.138l.26-.064c-.241.061-.1.022.015,0,.054-.013.108-.025.162-.036a.763.763,0,0,0,.678-.8A.747.747,0,0,0,661.193,7538.907Z" fill="#070301"/>
          </g>
        </g>
      </g>
      <g id="Group_654" data-name="Group 654">
        <rect id="Rectangle_203" data-name="Rectangle 203" width="76.101" height="6.582" rx="2.628" transform="translate(655.86 7526.381)" fill="#fff"/>
      </g>
      <g id="Group_655" data-name="Group 655">
        <path id="Rectangle_204" data-name="Rectangle 204" d="M2.573,0H73.528A2.573,2.573,0,0,1,76.1,2.573v1.37a0,0,0,0,1,0,0H0a0,0,0,0,1,0,0V2.573A2.573,2.573,0,0,1,2.573,0Z" transform="translate(655.86 7526.381)" fill="#fff"/>
      </g>
      <g id="Group_656" data-name="Group 656">
        <rect id="Rectangle_205" data-name="Rectangle 205" width="76.101" height="1.088" transform="translate(655.86 7528.252)" fill="#414eef"/>
      </g>
      <g id="Group_657" data-name="Group 657">
        <rect id="Rectangle_206" data-name="Rectangle 206" width="76.101" height="1.088" transform="translate(655.86 7529.78)" fill="#ec5e72"/>
      </g>
      <g id="Group_659" data-name="Group 659">
        <g id="Group_658" data-name="Group 658">
          <path id="Path_726" data-name="Path 726" d="M728.423,7525.848H659.614a6.712,6.712,0,0,0-4,1.075c-1.056.811-.76,1.932-.76,2.866,0,.887-.22,1.852.783,2.622a6.738,6.738,0,0,0,3.994,1.085h66.336c.92,0,1.876.038,2.794-.012a6.044,6.044,0,0,0,3.566-1.189,2.022,2.022,0,0,0,.643-1.735v-2.186c0-1.372-1.9-2.5-4.546-2.526-1.3-.013-1.3,1.052,0,1.066a2.954,2.954,0,0,1,2.4.915,1.853,1.853,0,0,1,.128,1.021c0,.73.019,1.461,0,2.191-.02.789-1.2,1.385-2.676,1.39H663.043c-1.146,0-2.293,0-3.439,0-1.278,0-2.391-.411-2.681-1.092a2.593,2.593,0,0,1-.055-1.027v-1.135c0-.32-.015-.641,0-.961.027-.553.727-1.065,1.73-1.235a7.977,7.977,0,0,1,1.331-.067h68.493C729.719,7526.914,729.721,7525.848,728.423,7525.848Z" fill="#020202"/>
        </g>
      </g>
      <g id="Group_667" data-name="Group 667">
        <g id="Group_660" data-name="Group 660">
          <circle id="Ellipse_125" data-name="Ellipse 125" cx="2.369" cy="2.369" r="2.369" transform="translate(694.673 7541.051)" fill="#070600"/>
        </g>
        <g id="Group_661" data-name="Group 661">
          <circle id="Ellipse_126" data-name="Ellipse 126" cx="2.369" cy="2.369" r="2.369" transform="translate(684.28 7541.051)" fill="#070600"/>
        </g>
        <g id="Group_662" data-name="Group 662">
          <path id="Path_727" data-name="Path 727" d="M693.189,7547.751a5.344,5.344,0,0,1,.571,1.457,1.8,1.8,0,0,1-.324,1.485,1.559,1.559,0,0,1-1.8.334,2.12,2.12,0,0,1-1.121-1.531,3.381,3.381,0,0,1,.259-1.924Z" fill="#ec5e72"/>
        </g>
        <g id="Group_664" data-name="Group 664">
          <g id="Group_663" data-name="Group 663">
            <path id="Path_728" data-name="Path 728" d="M689.248,7546.929a3.3,3.3,0,0,0,4.987.2c.473-.495-.279-1.25-.753-.753a2.273,2.273,0,0,1-3.481-.205.536.536,0,0,0-.753,0,.545.545,0,0,0,0,.753Z" fill="#070600"/>
          </g>
        </g>
        <g id="Group_666" data-name="Group 666">
          <g id="Group_665" data-name="Group 665">
            <path id="Path_729" data-name="Path 729" d="M690.257,7547.431a3.179,3.179,0,0,0,.867,3.92,2.156,2.156,0,0,0,1.914.232,1.953,1.953,0,0,0,1.257-1.581,4.231,4.231,0,0,0-.646-2.52.533.533,0,0,0-.92.538,7.373,7.373,0,0,1,.367.787,3.363,3.363,0,0,1,.126.42c.007.03.013.061.019.092,0,.009.02.129.012.068s0,.036,0,.037c0,.046.006.091.007.137,0,.064,0,.127,0,.191,0,.013-.01.106,0,.021a.7.7,0,0,1-.014.08,1.872,1.872,0,0,1-.045.183c-.011.034-.022.069-.036.1.022-.053,0-.005-.011.019-.031.055-.06.109-.1.161-.05.071.039-.042-.015.017l-.049.052c-.022.023-.046.043-.07.065.016-.014.082-.053,0,0-.053.035-.107.066-.163.1-.006,0-.077.035-.023.012s-.033.011-.047.016c-.053.017-.106.032-.161.044-.023,0-.047.008-.071.014-.079.018.081,0,0,0-.064,0-.128.007-.193,0-.035,0-.173-.021-.074,0-.055-.01-.11-.021-.165-.036a1.616,1.616,0,0,1-.16-.053c.095.037-.067-.038-.095-.054a1.532,1.532,0,0,1-.167-.11c.066.05-.028-.026-.047-.044a1.9,1.9,0,0,1-.14-.143l-.049-.057c-.035-.042.027.045-.023-.033-.066-.1-.123-.2-.179-.306-.007-.014-.042-.093-.008-.012-.01-.024-.018-.048-.027-.071-.023-.064-.044-.128-.062-.194a1.488,1.488,0,0,1-.065-.4,2.86,2.86,0,0,1,.016-.49c0,.025-.013.073.006-.041.007-.04.014-.081.023-.121q.024-.122.057-.24a4.416,4.416,0,0,1,.182-.525.534.534,0,0,0-.372-.655.548.548,0,0,0-.655.372Z" fill="#070600"/>
          </g>
        </g>
      </g>
    </g>
  </g>
</svg>
