<svg xmlns="http://www.w3.org/2000/svg" width="19.464" height="19.464" viewBox="0 0 19.464 19.464">
  <g id="Group_670" data-name="Group 670" transform="translate(-707.055 -7559.421)">
    <circle id="Ellipse_128" data-name="Ellipse 128" cx="9.732" cy="9.732" r="9.732" transform="translate(707.055 7559.421)" fill="#606060"/>
    <path id="Path_730" data-name="Path 730" d="M718.664,7569.938a1.876,1.876,0,1,1-1.877-1.877,1.879,1.879,0,0,1,1.877,1.877Zm3.943-2.666v5.333a1.288,1.288,0,0,1-1.288,1.287h-9.066a1.287,1.287,0,0,1-1.286-1.287v-5.333a1.287,1.287,0,0,1,1.286-1.287h1.584v-.445a1.127,1.127,0,0,1,1.127-1.126h3.647a1.126,1.126,0,0,1,1.126,1.126v.445h1.582a1.288,1.288,0,0,1,1.288,1.287Zm-2.978,2.666a2.843,2.843,0,1,0-2.842,2.843,2.844,2.844,0,0,0,2.842-2.843Zm0,0" fill="#fff"/>
  </g>
</svg>
