<svg xmlns="http://www.w3.org/2000/svg" width="462.422" height="154.927" viewBox="0 0 462.422 154.927">
  <g id="Group_1079" data-name="Group 1079" transform="translate(-10073.874 -1103.575)">
    <g id="Group_918" data-name="Group 918">
      <g id="Group_867" data-name="Group 867">
        <g id="Group_863" data-name="Group 863">
          <path id="Rectangle_316" data-name="Rectangle 316" d="M0,0H20.8a0,0,0,0,1,0,0V13.948a8.42,8.42,0,0,1-8.42,8.42H8.42A8.42,8.42,0,0,1,0,13.948V0A0,0,0,0,1,0,0Z" transform="translate(10106.816 1233.461)" fill="#fdf157"/>
        </g>
        <g id="Group_865" data-name="Group 865">
          <g id="Group_864" data-name="Group 864">
            <path id="Path_919" data-name="Path 919" d="M10119.2,1254.941h-2.549a14.346,14.346,0,0,1-2.872-.14,7.624,7.624,0,0,1-5.933-5.931,21.2,21.2,0,0,1-.14-4.159v-11.25l-.888.888h20.8l-.889-.888v13.073a9.037,9.037,0,0,1-.786,4.234,7.623,7.623,0,0,1-6.745,4.173.889.889,0,0,0,0,1.776,9.411,9.411,0,0,0,7.409-3.684,9.577,9.577,0,0,0,1.9-5.908v-13.664a.9.9,0,0,0-.888-.888h-20.8a.9.9,0,0,0-.888.888v10.883a31.654,31.654,0,0,0,.111,4.463,9.373,9.373,0,0,0,6.065,7.367,11.46,11.46,0,0,0,4.017.543h3.075A.889.889,0,0,0,10119.2,1254.941Z" fill="#070600"/>
          </g>
        </g>
        <g id="Group_866" data-name="Group 866" style="mix-blend-mode: multiply;isolation: isolate">
          <path id="Path_920" data-name="Path 920" d="M10106.816,1247.409h20.8l-.314-3.219-20.523.455Z" fill="#fdf157"/>
        </g>
      </g>
      <g id="Group_872" data-name="Group 872">
        <g id="Group_868" data-name="Group 868">
          <path id="Rectangle_317" data-name="Rectangle 317" d="M0,0H20.8a0,0,0,0,1,0,0V13.948a8.42,8.42,0,0,1-8.42,8.42H8.42A8.42,8.42,0,0,1,0,13.948V0A0,0,0,0,1,0,0Z" transform="translate(10129.649 1233.461)" fill="#fdf157"/>
        </g>
        <g id="Group_870" data-name="Group 870">
          <g id="Group_869" data-name="Group 869">
            <path id="Path_921" data-name="Path 921" d="M10142.03,1254.941h-2.55a14.353,14.353,0,0,1-2.872-.14,7.627,7.627,0,0,1-5.933-5.931,21.274,21.274,0,0,1-.139-4.159v-11.25l-.888.888h20.8l-.889-.888v13.073a9.037,9.037,0,0,1-.786,4.234,7.624,7.624,0,0,1-6.745,4.173.889.889,0,0,0,0,1.776,9.408,9.408,0,0,0,7.408-3.684,9.572,9.572,0,0,0,1.9-5.908v-13.664a.9.9,0,0,0-.888-.888h-20.8a.9.9,0,0,0-.889.888v10.883a31.654,31.654,0,0,0,.112,4.463,9.373,9.373,0,0,0,6.065,7.367,11.457,11.457,0,0,0,4.017.543h3.075A.889.889,0,0,0,10142.03,1254.941Z" fill="#070600"/>
          </g>
        </g>
        <g id="Group_871" data-name="Group 871" style="mix-blend-mode: multiply;isolation: isolate">
          <path id="Path_922" data-name="Path 922" d="M10130.315,1247.409h20.8l-.314-3.219-20.523.455Z" fill="#fdf157"/>
        </g>
      </g>
      <g id="Group_896" data-name="Group 896">
        <g id="Group_873" data-name="Group 873">
          <ellipse id="Ellipse_163" data-name="Ellipse 163" cx="33.655" cy="26.321" rx="33.655" ry="26.321" transform="translate(10096.624 1187.07)" fill="#ec5e72"/>
        </g>
        <g id="Group_874" data-name="Group 874">
          <path id="Path_923" data-name="Path 923" d="M10105.063,1190.712s-18.438,12.334-14.08,40.493c0,0,.671,9.722,8.716,8.381s7.04-36.372,7.04-36.372Z" fill="#414eef"/>
        </g>
        <g id="Group_875" data-name="Group 875">
          <path id="Path_924" data-name="Path 924" d="M10152.044,1190.712s18.438,12.334,14.08,40.493c0,0-.671,9.722-8.716,8.381s-10.148-44.445-10.148-44.445Z" fill="#414eef"/>
        </g>
        <g id="Group_876" data-name="Group 876">
          <path id="Path_925" data-name="Path 925" d="M10105.063,1190.712s-6.842,32.755-1.766,53.478h51.862s4.642-29.927-7.777-53.478C10147.383,1190.712,10125.212,1202.533,10105.063,1190.712Z" fill="#414eef"/>
        </g>
        <g id="Group_878" data-name="Group 878">
          <g id="Group_877" data-name="Group 877">
            <path id="Path_926" data-name="Path 926" d="M10102.85,1191.35a19.837,19.837,0,0,0-3.278,2.853,34.061,34.061,0,0,0-6.116,8.879,42.709,42.709,0,0,0-3.987,15.84,55.832,55.832,0,0,0,.393,10.623q.092.721.2,1.439c0,.014.066.482.038.226l0,.033c.013.113.022.227.036.341a12.587,12.587,0,0,0,.318,1.692,10.351,10.351,0,0,0,2.447,4.548,8.647,8.647,0,0,0,6.412,2.49,15.049,15.049,0,0,0,2.349-.236.9.9,0,0,0,.62-1.092.909.909,0,0,0-1.092-.62,10.215,10.215,0,0,1-3.81-.012,7.761,7.761,0,0,1-.766-.213c-.135-.045-.267-.094-.4-.146-.025-.01-.157-.068-.017-.006-.074-.033-.148-.067-.222-.1a6.877,6.877,0,0,1-.622-.341c-.109-.067-.217-.137-.321-.21-.056-.038-.324-.244-.182-.13a7.4,7.4,0,0,1-.983-.951c-.068-.08-.134-.161-.2-.242-.088-.11.123.169-.008-.012-.026-.038-.054-.074-.08-.111-.131-.183-.255-.37-.371-.563a10.348,10.348,0,0,1-.56-1.082c-.105-.232.034.1-.041-.1-.032-.083-.065-.165-.1-.249-.065-.178-.128-.357-.185-.538a11.705,11.705,0,0,1-.4-1.683c-.025-.166-.036-.327-.012-.067-.007-.075-.02-.15-.026-.225s-.009-.12-.016-.18c-.2-1.834-.488-3.648-.608-5.493-.109-1.7-.146-3.4-.1-5.093a44.527,44.527,0,0,1,1.064-8.623,39.739,39.739,0,0,1,2.247-6.909,35.541,35.541,0,0,1,2.929-5.36q.369-.554.759-1.092.177-.244.358-.484c.059-.079.117-.156.177-.234.083-.108-.131.168,0,0l.118-.15q.69-.876,1.44-1.7a26.565,26.565,0,0,1,2.371-2.311c.146-.124.291-.246.44-.366.06-.049.12-.1.181-.145.217-.173-.133.1.015-.012s.282-.207.425-.31l.058-.039c.951-.624.062-2.163-.9-1.533Z" fill="#070600"/>
          </g>
        </g>
        <g id="Group_880" data-name="Group 880">
          <g id="Group_879" data-name="Group 879">
            <path id="Path_927" data-name="Path 927" d="M10151.6,1191.479c.075.05.149.1.223.157s.172.127.257.192l.069.052c.137.1-.19-.151-.077-.06.063.052.13.1.193.153.745.594,1.454,1.232,2.137,1.9a35.954,35.954,0,0,1,2.9,3.2q.183.229.364.46c.124.158-.055-.074.1.128.073.095.146.19.218.286q.4.535.78,1.083.833,1.2,1.573,2.454a39.727,39.727,0,0,1,4.862,13.2,45.77,45.77,0,0,1,.7,8.792q-.034,2.484-.3,4.957c-.105.99-.274,1.973-.38,2.962-.008.072-.019.143-.025.214-.018.168.04-.262.008-.061-.01.06-.019.121-.027.182q-.064.406-.151.809a13.908,13.908,0,0,1-.646,2.133c-.021.053-.043.106-.065.159.012-.027.075-.172.009-.021-.038.085-.075.17-.115.254-.1.216-.208.428-.324.635-.1.18-.206.357-.318.529-.06.093-.12.184-.185.274-.038.054-.242.32-.126.175a7.007,7.007,0,0,1-.935.971l-.147.121c-.105.084.107-.079,0,0-.094.067-.188.134-.285.2a6.017,6.017,0,0,1-.653.368c-.048.023-.1.045-.146.067-.142.065.194-.071-.051.021-.1.04-.208.078-.313.113a6.208,6.208,0,0,1-.8.2c-.074.013-.147.026-.222.037.041-.006.147-.016-.038,0-.125.014-.251.024-.377.031a8.017,8.017,0,0,1-1.006-.011,4.513,4.513,0,0,0-1.117-.071c-.154.025.074-.038.154-.017a1.455,1.455,0,0,0-.367,0c.016,0,.291.061.1.011-.053-.014-.105-.023-.158-.037s-.1-.03-.146-.044c-.028-.008-.054-.021-.082-.029-.183-.057.119.029.1.043s-.326-.166-.363-.189c-.067-.041-.132-.086-.2-.129-.03-.02-.059-.047-.09-.064-.047-.027.2.173.03.022-.146-.13-.293-.258-.429-.4-.076-.08-.149-.162-.222-.246-.039-.045-.076-.091-.113-.136-.017-.021-.033-.043-.051-.063-.105-.121.128.184.037.048a15.193,15.193,0,0,1-.936-1.53c-.082-.161-.159-.324-.235-.489-.035-.077-.07-.155-.1-.232l-.065-.15c-.026-.06.06.149-.015-.036-.169-.422-.33-.846-.476-1.276-2.011-5.936-2.224-12.364-2.677-18.556l-.984-13.431c-.066-.906-.112-1.817-.2-2.722l0-.021a.91.91,0,0,0-.888-.888.9.9,0,0,0-.888.888l.1,1.353.694,9.468q.375,5.112.75,10.225a78.235,78.235,0,0,0,1.3,10.066,29.514,29.514,0,0,0,1.814,5.976,10.2,10.2,0,0,0,1.951,3.058c.737.75,1.979,1.56,3.1,1.248.012,0,.024,0,.036-.008h-.472a7.575,7.575,0,0,0,6.842-1.946,10.889,10.889,0,0,0,2.593-4.946,15.883,15.883,0,0,0,.359-1.922c.017-.128.028-.256.042-.383l0-.034c-.024.216.016-.071.025-.14q.12-.812.221-1.626a51.859,51.859,0,0,0,.284-10.3,43.456,43.456,0,0,0-4.288-15.993,39.159,39.159,0,0,0-6.627-9.544,31.571,31.571,0,0,0-2.591-2.46,13.384,13.384,0,0,0-1.483-1.156l-.06-.042c-.952-.637-1.842.9-.9,1.534Z" fill="#070600"/>
          </g>
        </g>
        <g id="Group_882" data-name="Group 882">
          <g id="Group_881" data-name="Group 881">
            <path id="Path_928" data-name="Path 928" d="M10102.442,1200.981a52.369,52.369,0,0,0-2.037,8.339,76.915,76.915,0,0,0-.894,20.656,68.592,68.592,0,0,0,2.931,14.45.912.912,0,0,0,.855.652h45.494c2.09,0,4.191.065,6.281,0h.087a.907.907,0,0,0,.888-.888l.361-4.886a.9.9,0,0,0-.887-.888.905.905,0,0,0-.889.888l-.36,4.886.887-.888h-49.734c-.674,0-1.367-.047-2.04,0-.028,0-.059,0-.088,0l.857.652a69.426,69.426,0,0,1-3.125-24.149,73.1,73.1,0,0,1,2.311-15.609c.243-.92.5-1.845.814-2.743a.888.888,0,0,0-1.713-.472Z" fill="#070600"/>
          </g>
        </g>
        <g id="Group_883" data-name="Group 883" opacity="0.2" style="mix-blend-mode: multiply;isolation: isolate">
          <path id="Path_929" data-name="Path 929" d="M10098.548,1196.694s11.309,10.033,31.982,5.269,26.2-7.434,26.2-7.434l-6.144-5.227s-20.058,12.661-47.29,2.815Z" fill="#414eef"/>
        </g>
        <g id="Group_885" data-name="Group 885">
          <g id="Group_884" data-name="Group 884">
            <path id="Path_930" data-name="Path 930" d="M10124.473,1195.838l-2.455,8-.354,1.155a.635.635,0,0,0,.606.8h6.447a.634.634,0,0,0,.606-.8l-3.181-8-.456-1.149a.649.649,0,0,0-.773-.439.633.633,0,0,0-.44.774l3.181,8,.457,1.149.606-.8h-6.447l.606.8,2.456-8,.354-1.155C10125.925,1195.4,10124.711,1195.065,10124.473,1195.838Z" fill="#070600"/>
          </g>
        </g>
        <g id="Group_887" data-name="Group 887">
          <g id="Group_886" data-name="Group 886">
            <path id="Path_931" data-name="Path 931" d="M10126.1,1214.169h-1.625l.377.378v-8.859l-.377.377h1.625l-.378-.377v8.859a.378.378,0,0,0,.755,0v-8.859a.383.383,0,0,0-.377-.378h-1.625a.383.383,0,0,0-.378.378v8.859a.383.383,0,0,0,.378.377h1.625A.378.378,0,0,0,10126.1,1214.169Z" fill="#070600"/>
          </g>
        </g>
        <g id="Group_889" data-name="Group 889">
          <g id="Group_888" data-name="Group 888">
            <path id="Path_932" data-name="Path 932" d="M10126.1,1206.935h-1.625l.377.378v-1.625l-.377.377h1.625l-.378-.377v1.625a.377.377,0,0,0,.755,0v-1.625a.383.383,0,0,0-.377-.378h-1.625a.383.383,0,0,0-.378.378v1.625a.383.383,0,0,0,.378.377h1.625a.377.377,0,0,0,0-.755Z" fill="#070600"/>
          </g>
        </g>
        <g id="Group_891" data-name="Group 891">
          <g id="Group_890" data-name="Group 890">
            <path id="Path_933" data-name="Path 933" d="M10126.1,1208.486h-1.625l.377.378v-3.176l-.377.377h1.625l-.378-.377v3.176a.378.378,0,0,0,.755,0v-3.176a.383.383,0,0,0-.377-.378h-1.625a.383.383,0,0,0-.378.378v3.176a.383.383,0,0,0,.378.377h1.625A.378.378,0,0,0,10126.1,1208.486Z" fill="#070600"/>
          </g>
        </g>
        <g id="Group_893" data-name="Group 893">
          <g id="Group_892" data-name="Group 892">
            <path id="Path_934" data-name="Path 934" d="M10126.1,1210.424h-1.625l.377.377v-5.113l-.377.377h1.625l-.378-.377v5.113a.378.378,0,0,0,.755,0v-5.113a.383.383,0,0,0-.377-.378h-1.625a.383.383,0,0,0-.378.378v5.113a.383.383,0,0,0,.378.378h1.625A.378.378,0,0,0,10126.1,1210.424Z" fill="#070600"/>
          </g>
        </g>
        <g id="Group_895" data-name="Group 895">
          <g id="Group_894" data-name="Group 894">
            <path id="Path_935" data-name="Path 935" d="M10126.1,1212.491h-1.625l.377.377v-7.18l-.377.377h1.625l-.378-.377v7.18a.378.378,0,0,0,.755,0v-7.18a.383.383,0,0,0-.377-.378h-1.625a.383.383,0,0,0-.378.378v7.18a.383.383,0,0,0,.378.378h1.625A.378.378,0,0,0,10126.1,1212.491Z" fill="#070600"/>
          </g>
        </g>
      </g>
      <g id="Group_897" data-name="Group 897">
        <ellipse id="Ellipse_164" data-name="Ellipse 164" cx="47.219" cy="51.942" rx="47.219" ry="51.942" transform="matrix(0.052, -0.999, 0.999, 0.052, 10073.874, 1197.887)" fill="#414eef"/>
      </g>
      <g id="Group_899" data-name="Group 899">
        <g id="Group_898" data-name="Group 898">
          <path id="Path_936" data-name="Path 936" d="M10178.455,1156.065a42.85,42.85,0,0,1-3.227,14.168,44.507,44.507,0,0,1-7.559,12.095,49.212,49.212,0,0,1-11.091,9.409,52.8,52.8,0,0,1-13.865,6.047,55.516,55.516,0,0,1-15.689,1.96,56.219,56.219,0,0,1-15.826-2.548,53.47,53.47,0,0,1-13.783-6.6,50.157,50.157,0,0,1-10.85-9.84,45.309,45.309,0,0,1-7.2-12.265,42.583,42.583,0,0,1-.857-28.673,44.144,44.144,0,0,1,6.591-12.678,47.592,47.592,0,0,1,10.3-10.108,52.1,52.1,0,0,1,13.218-6.907,54.848,54.848,0,0,1,15.3-3.021,56.6,56.6,0,0,1,16.159,1.464,54.148,54.148,0,0,1,14.3,5.66,51.047,51.047,0,0,1,11.623,9.1,46.925,46.925,0,0,1,8.23,11.862,42.838,42.838,0,0,1,4,13.656,43.752,43.752,0,0,1,.228,7.215c-.057,1.142,1.719,1.139,1.776,0a44.436,44.436,0,0,0-1.811-14.963,46.425,46.425,0,0,0-6.492-13.315,50.79,50.79,0,0,0-10.405-10.891,54.964,54.964,0,0,0-13.629-7.729,57.158,57.158,0,0,0-15.931-3.7,57.915,57.915,0,0,0-16.554.938,55.143,55.143,0,0,0-14.822,5.3,51.767,51.767,0,0,0-12.226,8.977,47.4,47.4,0,0,0-8.816,12.016,44.416,44.416,0,0,0-3.911,29.527,45.591,45.591,0,0,0,5.443,13.778,49.678,49.678,0,0,0,9.541,11.541,53.663,53.663,0,0,0,12.868,8.526,56.483,56.483,0,0,0,15.428,4.737,58.6,58.6,0,0,0,16.743.2,56.2,56.2,0,0,0,15.36-4.33,52.667,52.667,0,0,0,12.924-8.163,48.5,48.5,0,0,0,9.686-11.309,44.828,44.828,0,0,0,5.6-13.76,45.508,45.508,0,0,0,1-7.39C10180.292,1154.923,10178.516,1154.926,10178.455,1156.065Z" fill="#070600"/>
        </g>
      </g>
      <g id="Group_900" data-name="Group 900">
        <ellipse id="Ellipse_165" data-name="Ellipse 165" cx="41.76" cy="34.269" rx="41.76" ry="34.269" transform="translate(10083.32 1127.467)" fill="#ffc500"/>
      </g>
      <g id="Group_901" data-name="Group 901">
        <path id="Path_937" data-name="Path 937" d="M10125.08,1127.467c-.5,0-1,.01-1.5.025,20.82.647,37.474,15.73,37.474,34.244s-16.653,33.6-37.474,34.245c.5.015,1,.025,1.5.025,23.063,0,41.76-15.343,41.76-34.27S10148.143,1127.467,10125.08,1127.467Z" fill="#fcd259"/>
      </g>
      <g id="Group_905" data-name="Group 905">
        <g id="Group_902" data-name="Group 902">
          <circle id="Ellipse_166" data-name="Ellipse 166" cx="4.752" cy="4.752" r="4.752" transform="translate(10103.727 1154.605)" fill="#fff"/>
        </g>
        <g id="Group_904" data-name="Group 904">
          <g id="Group_903" data-name="Group 903">
            <path id="Path_938" data-name="Path 938" d="M10112.343,1159.358a3.863,3.863,0,1,1-3.128-3.8,3.893,3.893,0,0,1,3.128,3.8.889.889,0,0,0,1.776,0,5.728,5.728,0,0,0-3.746-5.312,5.638,5.638,0,1,0,3.746,5.312A.889.889,0,0,0,10112.343,1159.358Z" fill="#070600"/>
          </g>
        </g>
      </g>
      <g id="Group_909" data-name="Group 909">
        <g id="Group_906" data-name="Group 906">
          <circle id="Ellipse_167" data-name="Ellipse 167" cx="4.752" cy="4.752" r="4.752" transform="translate(10125.526 1154.605)" fill="#fff"/>
        </g>
        <g id="Group_908" data-name="Group 908">
          <g id="Group_907" data-name="Group 907">
            <path id="Path_939" data-name="Path 939" d="M10134.143,1159.358a3.863,3.863,0,1,1-3.128-3.8,3.895,3.895,0,0,1,3.128,3.8.889.889,0,0,0,1.776,0,5.728,5.728,0,0,0-3.746-5.312,5.638,5.638,0,1,0,3.746,5.312A.889.889,0,0,0,10134.143,1159.358Z" fill="#070600"/>
          </g>
        </g>
      </g>
      <g id="Group_911" data-name="Group 911">
        <g id="Group_910" data-name="Group 910">
          <path id="Path_940" data-name="Path 940" d="M10103.3,1151.691l6.962.321a.888.888,0,1,0,0-1.776l-6.962-.321a.888.888,0,0,0,0,1.776Z" fill="#070600"/>
        </g>
      </g>
      <g id="Group_913" data-name="Group 913">
        <g id="Group_912" data-name="Group 912">
          <path id="Path_941" data-name="Path 941" d="M10125.93,1151.49l6.38-.61a.912.912,0,0,0,.889-.888.894.894,0,0,0-.889-.888l-6.38.61a.913.913,0,0,0-.888.888.894.894,0,0,0,.888.888Z" fill="#070600"/>
        </g>
      </g>
      <g id="Group_915" data-name="Group 915">
        <g id="Group_914" data-name="Group 914">
          <path id="Path_942" data-name="Path 942" d="M10114.308,1171.351a52.12,52.12,0,0,1,9.873-.12.9.9,0,0,0,.889-.888.907.907,0,0,0-.889-.888,52.2,52.2,0,0,0-9.873.12.915.915,0,0,0-.888.888.894.894,0,0,0,.888.888Z" fill="#070600"/>
        </g>
      </g>
      <g id="Group_917" data-name="Group 917">
        <g id="Group_916" data-name="Group 916">
          <path id="Path_943" data-name="Path 943" d="M10165.952,1161.736a29.616,29.616,0,0,1-7.5,19.273,41.16,41.16,0,0,1-19.309,12.078,49.514,49.514,0,0,1-25.286.756,42.574,42.574,0,0,1-20.369-10.931,30.508,30.508,0,0,1-9.166-18.613,29,29,0,0,1,5.77-19.831,39.412,39.412,0,0,1,18.055-13.123,49.274,49.274,0,0,1,25.1-2.328,44.037,44.037,0,0,1,21.4,9.674,31.766,31.766,0,0,1,10.843,17.992,27.465,27.465,0,0,1,.463,5.053.888.888,0,0,0,1.775,0,31.5,31.5,0,0,0-7.944-20.443,42.85,42.85,0,0,0-20.166-12.619,51.4,51.4,0,0,0-26.231-.757,44.274,44.274,0,0,0-21.232,11.469,32.351,32.351,0,0,0-9.6,19.678,30.574,30.574,0,0,0,6.069,20.927,41.494,41.494,0,0,0,18.932,13.806,51.063,51.063,0,0,0,26.158,2.371,45.69,45.69,0,0,0,22.187-10.131,33.311,33.311,0,0,0,11.319-18.883,30.187,30.187,0,0,0,.506-5.418A.888.888,0,0,0,10165.952,1161.736Z" fill="#070600"/>
        </g>
      </g>
    </g>
    <g id="Group_963" data-name="Group 963">
      <g id="Group_919" data-name="Group 919">
        <path id="Path_944" data-name="Path 944" d="M10280.2,1179.492s-73.123-13.657-81.887,27,26.053,40.971,31.928,40.336,26.073-1.271,48.416-50.5l6.51-16.2Z" fill="#f58a28"/>
      </g>
      <g id="Group_920" data-name="Group 920">
        <path id="Path_945" data-name="Path 945" d="M10280.7,1179.555l-5.048,12.561c-22.345,49.229-42.541,49.864-48.416,50.5-3.622.392-18.238.417-26.867-9.141,7.674,13.768,25.786,13.793,29.876,13.351,5.875-.635,26.073-1.271,48.416-50.5l6.51-16.2Z" fill="#dd7826"/>
      </g>
      <g id="Group_922" data-name="Group 922">
        <g id="Group_921" data-name="Group 921">
          <path id="Path_946" data-name="Path 946" d="M10280.44,1178.636c-1.012-.189-2.031-.342-3.05-.492q-4.138-.606-8.307-1-5.8-.55-11.635-.7a136.731,136.731,0,0,0-13.67.313,97.223,97.223,0,0,0-14.351,2.086,60.548,60.548,0,0,0-13.359,4.62,37.7,37.7,0,0,0-10.876,7.877,31.094,31.094,0,0,0-6.966,11.991,51.991,51.991,0,0,0-1.878,9.652,45.362,45.362,0,0,0-.155,9.331,28.209,28.209,0,0,0,4.692,13.666,25.326,25.326,0,0,0,8.967,7.781,34.981,34.981,0,0,0,10.027,3.368,42.287,42.287,0,0,0,8.144.7,38.461,38.461,0,0,0,4.418-.361,30.858,30.858,0,0,0,6.422-1.511,37.061,37.061,0,0,0,8.692-4.552,59.514,59.514,0,0,0,10.471-9.527,108.926,108.926,0,0,0,11.751-16.436c2.224-3.734,4.283-7.565,6.222-11.456,1.336-2.684,2.7-5.382,3.814-8.165l4.931-12.269,1.283-3.192c.239-.6-.354-1.06-.857-1.124l-4.967-.635a.892.892,0,0,0-.888.888.91.91,0,0,0,.888.888l4.967.635-.855-1.124-4.059,10.1-2.156,5.363c-.079.2-.157.4-.24.6-.127.307-.228.5-.405.889q-1.513,3.3-3.134,6.543a147.839,147.839,0,0,1-12.019,20.274,77.512,77.512,0,0,1-10.933,12.453q-1.23,1.107-2.525,2.14c-.095.075-.19.151-.287.226l-.113.089c-.191.149.143-.109-.048.038-.207.158-.414.315-.623.47q-.579.429-1.168.84a39.589,39.589,0,0,1-4.491,2.712q-1.012.519-2.058.972c-.056.024-.342.143-.063.028l-.229.095c-.165.067-.33.134-.5.2q-.478.188-.964.359a29.157,29.157,0,0,1-3.359.969q-.729.164-1.468.289c-.228.039-.456.076-.686.11l-.3.042c-.082.012-.289.058.062-.008-.056.011-.113.016-.17.023-.687.087-1.375.153-2.062.226a32.723,32.723,0,0,1-5.831.015q-1.055-.079-2.106-.211l-.256-.033c-.191-.023.221.032.029,0l-.1-.014q-.289-.04-.577-.084c-.395-.061-.787-.127-1.181-.2a37.9,37.9,0,0,1-4.819-1.206c-.828-.268-1.647-.567-2.452-.9l-.174-.072c.2.085.062.026.012,0l-.316-.138q-.318-.139-.631-.287-.6-.283-1.2-.595a27.3,27.3,0,0,1-2.387-1.417q-.574-.383-1.127-.8l-.158-.12c-.007-.005-.179-.138-.067-.051s-.061-.048-.067-.053l-.156-.124c-.19-.153-.38-.309-.565-.468a23.315,23.315,0,0,1-2.1-2.029q-.494-.54-.953-1.113l-.219-.277c.128.164-.082-.11-.119-.16q-.248-.33-.481-.669a23.238,23.238,0,0,1-1.612-2.707q-.192-.376-.371-.761c-.055-.118-.108-.236-.161-.355-.021-.048-.043-.1-.063-.144-.014-.03-.143-.33-.066-.15q-.328-.78-.6-1.582a28.526,28.526,0,0,1-.968-3.554,29.753,29.753,0,0,1-.545-3.859,46.383,46.383,0,0,1,.264-9.384,47.785,47.785,0,0,1,1.879-9.038q.283-.867.616-1.719c.225-.569.331-.824.612-1.432a29.575,29.575,0,0,1,1.605-3,27.157,27.157,0,0,1,3.939-5.066q1.131-1.164,2.375-2.209a29.422,29.422,0,0,1,2.5-1.909,42.111,42.111,0,0,1,5.813-3.343q.753-.36,1.517-.693l.366-.158c.019-.008.262-.11.082-.035l.185-.077q.425-.177.854-.346,1.6-.632,3.229-1.164a78.175,78.175,0,0,1,13.822-3.074l.052-.007.206-.027.413-.053c.3-.039.605-.075.908-.111q.907-.106,1.814-.2,1.742-.176,3.491-.3,3.442-.239,6.894-.29c4.219-.069,8.44.051,12.65.324q4.942.323,9.857.929c.315.039.629.079.944.12l.467.061c.243.032-.071-.01.012,0l.241.033q.781.107,1.562.222,1.072.157,2.139.337c.243.041.485.082.728.127a.91.91,0,0,0,1.092-.62A.9.9,0,0,0,10280.44,1178.636Z" fill="#070600"/>
        </g>
      </g>
      <g id="Group_923" data-name="Group 923">
        <circle id="Ellipse_168" data-name="Ellipse 168" cx="26.896" cy="26.896" r="26.896" transform="translate(10200.954 1189.542)" fill="#fdfadb"/>
      </g>
      <g id="Group_924" data-name="Group 924">
        <path id="Path_947" data-name="Path 947" d="M10227.85,1189.542c-.853,0-1.694.045-2.527.122a26.893,26.893,0,0,1,0,53.548c.833.078,1.675.122,2.527.122a26.9,26.9,0,1,0,0-53.792Z" fill="#f7ecaa"/>
      </g>
      <g id="Group_926" data-name="Group 926">
        <g id="Group_925" data-name="Group 925">
          <path id="Path_948" data-name="Path 948" d="M10253.858,1216.438a26.008,26.008,0,0,1-46.083,16.542,25.913,25.913,0,0,1-5.855-14.49,26.012,26.012,0,1,1,51.938-2.052.888.888,0,0,0,1.775,0,27.834,27.834,0,1,0-.337,4.3,29.048,29.048,0,0,0,.337-4.3A.888.888,0,0,0,10253.858,1216.438Z" fill="#070600"/>
        </g>
      </g>
      <g id="Group_937" data-name="Group 937">
        <g id="Group_927" data-name="Group 927">
          <path id="Path_949" data-name="Path 949" d="M10203.626,1218.638c0,3.966,2.272,8.6,8.357,8.6s8.377-4.646,8.68-8.6c.2-2.6-.445-7.144-9.937-7.144C10205.574,1211.494,10203.626,1214.672,10203.626,1218.638Z" fill="#f58a28"/>
        </g>
        <g id="Group_928" data-name="Group 928">
          <path id="Path_950" data-name="Path 950" d="M10211.258,1212.221a45.464,45.464,0,0,0-8.281.007.813.813,0,0,1-.874-.722h0a.81.81,0,0,1,.736-.9,46.584,46.584,0,0,1,8.618,0,.811.811,0,0,1,.7.941h0A.808.808,0,0,1,10211.258,1212.221Z"/>
        </g>
        <g id="Group_929" data-name="Group 929">
          <path id="Path_951" data-name="Path 951" d="M10242.126,1218.638c0,3.966-2.272,8.6-8.357,8.6s-8.377-4.646-8.681-8.6c-.2-2.6.446-7.144,9.938-7.144C10240.178,1211.494,10242.126,1214.672,10242.126,1218.638Z" fill="#f58a28"/>
        </g>
        <g id="Group_930" data-name="Group 930">
          <path id="Path_952" data-name="Path 952" d="M10233.769,1228.05a8.907,8.907,0,0,1-7.128-3.111,11.141,11.141,0,0,1-2.361-6.24,6.6,6.6,0,0,1,1.588-5.2c1.729-1.867,4.81-2.813,9.159-2.813,5.027,0,7.91,2.9,7.91,7.956C10242.937,1223.323,10240.1,1228.05,10233.769,1228.05Zm1.258-15.745c-3.878,0-6.56.771-7.969,2.293a4.981,4.981,0,0,0-1.16,3.978c.142,1.841,1.127,7.852,7.871,7.852,5.569,0,7.546-4.2,7.546-7.79C10241.314,1215.749,10240.223,1212.305,10235.026,1212.305Z"/>
        </g>
        <g id="Group_933" data-name="Group 933">
          <g id="Group_931" data-name="Group 931">
            <path id="Path_953" data-name="Path 953" d="M10210.726,1210.682c-5.027,0-7.91,2.9-7.91,7.956,0,4.685,2.835,9.412,9.168,9.412a8.907,8.907,0,0,0,7.128-3.111,11.141,11.141,0,0,0,2.361-6.24,6.6,6.6,0,0,0-1.588-5.2C10218.156,1211.628,10215.075,1210.682,10210.726,1210.682Zm9.13,7.894c-.143,1.841-1.128,7.852-7.872,7.852-5.569,0-7.545-4.2-7.545-7.79,0-2.889,1.091-6.333,6.287-6.333,3.878,0,6.56.771,7.969,2.293A4.981,4.981,0,0,1,10219.855,1218.576Z"/>
          </g>
          <g id="Group_932" data-name="Group 932">
            <path id="Path_954" data-name="Path 954" d="M10233.6,1211.552h0a.809.809,0,0,0,.9.669,45.646,45.646,0,0,1,8.281.007.813.813,0,0,0,.874-.722h0a.81.81,0,0,0-.736-.9,46.583,46.583,0,0,0-8.618,0A.811.811,0,0,0,10233.6,1211.552Z"/>
          </g>
        </g>
        <g id="Group_934" data-name="Group 934">
          <path id="Path_955" data-name="Path 955" d="M10225.665,1215.14c-3.331-2.06-5.462-.118-5.483-.1l-1.11-1.182c1.044-.981,3.944-2.265,7.446-.1Z"/>
        </g>
        <g id="Group_935" data-name="Group 935">
          <path id="Path_956" data-name="Path 956" d="M10213.153,1213.691s5.877,1.646,5.122,4S10208.45,1212.94,10213.153,1213.691Z" fill="#fdfadb"/>
        </g>
        <g id="Group_936" data-name="Group 936">
          <path id="Path_957" data-name="Path 957" d="M10234.605,1213.691s5.877,1.646,5.121,4S10229.9,1212.94,10234.605,1213.691Z" fill="#fdfadb"/>
        </g>
      </g>
      <g id="Group_938" data-name="Group 938">
        <ellipse id="Ellipse_169" data-name="Ellipse 169" cx="6.057" cy="3.193" rx="6.057" ry="3.193" transform="translate(10216.737 1226.428)" fill="#fdf157"/>
      </g>
      <g id="Group_940" data-name="Group 940">
        <g id="Group_939" data-name="Group 939">
          <path id="Path_958" data-name="Path 958" d="M10227.964,1229.62c0,.029-.036.285,0,.091a1.981,1.981,0,0,1-.062.238c-.078.244.046-.076-.026.059-.034.064-.07.126-.108.188a2.978,2.978,0,0,1-.654.629,6.706,6.706,0,0,1-2.541.951,8.723,8.723,0,0,1-5.908-.833,2.935,2.935,0,0,1-.731-.6,1.078,1.078,0,0,1-.307-.63c.04.208.039-.39,0-.181.013-.068.128-.384.07-.26a2.938,2.938,0,0,1,.176-.3,2.764,2.764,0,0,1,.449-.443c1.432-1.135,3.735-1.332,5.547-1.162a7.33,7.33,0,0,1,2.963.875,2.808,2.808,0,0,1,.918.765c-.08-.106.192.368.124.208a1.959,1.959,0,0,1,.075.237q.029.158.009.006c0,.055.008.109.008.164a.889.889,0,0,0,1.776,0c-.057-2.3-2.627-3.454-4.559-3.841a10.427,10.427,0,0,0-7.6,1.1,3.567,3.567,0,0,0-1.7,2.375,2.984,2.984,0,0,0,1.029,2.58c1.841,1.69,4.792,2.064,7.177,1.79,2.2-.252,5.585-1.279,5.651-4.007A.889.889,0,0,0,10227.964,1229.62Z" fill="#070600"/>
        </g>
      </g>
      <g id="Group_942" data-name="Group 942">
        <g id="Group_941" data-name="Group 941">
          <path id="Path_959" data-name="Path 959" d="M10219.708,1230.694l6.173-.59a.516.516,0,0,0,.5-.5.507.507,0,0,0-.5-.5l-6.173.59a.516.516,0,0,0-.5.5.506.506,0,0,0,.5.5Z" fill="#070600"/>
        </g>
      </g>
      <g id="Group_946" data-name="Group 946">
        <g id="Group_943" data-name="Group 943">
          <path id="Path_960" data-name="Path 960" d="M10205.287,1232.061a5.341,5.341,0,0,0-6,.676s-3.472,4.864-6.992,2.15,2.11-12.608,8.637-12.364" fill="#fdfadb"/>
        </g>
        <g id="Group_945" data-name="Group 945">
          <g id="Group_944" data-name="Group 944">
            <path id="Path_961" data-name="Path 961" d="M10205.735,1231.294a6.219,6.219,0,0,0-6.944.706,1.946,1.946,0,0,0-.317.345c-.083.114.17-.207.042-.054-.046.054-.089.111-.135.166a10,10,0,0,1-.757.812,5.964,5.964,0,0,1-1.121.895,3.875,3.875,0,0,1-1.348.59,2.536,2.536,0,0,1-1.5-.094,2.745,2.745,0,0,1-1.118-.758c-.106-.115,0,.007.019.03-.03-.044-.062-.087-.091-.132-.045-.073-.086-.147-.129-.222-.021-.037-.037-.078-.057-.116-.061-.119.068.2,0,0-.031-.095-.065-.188-.091-.285s-.044-.2-.066-.3c-.032-.142,0,.139-.015-.113a5.774,5.774,0,0,1-.014-.663c.006-.1.014-.205.023-.308,0,0,.031-.251.012-.117-.016.114.011-.055.016-.081.046-.246.1-.49.162-.732a8.872,8.872,0,0,1,.483-1.345,12.136,12.136,0,0,1,1.779-2.782,10.544,10.544,0,0,1,2.9-2.431,6.592,6.592,0,0,1,3.451-.9.889.889,0,0,0,0-1.776,9.638,9.638,0,0,0-6.845,3.033,12.524,12.524,0,0,0-3.608,6.256,5.658,5.658,0,0,0,.1,3.011,4.09,4.09,0,0,0,2.512,2.4c2.4.915,4.838-.672,6.374-2.416.162-.184.385-.609.583-.725.043-.025-.048.1-.039.1.119-.065.227-.161.341-.235a5.083,5.083,0,0,1,.741-.4,4.387,4.387,0,0,1,1.089-.3,4.3,4.3,0,0,1,1.987.191c.116.037.229.079.343.12.153.056-.02-.01-.043-.02.047.02.095.041.141.063.079.039.159.076.236.121a.888.888,0,0,0,.9-1.533Z"/>
          </g>
        </g>
      </g>
      <g id="Group_950" data-name="Group 950">
        <g id="Group_947" data-name="Group 947">
          <path id="Path_962" data-name="Path 962" d="M10250.2,1231.8a5.343,5.343,0,0,1,6,.676s3.47,4.863,6.991,2.15-2.11-12.608-8.637-12.364" fill="#fdfadb"/>
        </g>
        <g id="Group_949" data-name="Group 949">
          <g id="Group_948" data-name="Group 948">
            <path id="Path_963" data-name="Path 963" d="M10250.653,1232.564c.051-.03.1-.058.158-.084s.129-.06.192-.089c.114-.052-.219.079-.018.009.065-.023.131-.049.2-.072a4.4,4.4,0,0,1,3.761.34c.187.109.355.255.544.359.122.068-.117-.159-.025-.077a2.763,2.763,0,0,1,.281.363c1.318,1.643,3.389,3.247,5.617,3a4.374,4.374,0,0,0,3.245-1.957,4.649,4.649,0,0,0,.537-2.82,11.8,11.8,0,0,0-3.1-6.465,9.971,9.971,0,0,0-7.475-3.7c-1.141.033-1.146,1.809,0,1.775a6.527,6.527,0,0,1,3.014.667,9.753,9.753,0,0,1,2.72,1.99,10.744,10.744,0,0,1,3.037,5.49c.01.053.018.107.026.16-.028-.181,0-.007,0,.039.01.1.02.206.024.309a5.089,5.089,0,0,1-.011.7c0,.047-.009.095-.015.142,0-.031.034-.191,0-.029-.02.089-.036.178-.059.267s-.05.17-.078.255c-.072.227.048-.055-.062.148-.046.086-.094.168-.144.251-.022.037-.049.07-.072.106-.069.1.1-.119.021-.029a3.541,3.541,0,0,1-.374.358,3,3,0,0,1-1.534.585,3.623,3.623,0,0,1-.391-.008,1.4,1.4,0,0,1-.288-.047,4.171,4.171,0,0,1-.415-.115c-.12-.039-.264-.1-.275-.1a5.612,5.612,0,0,1-.7-.383c-.1-.066-.207-.135-.309-.206l-.146-.107a.652.652,0,0,1-.1-.081,9.983,9.983,0,0,1-1-.943c-.11-.121-.219-.244-.323-.37-.038-.046-.074-.092-.112-.137-.136-.163.061.052.025.033-.017-.008-.032-.043-.045-.059a2.03,2.03,0,0,0-.459-.433,6.47,6.47,0,0,0-1.352-.8,6.151,6.151,0,0,0-5.412.232.889.889,0,0,0,.9,1.533Z"/>
          </g>
        </g>
      </g>
      <g id="Group_954" data-name="Group 954">
        <g id="Group_951" data-name="Group 951">
          <path id="Path_964" data-name="Path 964" d="M10243.939,1238.568c7.679,4.881,6.4,11.887,5.109,15.127s-8.667,3.047-9.191-1.683-5.134-8.678-5.134-8.678" fill="#fdfadb"/>
        </g>
        <g id="Group_953" data-name="Group 953">
          <g id="Group_952" data-name="Group 952">
            <path id="Path_965" data-name="Path 965" d="M10243.491,1239.335a11.6,11.6,0,0,1,5.475,7.459,6.5,6.5,0,0,1,.116.8c.032.333.049.668.053,1a12.8,12.8,0,0,1-.1,1.73c.021-.17-.029.186-.04.253-.022.132-.045.264-.071.395q-.081.414-.187.824a13.793,13.793,0,0,1-.433,1.378c-.035.1-.068.192-.108.286.08-.189-.045.075-.078.132s-.061.1-.091.147c0,.005-.138.187-.054.079.043-.055-.151.167-.209.223-.042.041-.3.261-.145.139q-.146.109-.3.2c-.106.065-.216.125-.326.18-.068.034-.137.066-.206.1.145-.063-.019,0-.074.024a6.067,6.067,0,0,1-.761.215c-.06.012-.43.071-.245.047-.164.022-.329.035-.493.043a6.587,6.587,0,0,1-.793-.012l-.209-.018c-.266-.026.105.018-.055-.007s-.3-.051-.453-.086a6.123,6.123,0,0,1-.8-.241c-.253-.095.151.074-.094-.038l-.148-.071a4.875,4.875,0,0,1-.43-.239c-.115-.072-.229-.148-.337-.23.12.092-.15-.137-.191-.176-.1-.093-.19-.192-.281-.294-.036-.04-.071-.083-.1-.125.106.138-.082-.129-.1-.155-.066-.106-.129-.215-.185-.327-.032-.063-.063-.127-.09-.192.058.141-.011-.034-.021-.069a6.063,6.063,0,0,1-.191-.823,10.984,10.984,0,0,0-.686-2.667,17.393,17.393,0,0,0-4.693-6.513.911.911,0,0,0-1.256,0,.9.9,0,0,0,0,1.256,15.651,15.651,0,0,1,4.23,5.711,9.479,9.479,0,0,1,.655,2.434,5.035,5.035,0,0,0,.7,2.086,5.577,5.577,0,0,0,3.22,2.3c2.273.653,5.539.219,6.778-2.068a10.736,10.736,0,0,0,.966-3.062,13.322,13.322,0,0,0,.189-3.962,11.888,11.888,0,0,0-1.667-4.935,15.055,15.055,0,0,0-4.784-4.666c-.965-.619-1.855.917-.9,1.533Z"/>
          </g>
        </g>
      </g>
      <g id="Group_958" data-name="Group 958">
        <g id="Group_955" data-name="Group 955">
          <path id="Path_966" data-name="Path 966" d="M10212.167,1238.568l-5.45,10.035a6.1,6.1,0,0,0,2.774,8.436h0a6.1,6.1,0,0,0,8.138-3l4.607-10.116" fill="#fdfadb"/>
        </g>
        <g id="Group_957" data-name="Group 957">
          <g id="Group_956" data-name="Group 956">
            <path id="Path_967" data-name="Path 967" d="M10211.4,1238.12l-3.272,6.025-1.846,3.4a8.418,8.418,0,0,0-1.189,3.731,6.986,6.986,0,0,0,13.346,3.125c.411-.9.818-1.8,1.229-2.7,1.09-2.392,2.187-4.78,3.268-7.176l.068-.149a.915.915,0,0,0-.319-1.215.9.9,0,0,0-1.215.319l-2.687,5.9-1.585,3.48a7.173,7.173,0,0,1-1.783,2.665,5.217,5.217,0,0,1-8.518-3.389,5.747,5.747,0,0,1,.8-3.479l1.636-3.011c1.176-2.166,2.38-4.319,3.53-6.5.022-.044.047-.087.069-.131.546-1-.986-1.9-1.532-.9Z"/>
          </g>
        </g>
      </g>
      <g id="Group_960" data-name="Group 960">
        <g id="Group_959" data-name="Group 959">
          <path id="Path_968" data-name="Path 968" d="M10253.858,1216.438a26.008,26.008,0,0,1-46.083,16.542,25.913,25.913,0,0,1-5.855-14.49,26.012,26.012,0,1,1,51.938-2.052.888.888,0,0,0,1.775,0,27.834,27.834,0,1,0-.337,4.3,29.048,29.048,0,0,0,.337-4.3A.888.888,0,0,0,10253.858,1216.438Z" fill="#070600"/>
        </g>
      </g>
      <g id="Group_961" data-name="Group 961" style="mix-blend-mode: multiply;isolation: isolate">
        <path id="Path_969" data-name="Path 969" d="M10211.051,1241.713l9.641,4.025,1.545-2.727-10.069-4.443Z" fill="#f7ecaa"/>
      </g>
      <g id="Group_962" data-name="Group 962" style="mix-blend-mode: multiply;isolation: isolate">
        <path id="Path_970" data-name="Path 970" d="M10238.009,1245.464l8.635-3.765-2.651-2.857-8.554,4.586Z" fill="#f7ecaa"/>
      </g>
    </g>
    <g id="Group_998" data-name="Group 998">
      <g id="Group_964" data-name="Group 964">
        <path id="Rectangle_318" data-name="Rectangle 318" d="M0,0H12.3a0,0,0,0,1,0,0V10.493a6.148,6.148,0,0,1-6.148,6.148h0A6.148,6.148,0,0,1,0,10.493V0A0,0,0,0,1,0,0Z" transform="translate(10331.721 1240.159)" fill="#03c8a1"/>
      </g>
      <g id="Group_965" data-name="Group 965">
        <path id="Rectangle_319" data-name="Rectangle 319" d="M0,0H12.3a0,0,0,0,1,0,0V10.493a6.148,6.148,0,0,1-6.148,6.148h0A6.148,6.148,0,0,1,0,10.493V0A0,0,0,0,1,0,0Z" transform="translate(10348.456 1240.159)" fill="#03c8a1"/>
      </g>
      <g id="Group_969" data-name="Group 969">
        <g id="Group_966" data-name="Group 966">
          <path id="Path_971" data-name="Path 971" d="M10337.869,1256.8h0a6.148,6.148,0,0,1-6.148-6.148v-10.493h12.3v10.493A6.148,6.148,0,0,1,10337.869,1256.8Z" fill="#03c8a1"/>
        </g>
        <g id="Group_968" data-name="Group 968">
          <g id="Group_967" data-name="Group 967">
            <path id="Path_972" data-name="Path 972" d="M10337.869,1255.913a5.283,5.283,0,0,1-4.442-2.441,5.955,5.955,0,0,1-.817-3.3v-10.013l-.889.888h12.3l-.888-.888v9.748a6.834,6.834,0,0,1-.432,2.85,5.332,5.332,0,0,1-4.829,3.156.888.888,0,0,0,0,1.775,7.133,7.133,0,0,0,5.646-2.846,7.222,7.222,0,0,0,1.392-4.415v-10.268a.9.9,0,0,0-.889-.888h-12.3a.9.9,0,0,0-.888.888v6.56c0,2.505-.349,5.312,1,7.551a7.109,7.109,0,0,0,6.036,3.418A.888.888,0,0,0,10337.869,1255.913Z"/>
          </g>
        </g>
      </g>
      <g id="Group_973" data-name="Group 973">
        <g id="Group_970" data-name="Group 970">
          <path id="Path_973" data-name="Path 973" d="M10354.6,1256.8h0a6.147,6.147,0,0,1-6.147-6.148v-10.493h12.3v10.493A6.148,6.148,0,0,1,10354.6,1256.8Z" fill="#03c8a1"/>
        </g>
        <g id="Group_972" data-name="Group 972">
          <g id="Group_971" data-name="Group 971">
            <path id="Path_974" data-name="Path 974" d="M10354.6,1255.913a5.282,5.282,0,0,1-4.441-2.441,5.947,5.947,0,0,1-.818-3.3v-10.013l-.888.888h12.3l-.888-.888v9.748a6.82,6.82,0,0,1-.434,2.85,5.329,5.329,0,0,1-4.828,3.156.888.888,0,0,0,0,1.775,7.134,7.134,0,0,0,5.646-2.846,7.227,7.227,0,0,0,1.391-4.415v-10.268a.9.9,0,0,0-.888-.888h-12.3a.9.9,0,0,0-.888.888v6.56c0,2.505-.351,5.312,1,7.551a7.108,7.108,0,0,0,6.035,3.418A.888.888,0,0,0,10354.6,1255.913Z"/>
          </g>
        </g>
      </g>
      <g id="Group_977" data-name="Group 977">
        <g id="Group_974" data-name="Group 974">
          <circle id="Ellipse_170" data-name="Ellipse 170" cx="37.844" cy="37.844" r="37.844" transform="translate(10307.11 1168.936)" fill="#03c8a1"/>
        </g>
        <g id="Group_976" data-name="Group 976">
          <g id="Group_975" data-name="Group 975">
            <path id="Path_975" data-name="Path 975" d="M10381.91,1206.78a36.729,36.729,0,1,1-.425-5.662,37.179,37.179,0,0,1,.425,5.662.888.888,0,0,0,1.775,0,38.732,38.732,0,1,0-.47,6.014,40,40,0,0,0,.47-6.014A.888.888,0,0,0,10381.91,1206.78Z"/>
          </g>
        </g>
      </g>
      <g id="Group_981" data-name="Group 981">
        <g id="Group_978" data-name="Group 978">
          <path id="Path_976" data-name="Path 976" d="M10310.518,1191.079s-15.731,1.592-16.544,11.536,28.412,16.641,28.412,16.641,24.316,6.82,56.95,4.536a19.835,19.835,0,0,0,9.872-3.4c3.54-2.439,6.668-6.331,3.663-11.769a12.453,12.453,0,0,0-4.812-4.766l-5.262-2.974.345,8.933s7.229,2.944,1.141,4.771-34.5,4.87-58.854-2.233-21.715-7.509-21.715-7.509-5.653-4.589,4.175-5.745Z" fill="#ffd244"/>
        </g>
        <g id="Group_980" data-name="Group 980">
          <g id="Group_979" data-name="Group 979">
            <path id="Path_977" data-name="Path 977" d="M10310.518,1190.191a30.162,30.162,0,0,0-9.313,2.546,15.748,15.748,0,0,0-5.919,4.349,9.237,9.237,0,0,0-2.132,6.895,8.812,8.812,0,0,0,2.791,4.768,25.506,25.506,0,0,0,5.631,3.956,74.933,74.933,0,0,0,13.786,5.54c2.251.695,4.521,1.291,6.8,1.871s4.554,1.1,6.855,1.555c5.828,1.147,11.724,1.972,17.635,2.546a197.719,197.719,0,0,0,25.477.83c2.4-.077,4.808-.19,7.205-.367a21.313,21.313,0,0,0,6.517-1.489c3.35-1.369,6.944-3.721,8.434-7.168,1.652-3.821-.069-8.034-2.915-10.793a29.231,29.231,0,0,0-6.214-4.032l-1.911-1.08a.9.9,0,0,0-1.336.767l.3,7.821.043,1.112a.933.933,0,0,0,.652.857c-.088-.036-.223-.1-.014,0,.173.078.345.157.515.24a11.92,11.92,0,0,1,1.4.8c.1.071.208.144.31.221-.149-.113.147.124.194.165.1.086.188.176.275.271.045.049.089.1.131.152-.089-.111-.035-.06.011.027.026.052.06.1.089.157.061.106.04-.091,0,0-.012.023.031.078.026.107.038-.215-.028-.118-.011-.022.029.152.078-.158,0-.021-.015.028-.037.193-.014.056s0,.028-.042.054c.176-.11-.036.033-.087.085-.141.143-.037.057-.23.173a4.724,4.724,0,0,1-.576.3,8.469,8.469,0,0,1-1.032.348c-.383.109-.77.2-1.157.288-1.074.239-2.16.425-3.248.59-3.067.468-6.432.779-9.674.981q-6.407.4-12.831.258a122.959,122.959,0,0,1-29.8-3.986c-4.563-1.247-9.095-2.651-13.6-4.089-2.35-.75-4.7-1.512-7-2.4-.315-.122-.629-.25-.943-.378-.159-.064.224.1-.013-.005l-.16-.07c-.112-.05-.226-.1-.338-.153-.27-.126-.522-.272-.781-.42-.189-.109.174.2.009,0a1.057,1.057,0,0,1,.17.3c.1.4-.162,1-.559,1.011a.207.207,0,0,0,.021-.005.892.892,0,0,0,.392-1.484,5.122,5.122,0,0,1-.445-.42c-.142-.147-.271-.3-.4-.459.161.192-.022-.033-.09-.135s-.138-.214-.2-.325c-.052-.095-.165-.385-.076-.135-.043-.121-.082-.241-.119-.364-.016-.053-.02-.109-.032-.163,0-.009,0,.2.007.024a1.543,1.543,0,0,0,0-.19c-.016-.206-.033.1,0,0,.017-.06.036-.129.048-.19.032-.169-.006,0-.006,0,.03-.053.06-.11.089-.165.075-.142.1-.139.044-.075a3.552,3.552,0,0,1,.317-.317c.1-.084-.117.086-.012.007l.091-.065c.1-.065.2-.13.306-.19a11.191,11.191,0,0,1,4.029-1.063.935.935,0,0,0,.856-.651l2.3-7.022.328-1c.357-1.089-1.358-1.555-1.712-.472l-2.3,7.021-.328,1,.855-.651a14.628,14.628,0,0,0-4.572,1.122,3.147,3.147,0,0,0-.886,5.49,5.412,5.412,0,0,0,.655.648l.392-1.484a.973.973,0,0,0-.59,1.443,3.589,3.589,0,0,0,1.707,1.1c1.838.8,3.743,1.446,5.644,2.081,3.991,1.332,8.021,2.549,12.056,3.743a122.723,122.723,0,0,0,16.105,3.739,147.392,147.392,0,0,0,40.462.433c1.257-.174,2.512-.373,3.755-.627a13.667,13.667,0,0,0,3.379-1.032,2.773,2.773,0,0,0,1.553-1.632,2.091,2.091,0,0,0-.392-1.746,7.671,7.671,0,0,0-2.955-2.168c-.271-.131-.545-.252-.823-.366l.652.856-.3-7.821-.043-1.112-1.336.766,4.79,2.707c2.784,1.574,5.206,3.93,5.91,7.168.725,3.336-1.507,6.13-4.076,7.952a18.652,18.652,0,0,1-5.517,2.677,28.466,28.466,0,0,1-6.524.9,196.748,196.748,0,0,1-25.857-.236,185.934,185.934,0,0,1-18.729-2.328c-3.084-.549-6.164-1.164-9.2-1.952-1.442-.374-2.89-.726-4.324-1.127a94.17,94.17,0,0,1-12.568-4.39,42.687,42.687,0,0,1-6.3-3.354,17.713,17.713,0,0,1-2.415-1.852,13.536,13.536,0,0,1-1.006-1.015c-.147-.165-.288-.333-.424-.506-.09-.114.123.167-.015-.02l-.084-.114c-.067-.095-.135-.191-.2-.288a7.691,7.691,0,0,1-.616-1.117c.1.216-.024-.065-.044-.118-.033-.09-.065-.181-.094-.272a5.542,5.542,0,0,1-.156-.611c-.017-.083-.029-.165-.042-.248.042.269,0-.081-.009-.137a4.886,4.886,0,0,1-.007-.6,7.063,7.063,0,0,1,.28-1.626,9.749,9.749,0,0,1,3.993-5.213,25.614,25.614,0,0,1,10.872-3.9c.1-.016.207-.029.31-.045-.287.043-.113.015.02,0,.063-.008.128-.016.192-.022a.914.914,0,0,0,.889-.888A.894.894,0,0,0,10310.518,1190.191Z" fill="#070301"/>
          </g>
        </g>
      </g>
      <g id="Group_982" data-name="Group 982">
        <rect id="Rectangle_320" data-name="Rectangle 320" width="67.088" height="10.972" rx="3.185" transform="translate(10310.533 1178.186)" fill="#fff"/>
      </g>
      <g id="Group_983" data-name="Group 983">
        <path id="Rectangle_321" data-name="Rectangle 321" d="M3.119,0h60.85a3.119,3.119,0,0,1,3.119,3.119V6.572a0,0,0,0,1,0,0H0a0,0,0,0,1,0,0V3.119A3.119,3.119,0,0,1,3.119,0Z" transform="translate(10310.533 1178.186)" fill="#fff"/>
      </g>
      <g id="Group_984" data-name="Group 984">
        <rect id="Rectangle_322" data-name="Rectangle 322" width="67.088" height="1.814" transform="translate(10310.533 1181.305)" fill="#414eef"/>
      </g>
      <g id="Group_985" data-name="Group 985">
        <rect id="Rectangle_323" data-name="Rectangle 323" width="67.088" height="1.814" transform="translate(10310.533 1183.852)" fill="#ec5e72"/>
      </g>
      <g id="Group_987" data-name="Group 987">
        <g id="Group_986" data-name="Group 986">
          <path id="Path_978" data-name="Path 978" d="M10374.5,1177.3h-60.66a4.153,4.153,0,0,0-3.526,1.792c-.933,1.352-.67,3.22-.67,4.777,0,1.478-.194,3.087.688,4.37a4.2,4.2,0,0,0,3.522,1.809h58.479a24.067,24.067,0,0,0,2.462-.02,4.133,4.133,0,0,0,3.146-1.981,5.374,5.374,0,0,0,.565-2.892v-3.645a4.085,4.085,0,0,0-4.007-4.21.889.889,0,0,0,0,1.776,2.25,2.25,0,0,1,2.118,1.526,5.669,5.669,0,0,1,.113,1.7c0,1.217.017,2.435,0,3.651a2.331,2.331,0,0,1-2.359,2.317c-.3,0-.609,0-.913,0h-56.6c-1.01,0-2.021,0-3.031,0a2.345,2.345,0,0,1-2.364-1.819,8.069,8.069,0,0,1-.049-1.712v-1.892c0-.534-.012-1.069,0-1.6a2.24,2.24,0,0,1,1.524-2.057,3.742,3.742,0,0,1,1.174-.113h60.382A.889.889,0,0,0,10374.5,1177.3Z" fill="#020202"/>
        </g>
      </g>
      <g id="Group_988" data-name="Group 988" style="mix-blend-mode: multiply;isolation: isolate">
        <path id="Path_979" data-name="Path 979" d="M10331.822,1243.362v3.96l11.2,1.157v-3.856Z" fill="#03c8a1"/>
      </g>
      <g id="Group_989" data-name="Group 989" style="mix-blend-mode: multiply;isolation: isolate">
        <path id="Path_980" data-name="Path 980" d="M10349.015,1245.1v2.511l11.738-1.691v-4.743l-8.357,3.217Z" fill="#03c8a1"/>
      </g>
      <g id="Group_990" data-name="Group 990" style="mix-blend-mode: multiply;isolation: isolate">
        <path id="Path_981" data-name="Path 981" d="M10308.332,1215.244l1.358,3.223s15.911,6.548,38.766,7.627,29.28-.394,29.28-.394l.58-1.839-18.486.4-37.444-5Z" fill="#03c8a1"/>
      </g>
      <g id="Group_991" data-name="Group 991">
        <circle id="Ellipse_171" data-name="Ellipse 171" cx="3.949" cy="3.949" r="3.949" transform="translate(10349.181 1197.793)" fill="#070600"/>
      </g>
      <g id="Group_992" data-name="Group 992">
        <circle id="Ellipse_172" data-name="Ellipse 172" cx="3.949" cy="3.949" r="3.949" transform="translate(10331.855 1197.793)" fill="#070600"/>
      </g>
      <g id="Group_993" data-name="Group 993">
        <path id="Path_982" data-name="Path 982" d="M10346.706,1208.962a8.921,8.921,0,0,1,.953,2.429,3.008,3.008,0,0,1-.541,2.475,2.6,2.6,0,0,1-3.006.557,3.538,3.538,0,0,1-1.869-2.552,5.62,5.62,0,0,1,.432-3.208Z" fill="#ec5e72"/>
      </g>
      <g id="Group_995" data-name="Group 995">
        <g id="Group_994" data-name="Group 994">
          <path id="Path_983" data-name="Path 983" d="M10340.136,1207.591a5.5,5.5,0,0,0,8.314.343c.789-.827-.465-2.085-1.256-1.256a3.789,3.789,0,0,1-5.8-.342.892.892,0,0,0-1.256,0,.909.909,0,0,0,0,1.255Z" fill="#070600"/>
        </g>
      </g>
      <g id="Group_997" data-name="Group 997">
        <g id="Group_996" data-name="Group 996">
          <path id="Path_984" data-name="Path 984" d="M10341.818,1208.427c-.925,2.242-.706,5.078,1.444,6.535a3.593,3.593,0,0,0,3.191.387,3.252,3.252,0,0,0,2.1-2.635,7.036,7.036,0,0,0-1.077-4.2.888.888,0,1,0-1.532.9,12.607,12.607,0,0,1,.611,1.312,5.808,5.808,0,0,1,.209.7c.013.051.022.1.032.153,0,.015.033.215.021.113s0,.06,0,.063c0,.076.01.151.012.227,0,.107,0,.213-.007.319,0,.022-.017.176,0,.035,0,.045-.015.09-.023.134a2.724,2.724,0,0,1-.076.305c-.018.057-.036.114-.059.169.035-.088,0-.007-.019.033-.052.091-.1.181-.16.267-.084.119.065-.07-.025.028-.027.03-.053.06-.081.088s-.077.072-.116.108c.026-.024.136-.088-.008.006-.089.058-.179.109-.271.16-.011.005-.129.059-.038.021s-.057.018-.079.026a2.674,2.674,0,0,1-.27.074c-.039.009-.077.014-.116.023-.134.03.134,0,0,0-.106,0-.214.012-.321.009-.06,0-.289-.035-.124,0-.092-.017-.185-.035-.275-.06a2.528,2.528,0,0,1-.266-.087c.158.062-.113-.064-.158-.09a2.771,2.771,0,0,1-.279-.184c.11.083-.047-.044-.077-.073-.082-.076-.16-.156-.234-.239-.028-.031-.055-.063-.082-.1-.058-.07.046.075-.039-.054-.108-.167-.2-.335-.3-.511-.012-.022-.07-.155-.013-.02-.018-.039-.031-.079-.047-.118-.038-.106-.072-.214-.1-.323a2.5,2.5,0,0,1-.109-.66,4.847,4.847,0,0,1,.026-.816c0,.041-.021.122.011-.069.013-.067.024-.135.038-.2.027-.134.06-.268.095-.4a7.441,7.441,0,0,1,.3-.874.892.892,0,0,0-.62-1.093.915.915,0,0,0-1.093.62Z" fill="#070600"/>
        </g>
      </g>
    </g>
    <g id="Group_1078" data-name="Group 1078">
      <g id="Group_1003" data-name="Group 1003">
        <g id="Group_999" data-name="Group 999">
          <path id="Path_985" data-name="Path 985" d="M10436.216,1214.065s-8.827,14.439,0,33.938a12.456,12.456,0,0,1-5.783,3.861c-3.957,1.351-1.521,4.44,5.783,4.633s15.523-.579,15.523-4.44a62.063,62.063,0,0,0-1.218-9.773l-.3-13.2-.608-12.741Z" fill="#cccbca"/>
          <path id="Path_986" data-name="Path 986" d="M10438.279,1256.686c-.705,0-1.4-.01-2.067-.027-5.081-.135-7.611-1.611-7.811-2.925-.073-.478.087-1.376,1.979-2.022a12.654,12.654,0,0,0,5.648-3.731,40.9,40.9,0,0,1-3.282-24.288,31.069,31.069,0,0,1,3.331-9.712l.057-.093,13.628,2.317.615,12.871.3,13.2a61.926,61.926,0,0,1,1.219,9.776,2.749,2.749,0,0,1-.9,2.016C10448.85,1256.171,10443.257,1256.686,10438.279,1256.686Zm-1.98-42.443c-.726,1.276-8.258,15.311.064,33.694l.038.085-.056.076a12.507,12.507,0,0,1-5.86,3.918c-1.222.417-1.864,1.025-1.767,1.669.188,1.224,2.823,2.528,7.5,2.651,4.363.116,12.056-.055,14.56-2.493a2.442,2.442,0,0,0,.8-1.786,62.35,62.35,0,0,0-1.214-9.74l-.309-13.23-.6-12.608Z"/>
        </g>
        <g id="Group_1001" data-name="Group 1001">
          <g id="Group_1000" data-name="Group 1000">
            <path id="Path_987" data-name="Path 987" d="M10435.449,1213.617a26.061,26.061,0,0,0-2.566,6.311,39.3,39.3,0,0,0-1.064,16.3,44.992,44.992,0,0,0,3.631,12.227v-.9c-.047.065.187-.223.015-.023-.124.143-.247.285-.377.422a11.052,11.052,0,0,1-1.314,1.169,13.84,13.84,0,0,1-2.4,1.42,24.988,24.988,0,0,0-2.326.974,2.286,2.286,0,0,0-1.256,2.715c.467,1.237,1.829,1.885,2.993,2.3a19.079,19.079,0,0,0,6.007.868,57.89,57.89,0,0,0,6.385-.19,23.469,23.469,0,0,0,5.5-1.028,6.248,6.248,0,0,0,3.474-2.383,3.589,3.589,0,0,0,.479-1.912c-.006-.932-.077-1.863-.17-2.79-.179-1.8-.448-3.591-.763-5.371q-.13-.741-.276-1.479c-.013-.064-.068-.341-.023-.078.038.23.012.073.014.008.014-.671-.031-1.349-.047-2.02-.086-3.739-.092-7.489-.263-11.225-.187-4.073-.39-8.146-.584-12.219l-.018-.369a.9.9,0,0,0-.652-.856l-11.709-1.991-1.683-.286a.914.914,0,0,0-1.092.62.893.893,0,0,0,.62,1.092l11.709,1.991,1.683.286-.652-.856.553,11.538c.153,3.238.179,6.483.254,9.724.034,1.552,0,3.126.106,4.675.061.829.309,1.671.447,2.489.295,1.731.544,3.473.681,5.224.032.414.059.829.074,1.244.008.235.015.471.016.707,0,.063,0,.126,0,.189s-.047.357,0,.126c-.021.117-.054.229-.086.344-.011.039-.105.246-.013.049-.021.042-.039.087-.063.127-.039.065-.2.32-.162.271.078-.108-.068.081-.069.082-.067.075-.136.149-.209.219-.047.045-.3.263-.184.169a4.081,4.081,0,0,1-.344.238,6.79,6.79,0,0,1-.885.47,13.27,13.27,0,0,1-2.121.663,31.233,31.233,0,0,1-5.62.683,46.907,46.907,0,0,1-6.428-.053,11.009,11.009,0,0,1-4.426-1.17c-.13-.076-.255-.158-.377-.246.166.119-.084-.073-.131-.117-.072-.069-.14-.143-.205-.218.177.2-.024-.08-.07-.131-.1-.114.027.179.012.033,0-.038-.031-.074-.032-.113-.008-.169-.022.223,0-.054.015-.142-.015.1-.016.1.018-.04.01-.093.033-.131.088-.145-.133.166-.016.038a.78.78,0,0,0,.074-.127c.087-.157-.143.143-.009.013.026-.026.049-.058.076-.082.045-.039.088-.081.131-.12.155-.142-.161.1.023-.017.1-.064.2-.128.3-.185.056-.031.113-.06.17-.088.029-.015.28-.126.127-.062a28.475,28.475,0,0,0,2.786-1.2,13.082,13.082,0,0,0,3.36-2.583,7.684,7.684,0,0,0,.5-.613.9.9,0,0,0,0-.9,41.136,41.136,0,0,1-3.717-19.6,35.705,35.705,0,0,1,1.154-6.93q.366-1.362.84-2.691c.133-.371.273-.741.419-1.107.062-.151.123-.3.186-.451-.1.25.012-.028.034-.077.031-.075.064-.15.1-.224a16.652,16.652,0,0,1,.986-1.966C10437.579,1213.535,10436.044,1212.642,10435.449,1213.617Z" fill="#070600"/>
          </g>
        </g>
        <g id="Group_1002" data-name="Group 1002" style="mix-blend-mode: multiply;isolation: isolate">
          <path id="Path_988" data-name="Path 988" d="M10434.669,1244.144l16.619,2.644-.767-4.5-17.025-2.058Z" fill="#cccbca"/>
        </g>
      </g>
      <g id="Group_1008" data-name="Group 1008">
        <g id="Group_1004" data-name="Group 1004">
          <path id="Path_989" data-name="Path 989" d="M10469.029,1214.065s8.827,14.439,0,33.938a12.463,12.463,0,0,0,5.784,3.861c3.955,1.351,1.521,4.44-5.784,4.633s-15.523-.579-15.523-4.44a62.063,62.063,0,0,1,1.218-9.773l.3-13.2.608-12.741Z" fill="#cccbca"/>
          <path id="Path_990" data-name="Path 990" d="M10466.966,1256.686c-4.978,0-10.571-.515-12.724-2.613a2.746,2.746,0,0,1-.9-2.016,62.58,62.58,0,0,1,1.221-9.805l.3-13.172.614-12.875,13.628-2.317.057.093c.088.145,8.743,14.691.049,34a12.66,12.66,0,0,0,5.649,3.731c1.892.646,2.053,1.544,1.979,2.022-.2,1.314-2.73,2.79-7.812,2.925C10468.365,1256.676,10467.671,1256.686,10466.966,1256.686Zm-11.174-40.207-.6,12.612-.3,13.2a62.936,62.936,0,0,0-1.218,9.769,2.44,2.44,0,0,0,.8,1.786c2.5,2.438,10.2,2.609,14.559,2.493,4.678-.123,7.314-1.427,7.5-2.651.1-.644-.545-1.252-1.766-1.669a12.5,12.5,0,0,1-5.861-3.918l-.056-.076.039-.085c8.321-18.383.789-32.418.063-33.694Z"/>
        </g>
        <g id="Group_1006" data-name="Group 1006">
          <g id="Group_1005" data-name="Group 1005">
            <path id="Path_991" data-name="Path 991" d="M10468.263,1214.513a15.046,15.046,0,0,1,.8,1.552c.061.13.119.26.178.39.028.066.058.131.087.2.018.041.131.309.077.181s.047.112.058.14q.054.129.105.258.108.273.214.549.473,1.251.847,2.539a37.159,37.159,0,0,1,1.1,15.363,43.006,43.006,0,0,1-3.462,11.873.9.9,0,0,0,0,.9,9.548,9.548,0,0,0,1.77,1.785,14.447,14.447,0,0,0,2.212,1.474c.436.234.886.44,1.343.631.278.117.558.227.842.328l.235.082c.03.01.348.139.194.071a4.615,4.615,0,0,1,.652.359c.185.12-.132-.125.023.017.037.033.075.065.109.1s.064.069.1.1c.061.072.048.054-.039-.055a.962.962,0,0,1,.056.084c.011,0,.046.083.049.085.114.126-.087-.19-.017-.038a.694.694,0,0,1,.029.109c.025.116-.029-.248-.013-.081.006.044-.008.091,0,.134-.036-.26.044-.164.013-.1a.544.544,0,0,0-.038.135c-.014.133.112-.165,0-.011-.041.055-.233.307-.059.109-.066.075-.133.149-.207.218-.042.04-.3.24-.13.117-.121.088-.247.17-.376.246a6.69,6.69,0,0,1-1.837.72,23.219,23.219,0,0,1-6.008.566,50.281,50.281,0,0,1-6.159-.317,16.979,16.979,0,0,1-4.592-1.092,4.933,4.933,0,0,1-1.466-.931,2.907,2.907,0,0,1-.249-.279c.127.165-.015-.028-.03-.055-.035-.062-.071-.124-.108-.184-.022-.04-.043-.085-.062-.127.092.2,0-.01-.014-.049-.02-.067-.1-.471-.074-.25a12.923,12.923,0,0,1,.084-2.487q.11-1.356.3-2.7.289-2.086.69-4.157a22.335,22.335,0,0,0,.2-3.705c.081-3.5.083-7.02.25-10.522l.577-12.081.018-.353-.652.856,11.709-1.99,1.683-.287a.894.894,0,0,0,.621-1.092.909.909,0,0,0-1.093-.62l-11.709,1.99-1.683.287a.9.9,0,0,0-.652.856l-.566,11.846c-.164,3.439-.181,6.887-.26,10.329l-.067,2.947c-.007.242-.023.486-.018.728,0,.021-.013.074,0,.092-.064-.11.062-.332.021-.176-.016.056-.024.116-.035.173a51.252,51.252,0,0,0-1.2,9.662c-.011,3.3,3.881,4.4,6.5,4.876a41.076,41.076,0,0,0,6.243.573,37.4,37.4,0,0,0,6.708-.282,9.475,9.475,0,0,0,4.443-1.654,2.252,2.252,0,0,0,.822-2.838c-.71-1.306-2.369-1.554-3.592-2.134a11.8,11.8,0,0,1-3.632-2.574c-.115-.123-.226-.25-.335-.378-.17-.2.057.081.014.023v.9a43.054,43.054,0,0,0,3.966-20.375,36.768,36.768,0,0,0-2.947-12.42,17.11,17.11,0,0,0-1.019-2.039C10469.2,1212.643,10467.665,1213.534,10468.263,1214.513Z" fill="#070600"/>
          </g>
        </g>
        <g id="Group_1007" data-name="Group 1007" style="mix-blend-mode: multiply;isolation: isolate">
          <path id="Path_992" data-name="Path 992" d="M10454.4,1246.788l15.778-1.555,1.488-4.693-16.944,1.744Z" fill="#cccbca"/>
        </g>
      </g>
      <g id="Group_1032" data-name="Group 1032">
        <g id="Group_1012" data-name="Group 1012">
          <g id="Group_1009" data-name="Group 1009">
            <path id="Path_993" data-name="Path 993" d="M10502.444,1186.635c-.751,28.6-8.186,57.427-48.894,56.082-41.467-1.37-47.775-27.48-48.893-56.082-1.257-32.17,28.9-58.3,48.893-58.3C10475.507,1128.337,10503.29,1154.45,10502.444,1186.635Z" fill="#fff"/>
          </g>
          <g id="Group_1011" data-name="Group 1011">
            <g id="Group_1010" data-name="Group 1010">
              <path id="Path_994" data-name="Path 994" d="M10501.556,1186.635a127.984,127.984,0,0,1-1.208,15.256,71.51,71.51,0,0,1-3.5,14.317,41.924,41.924,0,0,1-6.666,12.026,34.223,34.223,0,0,1-10.9,8.826,44.925,44.925,0,0,1-16,4.472,76.956,76.956,0,0,1-20.5-.731,49.877,49.877,0,0,1-15.776-5.205,35.35,35.35,0,0,1-10.541-8.8,40.537,40.537,0,0,1-6.327-11.51,69.691,69.691,0,0,1-3.342-13.812,138.028,138.028,0,0,1-1.254-14.923,51.458,51.458,0,0,1,2.867-18.726,60.424,60.424,0,0,1,8.636-16.141,65.238,65.238,0,0,1,12.22-12.506,52.1,52.1,0,0,1,13.581-7.795,29.92,29.92,0,0,1,13.086-2.059,38,38,0,0,1,14.374,4.457,56.189,56.189,0,0,1,13.67,10.217,62.469,62.469,0,0,1,10.89,14.788,58.044,58.044,0,0,1,6.084,18.185,54.137,54.137,0,0,1,.605,9.663.889.889,0,0,0,1.776,0,57.093,57.093,0,0,0-3.115-19.959,62.543,62.543,0,0,0-9.062-17.054,63.382,63.382,0,0,0-13-13,49.231,49.231,0,0,0-14.785-7.631,31.461,31.461,0,0,0-14.271-1.155,42.091,42.091,0,0,0-13.96,5.26,63.048,63.048,0,0,0-13.594,10.616,66.014,66.014,0,0,0-11,14.893,56.765,56.765,0,0,0-6.176,18.087,74.729,74.729,0,0,0-.14,17.651,97.943,97.943,0,0,0,2.25,14.888,52.887,52.887,0,0,0,4.947,13.173,37.169,37.169,0,0,0,8.713,10.652,41.651,41.651,0,0,0,13.624,7.367,70.172,70.172,0,0,0,19.417,3.166,62.281,62.281,0,0,0,19.528-2.051,38.613,38.613,0,0,0,13.854-7.146,37.439,37.439,0,0,0,8.945-10.945,55.434,55.434,0,0,0,5.156-13.761,97.512,97.512,0,0,0,2.293-15.407c.192-2.545.312-5.095.38-7.647A.889.889,0,0,0,10501.556,1186.635Z"/>
            </g>
          </g>
        </g>
        <g id="Group_1014" data-name="Group 1014" opacity="0.48">
          <g id="Group_1013" data-name="Group 1013">
            <path id="Path_995" data-name="Path 995" d="M10410.157,1186.635c-1.2-30.787,26.358-56.036,46.258-58.151-.963-.095-1.919-.147-2.864-.147-20,0-50.149,26.128-48.893,58.3,1.117,28.6,7.426,54.712,48.893,56.082q2.808.093,5.406,0C10417.574,1241.307,10411.273,1215.215,10410.157,1186.635Z" fill="#cccbca"/>
          </g>
        </g>
        <g id="Group_1015" data-name="Group 1015">
          <path id="Path_996" data-name="Path 996" d="M10421.835,1189.936s-7.591-39.926,26.592-40.463c0,0,39.353-5.381,35.426,39.189l-3.39,21.124-44.563-7.7-12.887-8.769Z" fill="#fed214"/>
        </g>
        <g id="Group_1016" data-name="Group 1016" opacity="0.46" style="mix-blend-mode: multiply;isolation: isolate">
          <path id="Path_997" data-name="Path 997" d="M10440.435,1202.09l-12.886-8.769-1.178-3.385s-7.591-39.926,26.592-40.463c0,0,.593-.081,1.62-.14a35.84,35.84,0,0,0-6.156.14c-34.183.537-26.592,40.463-26.592,40.463l1.178,3.385,12.887,8.769,44.563,7.7.123-.762Z" fill="#fcd259"/>
        </g>
        <g id="Group_1018" data-name="Group 1018">
          <g id="Group_1017" data-name="Group 1017">
            <path id="Path_998" data-name="Path 998" d="M10422.692,1189.7c-.028-.147-.053-.294-.076-.441-.028-.173-.055-.345-.08-.518-.017-.114-.032-.227-.048-.341-.021-.139-.024-.2,0,.034-.008-.067-.019-.133-.026-.2-.19-1.475-.316-2.959-.39-4.444a56.283,56.283,0,0,1,.032-6.262q.053-.883.139-1.765.042-.442.093-.885c.019-.154.037-.308.057-.462.008-.066.017-.133.024-.2l.019-.133c-.009.062-.021.149-.006.037.17-1.233.388-2.46.664-3.674a35.9,35.9,0,0,1,1.057-3.722c.209-.607.438-1.2.682-1.8a.529.529,0,0,1,.035-.084c.029-.066.057-.132.085-.2.072-.164.145-.328.22-.491q.2-.44.419-.874a25.571,25.571,0,0,1,2.048-3.411c.093-.129.186-.257.28-.384l.132-.176a1.331,1.331,0,0,1,.086-.11c.206-.26.415-.518.632-.77q.668-.778,1.405-1.493.753-.731,1.574-1.384c.06-.049.121-.1.182-.144-.128.1.058-.044.1-.074.146-.11.293-.218.44-.324q.435-.312.884-.6.94-.607,1.938-1.119c.337-.173.677-.338,1.022-.495.441-.2.546-.244.979-.415a30.911,30.911,0,0,1,10.444-2,8.876,8.876,0,0,0,.923-.048c.069-.009-.311.037-.229.031.016,0,.03,0,.047-.006l.217-.025q.445-.048.891-.079c1.116-.081,2.236-.1,3.355-.088q1.144.018,2.289.1c.426.029.851.066,1.275.108q.34.034.677.074c.106.012.214.025.32.039.07.009.4.052.255.032s.021,0,.058.009l.177.024.354.053q.362.055.722.117.715.123,1.425.272c1.01.214,2.013.469,3,.769,1.032.313,2.044.68,3.041,1.088.194.079-.105-.046.04.017l.167.072c.131.056.261.114.391.173q.394.177.78.365c.5.246,1,.506,1.493.781a26.9,26.9,0,0,1,2.96,1.927l.157.119.1.08s-.128-.1-.05-.038q.183.142.363.288.349.283.689.58.7.614,1.364,1.278.675.682,1.3,1.416.312.367.611.747c.038.049.166.216.06.078l.132.173c.11.146.219.294.325.442a26.989,26.989,0,0,1,2.159,3.556q.246.486.474.979c.074.162.147.323.219.486.039.088.077.177.115.265s0-.005-.009-.02c.027.064.054.128.08.192q.442,1.072.8,2.173a37.015,37.015,0,0,1,1.251,4.966,52.95,52.95,0,0,1,.631,12.119c-.03.581-.068,1.163-.113,1.743-.011.154-.024.307-.036.461-.006.074-.03.393,0,.162l0,.03c-.022.18-.059.36-.087.539l-.434,2.7-1.429,8.908-1.239,7.722-.2,1.226,1.092-.62-2.09-.361-5.507-.951-7.662-1.323-8.685-1.5-8.414-1.453-7.016-1.211-4.345-.751a3.4,3.4,0,0,0-.813-.14c-.052.006.295.18.075.012s-.439-.3-.656-.446l-6.194-4.215-5.618-3.824-.312-.213.408.531-1.178-3.385a.912.912,0,0,0-1.094-.621.9.9,0,0,0-.62,1.093c.377,1.081.743,2.166,1.13,3.243a1.488,1.488,0,0,0,.594.765c.251.174.5.344.758.516l6.822,4.643,3.423,2.33c.566.385,1.121.819,1.711,1.165a1.9,1.9,0,0,0,.683.188l1.576.272,5.858,1.012,8.271,1.428,9.281,1.6,8.749,1.511,6.812,1.176c1.143.2,2.285.4,3.43.592l.15.026a.9.9,0,0,0,1.094-.62l.76-4.74,1.494-9.308,1.07-6.678a33.495,33.495,0,0,0,.311-3.869,59.648,59.648,0,0,0-.058-6.487,41.833,41.833,0,0,0-2.044-10.811,29.381,29.381,0,0,0-4.067-7.918,26.823,26.823,0,0,0-5.6-5.622,28.841,28.841,0,0,0-6.2-3.467,34.074,34.074,0,0,0-6.121-1.867,42.023,42.023,0,0,0-5.673-.773,41.365,41.365,0,0,0-4.24-.079c-.766.026-1.531.07-2.291.155-.066.007-.131.014-.2.023-.088.011-.187.034-.268.035.258-.005-.072-.025-.168-.023-.265.007-.528.016-.793.027a36.994,36.994,0,0,0-5.9.717,26.048,26.048,0,0,0-9.078,3.669,23.489,23.489,0,0,0-6.171,6,28.429,28.429,0,0,0-3.646,7.251,39.026,39.026,0,0,0-1.73,7.462,53.67,53.67,0,0,0-.483,7.147c0,1.838.085,3.678.256,5.508.1,1.132.24,2.262.423,3.384.022.14.046.279.071.418a.9.9,0,0,0,1.093.62A.908.908,0,0,0,10422.692,1189.7Z"/>
          </g>
        </g>
        <g id="Group_1019" data-name="Group 1019">
          <rect id="Rectangle_324" data-name="Rectangle 324" width="12.17" height="4.474" rx="2.016" transform="translate(10441.506 1168.13)" fill="#dc9512"/>
        </g>
        <g id="Group_1021" data-name="Group 1021">
          <g id="Group_1020" data-name="Group 1020">
            <path id="Path_999" data-name="Path 999" d="M10451.661,1171.717h-7.271a2.619,2.619,0,0,1-1.54-.214,1.5,1.5,0,0,1,.26-2.409,4.406,4.406,0,0,1,1.521-.076h5.887c.546,0,1.348-.128,1.811.215a1.418,1.418,0,0,1-.668,2.484c-1.142.034-1.146,1.81,0,1.775a2.976,2.976,0,0,0,2.446-1.34,3.483,3.483,0,0,0,.452-2.129,2.956,2.956,0,0,0-3-2.781c-1.976-.015-3.952,0-5.929,0-.692,0-1.387-.014-2.079,0a2.966,2.966,0,0,0-2.935,3.044,3.186,3.186,0,0,0,.811,2.315,2.967,2.967,0,0,0,2.113.891c.67.016,1.342,0,2.012,0h6.107A.888.888,0,0,0,10451.661,1171.717Z" fill="#070600"/>
          </g>
        </g>
        <g id="Group_1022" data-name="Group 1022">
          <circle id="Ellipse_173" data-name="Ellipse 173" cx="2.506" cy="2.506" r="2.506" transform="translate(10433.968 1164.739)" fill="#241718"/>
        </g>
        <g id="Group_1026" data-name="Group 1026">
          <g id="Group_1023" data-name="Group 1023">
            <path id="Path_1000" data-name="Path 1000" d="M10493.645,1199.156l-8.8-11.4-5.278,10.381-9.386-10.381-6.451,10.177-8.017-10.177-7.624,11.4-7.43-11.4-8.6,9.567-5.475-8.552-8.6,10.384-13.218-10.134c1.324,26.328,7.834,49.973,43.246,53.328l16.946-.142c29.215-3.828,36.148-27.388,37.339-51.779Z" fill="#cccbca"/>
          </g>
          <g id="Group_1025" data-name="Group 1025">
            <g id="Group_1024" data-name="Group 1024">
              <path id="Path_1001" data-name="Path 1001" d="M10494.341,1198.749l-7.7-9.978-1.1-1.421a.816.816,0,0,0-1.391,0l-4.613,9.071-.666,1.31,1.265-.163-8.222-9.1-1.162-1.285a.814.814,0,0,0-1.265.163l-5.65,8.912-.8,1.266,1.265-.163-7.022-8.917-.993-1.261a.813.813,0,0,0-1.265.163l-6.678,9.982-.947,1.417h1.391l-6.516-10-.913-1.4a.815.815,0,0,0-1.266-.163l-7.517,8.36-1.086,1.207,1.265.163-4.779-7.466-.694-1.086a.814.814,0,0,0-1.266-.163l-7.525,9.085-1.077,1.3.976-.126-4.445-3.409-7.136-5.471-1.636-1.254a.81.81,0,0,0-1.212.7,120.315,120.315,0,0,0,1.9,16.972,57.493,57.493,0,0,0,4.978,15.106,37.458,37.458,0,0,0,9.523,12.01,42.841,42.841,0,0,0,15.7,7.909,66.472,66.472,0,0,0,10.555,1.993,33.908,33.908,0,0,0,4.1.121l12.905-.109c.431,0,.866.012,1.3-.011a29.346,29.346,0,0,0,4.431-.74,44.05,44.05,0,0,0,9.447-3.114,35.972,35.972,0,0,0,13.437-10.838,47.243,47.243,0,0,0,7.444-15.308,88.741,88.741,0,0,0,3.134-18.041q.186-2.268.294-4.543a.814.814,0,0,0-1.375-.57l-7.56,7.626-1.092,1.1a.806.806,0,0,0,1.139,1.139l7.561-7.625,1.092-1.1-1.375-.569a103.5,103.5,0,0,1-2.266,17.92,52.91,52.91,0,0,1-6.071,15.754,34.778,34.778,0,0,1-11.405,11.638,37.594,37.594,0,0,1-8.273,3.775,46.848,46.848,0,0,1-4.9,1.276,23.677,23.677,0,0,1-3.7.611c-1.375.055-2.758.023-4.134.035l-6.983.058-5.2.044a15.963,15.963,0,0,1-1.936-.139q-2.684-.3-5.339-.81a46.612,46.612,0,0,1-16.873-6.49,34.971,34.971,0,0,1-10.433-10.719,48.685,48.685,0,0,1-5.716-14.008,95.857,95.857,0,0,1-2.43-16.19q-.155-2.079-.258-4.162l-1.212.7,4.445,3.409,7.137,5.471,1.635,1.254a.8.8,0,0,0,.977-.126l7.526-9.085,1.076-1.3-1.266-.163,4.779,7.467.7,1.085a.813.813,0,0,0,1.265.163l7.518-8.36,1.086-1.207-1.266-.163,6.517,10,.913,1.4a.816.816,0,0,0,1.391,0l6.677-9.982.948-1.417-1.265.163,7.022,8.917.993,1.261a.812.812,0,0,0,1.265-.163l5.649-8.912.8-1.266-1.265.163,8.222,9.1,1.162,1.285a.81.81,0,0,0,1.265-.163l4.613-9.071.666-1.31h-1.391l7.7,9.978,1.1,1.421a.831.831,0,0,0,1.1.289A.811.811,0,0,0,10494.341,1198.749Z"/>
            </g>
          </g>
        </g>
        <g id="Group_1027" data-name="Group 1027">
          <circle id="Ellipse_174" data-name="Ellipse 174" cx="2.506" cy="2.506" r="2.506" transform="translate(10456.201 1164.739)" fill="#241718"/>
        </g>
        <g id="Group_1029" data-name="Group 1029">
          <g id="Group_1028" data-name="Group 1028">
            <path id="Path_1002" data-name="Path 1002" d="M10501.556,1186.635a127.984,127.984,0,0,1-1.208,15.256,71.51,71.51,0,0,1-3.5,14.317,41.924,41.924,0,0,1-6.666,12.026,34.223,34.223,0,0,1-10.9,8.826,44.925,44.925,0,0,1-16,4.472,76.956,76.956,0,0,1-20.5-.731,49.877,49.877,0,0,1-15.776-5.205,35.35,35.35,0,0,1-10.541-8.8,40.537,40.537,0,0,1-6.327-11.51,69.691,69.691,0,0,1-3.342-13.812,138.028,138.028,0,0,1-1.254-14.923,51.458,51.458,0,0,1,2.867-18.726,60.424,60.424,0,0,1,8.636-16.141,65.238,65.238,0,0,1,12.22-12.506,52.1,52.1,0,0,1,13.581-7.795,29.92,29.92,0,0,1,13.086-2.059,38,38,0,0,1,14.374,4.457,56.189,56.189,0,0,1,13.67,10.217,62.469,62.469,0,0,1,10.89,14.788,58.044,58.044,0,0,1,6.084,18.185,54.137,54.137,0,0,1,.605,9.663.889.889,0,0,0,1.776,0,57.093,57.093,0,0,0-3.115-19.959,62.543,62.543,0,0,0-9.062-17.054,63.382,63.382,0,0,0-13-13,49.231,49.231,0,0,0-14.785-7.631,31.461,31.461,0,0,0-14.271-1.155,42.091,42.091,0,0,0-13.96,5.26,63.048,63.048,0,0,0-13.594,10.616,66.014,66.014,0,0,0-11,14.893,56.765,56.765,0,0,0-6.176,18.087,74.729,74.729,0,0,0-.14,17.651,97.943,97.943,0,0,0,2.25,14.888,52.887,52.887,0,0,0,4.947,13.173,37.169,37.169,0,0,0,8.713,10.652,41.651,41.651,0,0,0,13.624,7.367,70.172,70.172,0,0,0,19.417,3.166,62.281,62.281,0,0,0,19.528-2.051,38.613,38.613,0,0,0,13.854-7.146,37.439,37.439,0,0,0,8.945-10.945,55.434,55.434,0,0,0,5.156-13.761,97.512,97.512,0,0,0,2.293-15.407c.192-2.545.312-5.095.38-7.647A.889.889,0,0,0,10501.556,1186.635Z"/>
          </g>
        </g>
        <g id="Group_1030" data-name="Group 1030" opacity="0.48">
          <ellipse id="Ellipse_175" data-name="Ellipse 175" cx="2.779" cy="4.519" rx="2.779" ry="4.519" transform="translate(10475.919 1146.745) rotate(-30)" fill="#cccbca"/>
        </g>
        <g id="Group_1031" data-name="Group 1031" opacity="0.48">
          <circle id="Ellipse_176" data-name="Ellipse 176" cx="2.2" cy="2.2" r="2.2" transform="translate(10483.921 1153.554)" fill="#cccbca"/>
        </g>
      </g>
      <g id="Group_1034" data-name="Group 1034" style="mix-blend-mode: multiply;isolation: isolate">
        <g id="Group_1033" data-name="Group 1033">
          <rect id="Rectangle_325" data-name="Rectangle 325" width="89.334" height="6.225" rx="2.468" transform="translate(10409.649 1210.58)" fill="#cccbca"/>
        </g>
      </g>
      <g id="Group_1055" data-name="Group 1055">
        <g id="Group_1038" data-name="Group 1038">
          <g id="Group_1035" data-name="Group 1035">
            <rect id="Rectangle_326" data-name="Rectangle 326" width="96.132" height="6.225" rx="2.56" transform="translate(10405.411 1207.468)" fill="#fff"/>
          </g>
          <g id="Group_1037" data-name="Group 1037">
            <g id="Group_1036" data-name="Group 1036">
              <path id="Path_1003" data-name="Path 1003" d="M10498.983,1212.805h-91.012a1.688,1.688,0,0,1-1.423-.793,2.543,2.543,0,0,1-.25-1.432,2.514,2.514,0,0,1,.25-1.431,1.691,1.691,0,0,1,1.423-.793c.064,0,.128,0,.191,0,.458,0,.916,0,1.374,0h86.761c.895,0,1.791-.021,2.686,0a1.69,1.69,0,0,1,1.423.793,2.442,2.442,0,0,1,.249,1.385,2.844,2.844,0,0,1-.187,1.371,1.692,1.692,0,0,1-1.484.9.889.889,0,0,0,0,1.776,3.5,3.5,0,0,0,3.444-3.317,4.66,4.66,0,0,0-.922-3.585,3.748,3.748,0,0,0-2.907-1.1h-86.466c-1.331,0-2.663,0-3.994,0a3.519,3.519,0,0,0-3.615,3.448,4.483,4.483,0,0,0,1.01,3.543,3.55,3.55,0,0,0,2.481,1.01c1.13.019,2.263,0,3.393,0h87.576A.889.889,0,0,0,10498.983,1212.805Z"/>
            </g>
          </g>
        </g>
        <g id="Group_1039" data-name="Group 1039">
          <rect id="Rectangle_327" data-name="Rectangle 327" width="36.868" height="21.222" rx="3.403" transform="translate(10434.288 1202.033)" fill="#fff"/>
        </g>
        <g id="Group_1041" data-name="Group 1041">
          <g id="Group_1040" data-name="Group 1040">
            <path id="Path_1004" data-name="Path 1004" d="M10467.753,1222.367h-21.088c-2.937,0-5.873.006-8.81,0a2.634,2.634,0,0,1-1.9-.7,2.756,2.756,0,0,1-.778-2.107v-11.842c0-1.321-.285-3.043.737-4.064.84-.84,1.917-.737,2.993-.737h28.277c.19,0,.38,0,.569,0a2.542,2.542,0,0,1,2.515,2.516c.021,1.249,0,2.5,0,3.75,0,3.554.056,7.112,0,10.665a2.541,2.541,0,0,1-2.515,2.515.889.889,0,0,0,0,1.776,4.354,4.354,0,0,0,4.121-3.093,6.668,6.668,0,0,0,.17-1.918v-12.406c0-.427.007-.856,0-1.283a4.356,4.356,0,0,0-2.757-4.01,8.492,8.492,0,0,0-3.131-.288h-19.244c-3.028,0-6.057-.009-9.085,0a4.366,4.366,0,0,0-4.427,4.392c-.009,1.613,0,3.225,0,4.838v6.953c0,1.572-.232,3.4.646,4.789a4.373,4.373,0,0,0,3.672,2.026c.274,0,.547,0,.821,0h29.214A.889.889,0,0,0,10467.753,1222.367Z"/>
          </g>
        </g>
        <g id="Group_1048" data-name="Group 1048">
          <g id="Group_1042" data-name="Group 1042">
            <circle id="Ellipse_177" data-name="Ellipse 177" cx="5.085" cy="5.085" r="5.085" transform="translate(10450.247 1206.493)" fill="#a21717"/>
          </g>
          <g id="Group_1043" data-name="Group 1043">
            <circle id="Ellipse_178" data-name="Ellipse 178" cx="5.085" cy="5.085" r="5.085" transform="translate(10448.104 1205.447)" fill="#f92224"/>
          </g>
          <g id="Group_1045" data-name="Group 1045">
            <g id="Group_1044" data-name="Group 1044">
              <path id="Path_1005" data-name="Path 1005" d="M10457.895,1210.531a4.706,4.706,0,1,1-3.841-4.628,4.754,4.754,0,0,1,3.841,4.628.379.379,0,0,0,.757,0,5.463,5.463,0,1,0-4.4,5.357,5.537,5.537,0,0,0,4.4-5.357A.379.379,0,0,0,10457.895,1210.531Z" fill="#020202"/>
            </g>
          </g>
          <g id="Group_1047" data-name="Group 1047">
            <g id="Group_1046" data-name="Group 1046">
              <path id="Path_1006" data-name="Path 1006" d="M10450.056,1215l3.1,1.513a9.265,9.265,0,0,0,1.066.514,3.615,3.615,0,0,0,.925.132,5.1,5.1,0,0,0,4.165-1.761,5.317,5.317,0,0,0,1.151-5.344c-.846-2.1-2.847-3.092-4.665-4.193a4.6,4.6,0,0,0-1.791-.733,5.261,5.261,0,0,0-3.726.672,5.649,5.649,0,0,0-1.435,8.026,6.5,6.5,0,0,0,1.207,1.174c.386.3.763-.36.381-.652a4.867,4.867,0,0,1-.243-7.535,4.312,4.312,0,0,1,3.379-.989,5.23,5.23,0,0,1,1,.211c.06.019.122.037.18.061-.2-.082.15.105.215.145,1.5.912,3.327,1.739,4.343,3.247a4.145,4.145,0,0,1,.067,4.494,4.489,4.489,0,0,1-3.79,2.427,4.943,4.943,0,0,1-1.133-.1c-.1-.02.1.047.038.02s-.1-.05-.153-.075l-.7-.343-3.2-1.562C10450,1214.136,10449.619,1214.787,10450.056,1215Z" fill="#020202"/>
            </g>
          </g>
        </g>
        <g id="Group_1049" data-name="Group 1049">
          <path id="Path_1007" data-name="Path 1007" d="M10444.025,1217.309h-3.795l-.969-1.109,3.8-9.331.968,1.109Z" fill="#fed214"/>
        </g>
        <g id="Group_1051" data-name="Group 1051">
          <g id="Group_1050" data-name="Group 1050">
            <path id="Path_1008" data-name="Path 1008" d="M10444.026,1216.932h-3.8l.267.11-.968-1.108.1.367,3.316-8.153.479-1.178-.631.167.969,1.109-.11-.267v9.33a.378.378,0,0,0,.755,0v-9.151a.7.7,0,0,0-.178-.522c-.3-.348-.6-.689-.9-1.033a.382.382,0,0,0-.631.167l-3.316,8.153-.479,1.177a.374.374,0,0,0,.1.368,11.239,11.239,0,0,0,.951,1.088c.25.221.722.131,1.031.131h3.049A.378.378,0,0,0,10444.026,1216.932Z" fill="#020202"/>
          </g>
        </g>
        <g id="Group_1052" data-name="Group 1052">
          <rect id="Rectangle_328" data-name="Rectangle 328" width="3.795" height="9.331" transform="translate(10439.262 1206.87)" fill="#feff00"/>
        </g>
        <g id="Group_1054" data-name="Group 1054">
          <g id="Group_1053" data-name="Group 1053">
            <path id="Path_1009" data-name="Path 1009" d="M10443.057,1215.823h-3.795l.377.378v-9.331l-.377.378h3.795l-.377-.378v9.331a.378.378,0,0,0,.755,0v-9.331a.384.384,0,0,0-.378-.378h-3.795a.384.384,0,0,0-.378.378v9.331a.383.383,0,0,0,.378.377h3.795A.378.378,0,0,0,10443.057,1215.823Z" fill="#020202"/>
          </g>
        </g>
      </g>
      <g id="Group_1057" data-name="Group 1057">
        <g id="Group_1056" data-name="Group 1056">
          <path id="Path_1010" data-name="Path 1010" d="M10502.746,1191.2a17.406,17.406,0,0,0,1.844-1.452,31.337,31.337,0,0,0,3.91-4.119,36.991,36.991,0,0,0,4.494-7.183,40.07,40.07,0,0,0,3.274-10.386,49.1,49.1,0,0,0,.338-13.749c-.075-.671-.163-1.341-.258-2.01l-.856,1.124,12.992-.689,1.821-.1-.887-.887c.064.507.113,1.017.16,1.526.126,1.373.217,2.749.283,4.127q.142,3.04.112,6.088-.037,3.727-.352,7.447-.086,1-.2,1.994c-.037.332-.075.662-.114.993-.021.166-.041.333-.062.5-.011.083-.022.167-.033.25l-.014.107c-.019.136.03-.218,0,.015q-.28,2.048-.667,4.079a57.942,57.942,0,0,1-2.176,8.178q-.35,1-.744,1.976-.091.222-.183.444c-.085.2.022-.052-.04.094-.037.09-.076.18-.115.27-.138.315-.277.629-.422.94a36.073,36.073,0,0,1-1.956,3.668q-.539.879-1.132,1.722c-.193.274-.392.546-.595.813-.038.051-.163.214-.058.078-.051.066-.1.132-.155.2-.111.141-.223.281-.337.419a26.1,26.1,0,0,1-2.828,2.953q-.376.335-.767.655c-.131.107-.264.212-.4.317a.382.382,0,0,1-.049.038l-.232.175q-.833.622-1.723,1.171t-1.854,1.031q-.476.237-.96.453l-.246.107a.967.967,0,0,1-.106.045q-.268.111-.538.215a26.068,26.068,0,0,1-4.417,1.263c-.875.17-1.5.26-2.283.343q-1.267.133-2.543.167c-.9.025-1.8.013-2.7-.026l.855,1.124,1.117-5.74,1.789-9.2.409-2.1a.911.911,0,0,0-.621-1.092.9.9,0,0,0-1.092.62l-1.116,5.74-1.79,9.2-.408,2.1a.9.9,0,0,0,.856,1.124,32.2,32.2,0,0,0,10.276-1.094,24.806,24.806,0,0,0,7.93-3.874,27.529,27.529,0,0,0,5.966-6.122,36.783,36.783,0,0,0,4.047-7.46,52.154,52.154,0,0,0,2.554-8.142,74.959,74.959,0,0,0,1.416-8.451c.291-2.571.464-5.155.539-7.741q.1-3.3-.014-6.6-.081-2.383-.271-4.763c-.062-.755-.129-1.511-.221-2.262l-.012-.1a.905.905,0,0,0-.889-.888l-12.991.689-1.822.1a.907.907,0,0,0-.856,1.124,48.731,48.731,0,0,1,.118,13.553,41.215,41.215,0,0,1-1.183,5.59q-.365,1.273-.815,2.52c-.284.785-.578,1.52-.875,2.194a36.334,36.334,0,0,1-4.288,7.3l-.128.167c-.029.038.076-.1-.031.039q-.136.174-.273.347-.267.332-.543.659-.51.6-1.048,1.182c-.587.632-1.2,1.241-1.839,1.821-.442.4-.9.782-1.365,1.153-.149.119.19-.143.045-.035l-.122.092-.182.135c-.075.055-.152.106-.228.16l-.03.02C10500.9,1190.288,10501.787,1191.827,10502.746,1191.2Z"/>
        </g>
      </g>
      <g id="Group_1061" data-name="Group 1061">
        <g id="Group_1058" data-name="Group 1058">
          <path id="Path_1011" data-name="Path 1011" d="M10502.3,1190.429s17.011-11.183,13.2-37.9l14.813-.785s7.374,57.483-31.322,55.72Z" fill="#fff"/>
        </g>
        <g id="Group_1060" data-name="Group 1060">
          <g id="Group_1059" data-name="Group 1059">
            <path id="Path_1012" data-name="Path 1012" d="M10502.746,1191.2a17.406,17.406,0,0,0,1.844-1.452,31.337,31.337,0,0,0,3.91-4.119,36.991,36.991,0,0,0,4.494-7.183,40.07,40.07,0,0,0,3.274-10.386,49.1,49.1,0,0,0,.338-13.749c-.075-.671-.163-1.341-.258-2.01l-.856,1.124,12.992-.689,1.821-.1-.887-.887c.064.507.113,1.017.16,1.526.126,1.373.217,2.749.283,4.127q.142,3.04.112,6.088-.037,3.727-.352,7.447-.086,1-.2,1.994c-.037.332-.075.662-.114.993-.021.166-.041.333-.062.5-.011.083-.022.167-.033.25l-.014.107c-.019.136.03-.218,0,.015q-.28,2.048-.667,4.079a57.942,57.942,0,0,1-2.176,8.178q-.35,1-.744,1.976-.091.222-.183.444c-.085.2.022-.052-.04.094-.037.09-.076.18-.115.27-.138.315-.277.629-.422.94a36.073,36.073,0,0,1-1.956,3.668q-.539.879-1.132,1.722c-.193.274-.392.546-.595.813-.038.051-.163.214-.058.078-.051.066-.1.132-.155.2-.111.141-.223.281-.337.419a26.1,26.1,0,0,1-2.828,2.953q-.376.335-.767.655c-.131.107-.264.212-.4.317a.382.382,0,0,1-.049.038l-.232.175q-.833.622-1.723,1.171t-1.854,1.031q-.476.237-.96.453l-.246.107a.967.967,0,0,1-.106.045q-.268.111-.538.215a26.068,26.068,0,0,1-4.417,1.263c-.875.17-1.5.26-2.283.343q-1.267.133-2.543.167c-.9.025-1.8.013-2.7-.026l.855,1.124,1.117-5.74,1.789-9.2.409-2.1a.911.911,0,0,0-.621-1.092.9.9,0,0,0-1.092.62l-1.116,5.74-1.79,9.2-.408,2.1a.9.9,0,0,0,.856,1.124,32.2,32.2,0,0,0,10.276-1.094,24.806,24.806,0,0,0,7.93-3.874,27.529,27.529,0,0,0,5.966-6.122,36.783,36.783,0,0,0,4.047-7.46,52.154,52.154,0,0,0,2.554-8.142,74.959,74.959,0,0,0,1.416-8.451c.291-2.571.464-5.155.539-7.741q.1-3.3-.014-6.6-.081-2.383-.271-4.763c-.062-.755-.129-1.511-.221-2.262l-.012-.1a.905.905,0,0,0-.889-.888l-12.991.689-1.822.1a.907.907,0,0,0-.856,1.124,48.731,48.731,0,0,1,.118,13.553,41.215,41.215,0,0,1-1.183,5.59q-.365,1.273-.815,2.52c-.284.785-.578,1.52-.875,2.194a36.334,36.334,0,0,1-4.288,7.3l-.128.167c-.029.038.076-.1-.031.039q-.136.174-.273.347-.267.332-.543.659-.51.6-1.048,1.182c-.587.632-1.2,1.241-1.839,1.821-.442.4-.9.782-1.365,1.153-.149.119.19-.143.045-.035l-.122.092-.182.135c-.075.055-.152.106-.228.16l-.03.02C10500.9,1190.288,10501.787,1191.827,10502.746,1191.2Z"/>
          </g>
        </g>
      </g>
      <g id="Group_1063" data-name="Group 1063" opacity="0.48">
        <g id="Group_1062" data-name="Group 1062">
          <path id="Path_1013" data-name="Path 1013" d="M10529.732,1152.61l-3.362.178c.82,9.123,3.043,52.119-27.662,54l-.3,1.54C10537.105,1210.093,10529.732,1152.61,10529.732,1152.61Z" fill="#cccbca"/>
        </g>
      </g>
      <g id="Group_1067" data-name="Group 1067">
        <g id="Group_1064" data-name="Group 1064">
          <line id="Line_29" data-name="Line 29" x2="7.404" y2="16.154" transform="translate(10506.008 1188.529)" fill="#fff"/>
        </g>
        <g id="Group_1066" data-name="Group 1066">
          <g id="Group_1065" data-name="Group 1065">
            <path id="Path_1014" data-name="Path 1014" d="M10505.241,1188.977l2.5,5.464,3.988,8.7.91,1.99a.9.9,0,0,0,1.216.318.91.91,0,0,0,.318-1.215l-2.5-5.463-3.988-8.7-.911-1.99a.9.9,0,0,0-1.216-.318.908.908,0,0,0-.317,1.214Z"/>
          </g>
        </g>
      </g>
      <g id="Group_1071" data-name="Group 1071">
        <g id="Group_1068" data-name="Group 1068">
          <line id="Line_30" data-name="Line 30" x2="14.646" y2="10.65" transform="translate(10511.388 1179.653)" fill="#fff"/>
        </g>
        <g id="Group_1070" data-name="Group 1070">
          <g id="Group_1069" data-name="Group 1069">
            <path id="Path_1015" data-name="Path 1015" d="M10510.94,1180.42l4.956,3.6,7.865,5.72,1.823,1.326a.894.894,0,0,0,1.215-.319.906.906,0,0,0-.317-1.214l-4.956-3.6-7.866-5.719-1.824-1.326a.893.893,0,0,0-1.215.318.909.909,0,0,0,.319,1.215Z"/>
          </g>
        </g>
      </g>
      <g id="Group_1073" data-name="Group 1073">
        <g id="Group_1072" data-name="Group 1072">
          <path id="Path_1016" data-name="Path 1016" d="M10502.746,1191.2a17.406,17.406,0,0,0,1.844-1.452,31.337,31.337,0,0,0,3.91-4.119,36.991,36.991,0,0,0,4.494-7.183,40.07,40.07,0,0,0,3.274-10.386,49.1,49.1,0,0,0,.338-13.749c-.075-.671-.163-1.341-.258-2.01l-.856,1.124,12.992-.689,1.821-.1-.887-.887c.064.507.113,1.017.16,1.526.126,1.373.217,2.749.283,4.127q.142,3.04.112,6.088-.037,3.727-.352,7.447-.086,1-.2,1.994c-.037.332-.075.662-.114.993-.021.166-.041.333-.062.5-.011.083-.022.167-.033.25l-.014.107c-.019.136.03-.218,0,.015q-.28,2.048-.667,4.079a57.942,57.942,0,0,1-2.176,8.178q-.35,1-.744,1.976-.091.222-.183.444c-.085.2.022-.052-.04.094-.037.09-.076.18-.115.27-.138.315-.277.629-.422.94a36.073,36.073,0,0,1-1.956,3.668q-.539.879-1.132,1.722c-.193.274-.392.546-.595.813-.038.051-.163.214-.058.078-.051.066-.1.132-.155.2-.111.141-.223.281-.337.419a26.1,26.1,0,0,1-2.828,2.953q-.376.335-.767.655c-.131.107-.264.212-.4.317a.382.382,0,0,1-.049.038l-.232.175q-.833.622-1.723,1.171t-1.854,1.031q-.476.237-.96.453l-.246.107a.967.967,0,0,1-.106.045q-.268.111-.538.215a26.068,26.068,0,0,1-4.417,1.263c-.875.17-1.5.26-2.283.343q-1.267.133-2.543.167c-.9.025-1.8.013-2.7-.026l.855,1.124,1.117-5.74,1.789-9.2.409-2.1a.911.911,0,0,0-.621-1.092.9.9,0,0,0-1.092.62l-1.116,5.74-1.79,9.2-.408,2.1a.9.9,0,0,0,.856,1.124,32.2,32.2,0,0,0,10.276-1.094,24.806,24.806,0,0,0,7.93-3.874,27.529,27.529,0,0,0,5.966-6.122,36.783,36.783,0,0,0,4.047-7.46,52.154,52.154,0,0,0,2.554-8.142,74.959,74.959,0,0,0,1.416-8.451c.291-2.571.464-5.155.539-7.741q.1-3.3-.014-6.6-.081-2.383-.271-4.763c-.062-.755-.129-1.511-.221-2.262l-.012-.1a.905.905,0,0,0-.889-.888l-12.991.689-1.822.1a.907.907,0,0,0-.856,1.124,48.731,48.731,0,0,1,.118,13.553,41.215,41.215,0,0,1-1.183,5.59q-.365,1.273-.815,2.52c-.284.785-.578,1.52-.875,2.194a36.334,36.334,0,0,1-4.288,7.3l-.128.167c-.029.038.076-.1-.031.039q-.136.174-.273.347-.267.332-.543.659-.51.6-1.048,1.182c-.587.632-1.2,1.241-1.839,1.821-.442.4-.9.782-1.365,1.153-.149.119.19-.143.045-.035l-.122.092-.182.135c-.075.055-.152.106-.228.16l-.03.02C10500.9,1190.288,10501.787,1191.827,10502.746,1191.2Z"/>
        </g>
      </g>
      <g id="Group_1077" data-name="Group 1077">
        <g id="Group_1074" data-name="Group 1074">
          <path id="Path_1017" data-name="Path 1017" d="M10507.831,1140.636s-.915,13.693,15.591,12.667c0,0,12.1,1.46,11.986-13.684h-7.233s.565,8.7-5.65,8.589-7.687-2.825-7.46-7.8Z" fill="#fff"/>
        </g>
        <g id="Group_1076" data-name="Group 1076">
          <g id="Group_1075" data-name="Group 1075">
            <path id="Path_1018" data-name="Path 1018" d="M10506.943,1140.636a13.074,13.074,0,0,0,.618,4.534,12.1,12.1,0,0,0,5.885,7.287,16.7,16.7,0,0,0,6.69,1.738c1.287.086,2.569,0,3.854.03a12.152,12.152,0,0,0,6.683-1.752c3.672-2.3,5.21-6.479,5.544-10.631.061-.739.082-1.481.078-2.223a.9.9,0,0,0-.888-.888h-7.233a.9.9,0,0,0-.888.888,12.828,12.828,0,0,1-.078,2.2c-.008.075-.018.15-.027.225-.019.163.029-.17-.009.062-.028.172-.054.343-.086.514-.068.359-.151.715-.253,1.065q-.072.252-.159.5c-.03.083-.06.166-.092.248-.018.047-.036.094-.055.141-.053.13.087-.189-.015.032a7.284,7.284,0,0,1-.521.967c-.049.074-.1.146-.15.218-.095.137-.02.029,0,0-.03.039-.062.079-.1.117a4.965,4.965,0,0,1-.388.415c-.064.062-.132.121-.2.179-.039.033-.079.066-.119.1.011-.009.109-.081.026-.023a4.689,4.689,0,0,1-.5.311,3.519,3.519,0,0,1-1.046.357,2.274,2.274,0,0,1-.5.064c-.3.019-.6.01-.907,0a10.939,10.939,0,0,1-3.153-.516,4.328,4.328,0,0,1-1.829-1.146c-.069-.075-.137-.152-.2-.232.113.139-.084-.122-.109-.16a5.281,5.281,0,0,1-.324-.572c-.018-.036-.033-.072-.05-.107-.062-.132.072.192-.02-.044-.039-.1-.077-.2-.11-.3a7.583,7.583,0,0,1-.365-2.047,17.542,17.542,0,0,1,0-1.77.9.9,0,0,0-.888-.888l-7.233.226c-1.14.036-1.146,1.812,0,1.776l7.233-.226-.888-.888c-.085,1.955.016,4.173,1.179,5.836,1.273,1.823,3.38,2.5,5.5,2.746,2.159.247,4.373.071,5.945-1.6a8.694,8.694,0,0,0,2.045-4.578,14.193,14.193,0,0,0,.216-3.2l-.889.888h7.233l-.889-.888a21.486,21.486,0,0,1-.3,3.958,16.244,16.244,0,0,1-.41,1.734q-.11.372-.24.738c-.042.117-.086.234-.131.351-.023.057-.047.114-.069.171a.477.477,0,0,1-.033.08,11.75,11.75,0,0,1-.644,1.263q-.166.278-.347.546c-.058.087-.118.172-.18.257l-.091.125c-.1.135.038-.046-.025.033a9.763,9.763,0,0,1-.808.905c-.134.132-.271.259-.412.383-.069.06-.139.12-.21.178-.038.032-.253.2-.175.142s-.125.091-.151.11c-.072.051-.144.1-.216.151q-.229.155-.464.3a10.392,10.392,0,0,1-.936.494l-.22.1c-.137.062.166-.062-.062.025-.153.059-.307.119-.463.174q-.431.15-.875.266c-.273.071-.552.133-.831.184-.127.024-.254.044-.381.064-.033.006-.268.039-.089.014s-.063.008-.105.013a12.074,12.074,0,0,1-1.263.08c-.261,0-.522,0-.783-.021-.48-.035-.964.026-1.445.035a17.433,17.433,0,0,1-6.79-1.066c-.221-.087-.226-.088-.5-.217q-.321-.15-.633-.318a11.222,11.222,0,0,1-1.144-.7c-.083-.058-.164-.119-.246-.178-.027-.021-.134-.1,0,0l-.117-.092c-.15-.122-.3-.247-.444-.377a10.651,10.651,0,0,1-.844-.846c-.12-.136-.236-.274-.351-.415-.028-.034-.055-.07-.083-.1.018.022.113.15.019.022-.06-.08-.118-.159-.176-.24-.2-.287-.394-.584-.568-.89s-.324-.593-.466-.9c-.034-.072-.066-.145-.1-.218l-.047-.108c-.048-.11.066.161.021.049-.061-.151-.121-.3-.179-.457a13.414,13.414,0,0,1-.5-1.693q-.088-.394-.153-.793c-.02-.115-.033-.232-.053-.347-.024-.146.028.246,0,.028-.008-.06-.016-.12-.021-.18a16.592,16.592,0,0,1-.078-1.706c0-.027,0-.055,0-.082a.9.9,0,0,0-.888-.888A.9.9,0,0,0,10506.943,1140.636Z"/>
          </g>
        </g>
      </g>
    </g>
  </g>
</svg>
