<svg xmlns="http://www.w3.org/2000/svg" width="67.442" height="56.66" viewBox="0 0 67.442 56.66">
  <g id="Group_604" data-name="Group 604" transform="translate(-1945.032 -6401.208)">
    <path id="Rectangle_187" data-name="Rectangle 187" d="M0,0H7.773a0,0,0,0,1,0,0V6.632a3.886,3.886,0,0,1-3.886,3.886h0A3.886,3.886,0,0,1,0,6.632V0A0,0,0,0,1,0,0Z" transform="translate(1971.616 6446.788)" fill="#03c8a1"/>
    <path id="Rectangle_188" data-name="Rectangle 188" d="M0,0H7.773a0,0,0,0,1,0,0V6.632a3.886,3.886,0,0,1-3.886,3.886h0A3.886,3.886,0,0,1,0,6.632V0A0,0,0,0,1,0,0Z" transform="translate(1982.194 6446.788)" fill="#03c8a1"/>
    <g id="Group_588" data-name="Group 588">
      <path id="Path_650" data-name="Path 650" d="M1975.5,6457.307h0a3.887,3.887,0,0,1-3.886-3.887v-6.632h7.773v6.632A3.887,3.887,0,0,1,1975.5,6457.307Z" fill="#03c8a1"/>
      <g id="Group_587" data-name="Group 587">
        <path id="Path_651" data-name="Path 651" d="M1975.5,6456.745a3.341,3.341,0,0,1-2.808-1.542,3.771,3.771,0,0,1-.517-2.086v-6.329l-.561.561h7.773l-.561-.561v6.161a4.31,4.31,0,0,1-.274,1.8,3.367,3.367,0,0,1-3.052,1.994.562.562,0,0,0,0,1.123,4.511,4.511,0,0,0,3.569-1.8,4.568,4.568,0,0,0,.879-2.791v-6.49a.569.569,0,0,0-.561-.562h-7.773a.57.57,0,0,0-.561.562v4.146c0,1.583-.221,3.358.632,4.773a4.494,4.494,0,0,0,3.815,2.161A.562.562,0,0,0,1975.5,6456.745Z"/>
      </g>
    </g>
    <g id="Group_590" data-name="Group 590">
      <path id="Path_652" data-name="Path 652" d="M1986.08,6457.307h0a3.887,3.887,0,0,1-3.886-3.887v-6.632h7.773v6.632A3.887,3.887,0,0,1,1986.08,6457.307Z" fill="#03c8a1"/>
      <g id="Group_589" data-name="Group 589">
        <path id="Path_653" data-name="Path 653" d="M1986.08,6456.745a3.341,3.341,0,0,1-2.808-1.542,3.771,3.771,0,0,1-.517-2.086v-6.329l-.561.561h7.773l-.562-.561v6.161a4.309,4.309,0,0,1-.273,1.8,3.367,3.367,0,0,1-3.052,1.994.562.562,0,0,0,0,1.123,4.511,4.511,0,0,0,3.569-1.8,4.568,4.568,0,0,0,.879-2.791v-6.49a.569.569,0,0,0-.561-.562h-7.773a.569.569,0,0,0-.561.562v4.146c0,1.583-.221,3.358.632,4.773a4.494,4.494,0,0,0,3.815,2.161A.562.562,0,0,0,1986.08,6456.745Z"/>
      </g>
    </g>
    <g id="Group_592" data-name="Group 592">
      <circle id="Ellipse_114" data-name="Ellipse 114" cx="23.921" cy="23.921" r="23.921" transform="translate(1956.06 6401.768)" fill="#03c8a1"/>
      <g id="Group_591" data-name="Group 591">
        <path id="Path_654" data-name="Path 654" d="M2003.34,6425.689a23.2,23.2,0,1,1-.268-3.579,23.5,23.5,0,0,1,.268,3.579.562.562,0,0,0,1.123,0,24.482,24.482,0,1,0-.3,3.8,25.341,25.341,0,0,0,.3-3.8A.562.562,0,0,0,2003.34,6425.689Z"/>
      </g>
    </g>
    <g id="Group_594" data-name="Group 594">
      <path id="Path_655" data-name="Path 655" d="M1958.214,6415.764s-9.945,1.007-10.458,7.292,17.959,10.519,17.959,10.519a116.61,116.61,0,0,0,36,2.867,12.532,12.532,0,0,0,6.24-2.148c2.238-1.541,4.215-4,2.316-7.439a7.877,7.877,0,0,0-3.041-3.012l-3.326-1.881.217,5.647s4.569,1.861.721,3.016-21.807,3.078-37.2-1.411-13.725-4.747-13.725-4.747-3.573-2.9,2.639-3.631Z" fill="#ffd244"/>
      <g id="Group_593" data-name="Group 593">
        <path id="Path_656" data-name="Path 656" d="M1958.214,6415.2a19.093,19.093,0,0,0-5.888,1.61,9.942,9.942,0,0,0-3.741,2.748,5.838,5.838,0,0,0-1.347,4.359,5.557,5.557,0,0,0,1.764,3.013,16.054,16.054,0,0,0,3.559,2.5,47.433,47.433,0,0,0,8.714,3.5c1.422.439,2.858.816,4.3,1.183s2.878.7,4.333.982c3.685.726,7.41,1.247,11.147,1.61a125.228,125.228,0,0,0,16.1.525c1.519-.049,3.038-.12,4.554-.232a13.472,13.472,0,0,0,4.119-.942c2.117-.865,4.39-2.352,5.331-4.531,1.044-2.415-.043-5.078-1.842-6.822a18.471,18.471,0,0,0-3.929-2.549l-1.207-.682a.567.567,0,0,0-.845.484l.191,4.944.027.7a.589.589,0,0,0,.412.542c-.055-.023-.14-.063-.008,0,.109.049.218.1.325.152a7.4,7.4,0,0,1,.887.507c.066.045.132.091.2.139-.094-.071.093.079.122.1a2.38,2.38,0,0,1,.175.172c.029.031.056.063.083.1-.057-.071-.023-.038.006.017.017.033.038.066.056.1.039.067.026-.058,0,0-.007.015.021.05.017.068.024-.136-.018-.075-.007-.014.019.1.05-.1,0-.013-.009.017-.023.121-.008.035s0,.018-.027.034c.111-.07-.023.021-.055.054-.088.09-.023.036-.145.109a3,3,0,0,1-.364.191,5.422,5.422,0,0,1-.653.221c-.242.068-.487.127-.732.182-.679.15-1.365.268-2.053.373-1.938.3-4.065.492-6.115.62q-4.049.252-8.11.163a77.708,77.708,0,0,1-18.834-2.52c-2.885-.788-5.749-1.675-8.6-2.584-1.485-.474-2.972-.956-4.426-1.518-.2-.077-.4-.158-.6-.239-.1-.04.141.062-.008,0l-.1-.044-.214-.1c-.171-.08-.331-.172-.494-.265-.12-.069.109.123.005,0a.657.657,0,0,1,.108.187c.066.251-.1.63-.353.639l.013,0a.565.565,0,0,0,.247-.939,3.409,3.409,0,0,1-.282-.265c-.089-.093-.17-.191-.253-.29.1.122-.014-.021-.057-.085s-.086-.135-.125-.206-.1-.243-.048-.085c-.027-.077-.051-.152-.074-.23-.01-.034-.013-.069-.022-.1,0-.006,0,.129.005.015a.932.932,0,0,0,0-.12c-.009-.13-.021.064,0,0a1.233,1.233,0,0,0,.03-.12c.02-.107,0,0,0,0,.019-.034.037-.07.055-.1.048-.09.064-.088.029-.048a2.14,2.14,0,0,1,.2-.2c.06-.053-.075.054-.008,0l.058-.041c.063-.041.126-.082.192-.12a7.058,7.058,0,0,1,2.548-.672.59.59,0,0,0,.541-.412l1.453-4.438.208-.634c.225-.688-.858-.983-1.083-.3l-1.453,4.438-.208.634.542-.412a9.258,9.258,0,0,0-2.891.709,1.99,1.99,0,0,0-.559,3.471,3.436,3.436,0,0,0,.414.409l.247-.938a.616.616,0,0,0-.373.912,2.263,2.263,0,0,0,1.08.7c1.161.507,2.365.914,3.566,1.315,2.523.843,5.071,1.612,7.621,2.367a77.688,77.688,0,0,0,10.18,2.363,93.193,93.193,0,0,0,25.576.274c.794-.11,1.587-.236,2.373-.4a8.623,8.623,0,0,0,2.136-.652,1.757,1.757,0,0,0,.982-1.032,1.323,1.323,0,0,0-.248-1.1,4.857,4.857,0,0,0-1.868-1.371c-.171-.082-.345-.159-.52-.231l.412.541-.191-4.943-.027-.7-.845.485,3.028,1.711a7.137,7.137,0,0,1,3.735,4.531c.458,2.108-.952,3.874-2.576,5.026a11.786,11.786,0,0,1-3.487,1.692,18.035,18.035,0,0,1-4.124.571,124.378,124.378,0,0,1-16.345-.15,117.335,117.335,0,0,1-11.837-1.471c-1.95-.347-3.9-.736-5.813-1.234-.912-.237-1.826-.459-2.733-.713a59.38,59.38,0,0,1-7.944-2.774,27.051,27.051,0,0,1-3.982-2.12,11.215,11.215,0,0,1-1.526-1.171,8.578,8.578,0,0,1-.637-.641c-.092-.1-.182-.211-.268-.321-.056-.071.078.106-.008-.012-.018-.024-.036-.048-.053-.072-.043-.06-.086-.121-.126-.182a4.893,4.893,0,0,1-.389-.706c.061.136-.016-.041-.028-.075-.021-.057-.041-.114-.059-.172a3.223,3.223,0,0,1-.1-.386c-.01-.052-.019-.1-.027-.156.027.169,0-.052-.005-.087a3.2,3.2,0,0,1,0-.378,4.413,4.413,0,0,1,.177-1.028,6.148,6.148,0,0,1,2.524-3.295,16.179,16.179,0,0,1,6.872-2.466l.2-.028c-.182.027-.072.01.011,0l.123-.014a.578.578,0,0,0,.561-.562A.565.565,0,0,0,1958.214,6415.2Z" fill="#070301"/>
      </g>
    </g>
    <rect id="Rectangle_189" data-name="Rectangle 189" width="42.406" height="6.936" rx="2.014" transform="translate(1958.223 6407.615)" fill="#fff"/>
    <path id="Rectangle_190" data-name="Rectangle 190" d="M1.972,0H40.435a1.972,1.972,0,0,1,1.972,1.972V4.154a0,0,0,0,1,0,0H0a0,0,0,0,1,0,0V1.972A1.972,1.972,0,0,1,1.972,0Z" transform="translate(1958.223 6407.615)" fill="#fff"/>
    <rect id="Rectangle_191" data-name="Rectangle 191" width="42.406" height="1.146" transform="translate(1958.223 6409.586)" fill="#414eef"/>
    <rect id="Rectangle_192" data-name="Rectangle 192" width="42.406" height="1.146" transform="translate(1958.223 6411.196)" fill="#ec5e72"/>
    <g id="Group_595" data-name="Group 595">
      <path id="Path_657" data-name="Path 657" d="M1998.658,6407.054h-38.343a2.625,2.625,0,0,0-2.229,1.132c-.589.855-.424,2.036-.424,3.02a4.675,4.675,0,0,0,.436,2.762,2.653,2.653,0,0,0,2.226,1.144h36.965a15.333,15.333,0,0,0,1.557-.013,2.613,2.613,0,0,0,1.987-1.252,3.4,3.4,0,0,0,.358-1.828v-2.305a2.581,2.581,0,0,0-2.533-2.66.561.561,0,0,0,0,1.122,1.424,1.424,0,0,1,1.339.965,3.577,3.577,0,0,1,.071,1.075c0,.77.011,1.54,0,2.309a1.472,1.472,0,0,1-1.491,1.464c-.192,0-.385,0-.577,0h-35.774c-.639,0-1.278,0-1.916,0a1.484,1.484,0,0,1-1.5-1.15,5.141,5.141,0,0,1-.03-1.082v-1.2c0-.338-.008-.676,0-1.013a1.416,1.416,0,0,1,.964-1.3,2.376,2.376,0,0,1,.742-.071h38.167A.561.561,0,0,0,1998.658,6407.054Z" fill="#020202"/>
    </g>
    <path id="Path_658" data-name="Path 658" d="M1971.68,6448.813v2.5l7.082.732v-2.437Z" fill="#03c8a1" style="mix-blend-mode: multiply;isolation: isolate"/>
    <path id="Path_659" data-name="Path 659" d="M1982.547,6449.911v1.587l7.419-1.069v-3l-5.282,2.033Z" fill="#03c8a1" style="mix-blend-mode: multiply;isolation: isolate"/>
    <path id="Path_660" data-name="Path 660" d="M1956.832,6431.039l.858,2.037a80.567,80.567,0,0,0,24.5,4.821c14.445.682,18.508-.249,18.508-.249l.366-1.162-11.685.252-23.668-3.163Z" fill="#03c8a1" style="mix-blend-mode: multiply;isolation: isolate"/>
    <circle id="Ellipse_115" data-name="Ellipse 115" cx="2.496" cy="2.496" r="2.496" transform="translate(1982.652 6420.008)" fill="#070600"/>
    <circle id="Ellipse_116" data-name="Ellipse 116" cx="2.496" cy="2.496" r="2.496" transform="translate(1971.701 6420.008)" fill="#070600"/>
    <path id="Path_661" data-name="Path 661" d="M1981.088,6427.068a5.614,5.614,0,0,1,.6,1.535,1.9,1.9,0,0,1-.342,1.565,1.645,1.645,0,0,1-1.9.352,2.238,2.238,0,0,1-1.181-1.613,3.548,3.548,0,0,1,.273-2.028Z" fill="#ec5e72"/>
    <g id="Group_596" data-name="Group 596">
      <path id="Path_662" data-name="Path 662" d="M1976.935,6426.2a3.479,3.479,0,0,0,5.255.216c.5-.522-.293-1.317-.793-.794a2.394,2.394,0,0,1-3.668-.216.564.564,0,0,0-.794,0,.575.575,0,0,0,0,.794Z" fill="#070600"/>
    </g>
    <g id="Group_597" data-name="Group 597">
      <path id="Path_663" data-name="Path 663" d="M1978,6426.73a3.351,3.351,0,0,0,.914,4.131,2.27,2.27,0,0,0,2.017.244,2.057,2.057,0,0,0,1.325-1.665,4.454,4.454,0,0,0-.681-2.655.561.561,0,1,0-.97.566,7.681,7.681,0,0,1,.387.83,3.588,3.588,0,0,1,.133.442c.007.032.014.065.02.1,0,.01.021.136.013.071s0,.038,0,.04c0,.048.006.1.007.144,0,.067,0,.134,0,.2,0,.014-.01.111,0,.022,0,.029-.009.057-.014.085a1.829,1.829,0,0,1-.049.193c-.011.036-.023.072-.037.107.023-.056,0,0-.012.02a1.785,1.785,0,0,1-.1.169c-.053.076.042-.044-.016.018-.017.019-.033.038-.051.055s-.049.046-.074.069c.017-.015.086-.056,0,0-.056.037-.113.069-.172.1-.006,0-.081.037-.024.013s-.035.011-.05.016a1.438,1.438,0,0,1-.169.047l-.075.015c-.084.019.085,0,0,0-.068,0-.135.007-.2,0-.038,0-.183-.022-.079,0-.058-.011-.116-.022-.173-.038a1.708,1.708,0,0,1-.169-.055c.1.039-.071-.041-.1-.057a1.764,1.764,0,0,1-.176-.116c.069.052-.029-.029-.049-.047a1.858,1.858,0,0,1-.148-.151c-.018-.019-.035-.04-.052-.06-.037-.044.029.047-.024-.035-.069-.1-.129-.211-.188-.322-.008-.014-.044-.1-.009-.013l-.029-.075c-.024-.067-.046-.135-.065-.2a1.536,1.536,0,0,1-.068-.417,2.967,2.967,0,0,1,.016-.516c0,.026-.014.077.007-.043.007-.043.015-.086.024-.128.017-.085.037-.17.06-.253a4.637,4.637,0,0,1,.192-.553.563.563,0,0,0-.392-.691.581.581,0,0,0-.691.392Z" fill="#070600"/>
    </g>
    <g id="Group_601" data-name="Group 601">
      <g id="Group_598" data-name="Group 598">
        <path id="Path_664" data-name="Path 664" d="M1957.626,6433.141a4.171,4.171,0,0,1-1.655,2.671,4.563,4.563,0,0,1-3.641.161,10.24,10.24,0,0,1-3.548-2.012,7.541,7.541,0,0,1-2.322-3.04,4.423,4.423,0,0,1,.062-3.429,2.93,2.93,0,0,1,2.436-1.665,2.38,2.38,0,0,1,1.415.318,3.032,3.032,0,0,1,1.023,1.235c.292.553.52,1.137.837,1.677a4.9,4.9,0,0,0,1.3,1.453,4.851,4.851,0,0,0,3.021.949c.079,0,.22.043.1-.038-.145-.1-.155-.076-.107-.044.03.019.068.031.1.048a3.1,3.1,0,0,1,.38.235c.02.014.08.065-.008-.007.048.039.1.08.143.123a2.442,2.442,0,0,1,.209.22,1.825,1.825,0,0,1,.232.435,1.326,1.326,0,0,1,.021.71c-.15.7.932,1.006,1.082.3a2.63,2.63,0,0,0-1.181-2.8,1.551,1.551,0,0,0-.723-.324,7.459,7.459,0,0,1-.934-.014,3.8,3.8,0,0,1-.982-.29,3.69,3.69,0,0,1-1.458-1.168,12.438,12.438,0,0,1-.949-1.806,4.671,4.671,0,0,0-1.213-1.63,3.362,3.362,0,0,0-1.9-.705,4.032,4.032,0,0,0-3.417,1.585,5.17,5.17,0,0,0-.8,4.113,7.459,7.459,0,0,0,2.166,3.738,12.3,12.3,0,0,0,3.9,2.62,6.339,6.339,0,0,0,4.988.2,5.04,5.04,0,0,0,2.5-3.522C1958.874,6432.737,1957.792,6432.437,1957.626,6433.141Z" fill="#070600"/>
      </g>
      <g id="Group_600" data-name="Group 600">
        <path id="Path_665" data-name="Path 665" d="M1958.167,6433.29a4.131,4.131,0,0,1-2.988,3.428,8.029,8.029,0,0,1-6.079-1.8,8.8,8.8,0,0,1-3.151-3.769,4.74,4.74,0,0,1,.592-4.708,3.284,3.284,0,0,1,4.447-.541c.959.827,1.227,2.2,1.957,3.229a4.279,4.279,0,0,0,3.859,1.75A2.184,2.184,0,0,1,1958.167,6433.29Z" fill="#03c8a1"/>
        <g id="Group_599" data-name="Group 599">
          <path id="Path_666" data-name="Path 666" d="M1957.626,6433.141a4.171,4.171,0,0,1-1.655,2.671,4.563,4.563,0,0,1-3.641.161,10.24,10.24,0,0,1-3.548-2.012,7.541,7.541,0,0,1-2.322-3.04,4.423,4.423,0,0,1,.062-3.429,2.93,2.93,0,0,1,2.436-1.665,2.38,2.38,0,0,1,1.415.318,3.032,3.032,0,0,1,1.023,1.235c.292.553.52,1.137.837,1.677a4.9,4.9,0,0,0,1.3,1.453,4.851,4.851,0,0,0,3.021.949c.079,0,.22.043.1-.038-.145-.1-.155-.076-.107-.044.03.019.068.031.1.048a3.1,3.1,0,0,1,.38.235c.02.014.08.065-.008-.007.048.039.1.08.143.123a2.442,2.442,0,0,1,.209.22,1.825,1.825,0,0,1,.232.435,1.326,1.326,0,0,1,.021.71c-.15.7.932,1.006,1.082.3a2.63,2.63,0,0,0-1.181-2.8,1.551,1.551,0,0,0-.723-.324,7.459,7.459,0,0,1-.934-.014,3.8,3.8,0,0,1-.982-.29,3.69,3.69,0,0,1-1.458-1.168,12.438,12.438,0,0,1-.949-1.806,4.671,4.671,0,0,0-1.213-1.63,3.362,3.362,0,0,0-1.9-.705,4.032,4.032,0,0,0-3.417,1.585,5.17,5.17,0,0,0-.8,4.113,7.459,7.459,0,0,0,2.166,3.738,12.3,12.3,0,0,0,3.9,2.62,6.339,6.339,0,0,0,4.988.2,5.04,5.04,0,0,0,2.5-3.522C1958.874,6432.737,1957.792,6432.437,1957.626,6433.141Z"/>
        </g>
      </g>
    </g>
    <g id="Group_603" data-name="Group 603">
      <path id="Path_667" data-name="Path 667" d="M2005.777,6426.429l5.343-7.026a3.885,3.885,0,0,0-.741-5.446h0a3.886,3.886,0,0,0-5.446.74l-2.409,3.168a20.486,20.486,0,0,1,1.715,9.047l-.166.956Z" fill="#03c8a1"/>
      <g id="Group_602" data-name="Group 602">
        <path id="Path_668" data-name="Path 668" d="M2006.262,6426.712l2.081-2.737,2.953-3.882a6.027,6.027,0,0,0,.913-1.531,4.461,4.461,0,0,0-.4-3.86,4.517,4.517,0,0,0-3.37-2.079,4.45,4.45,0,0,0-3.615,1.345,18.577,18.577,0,0,0-1.258,1.613l-1.431,1.881-.091.12a.561.561,0,0,0,0,.567c.025.054.049.11.074.165.011.027.022.054.034.081.026.057-.049-.121,0,.008.039.1.079.191.117.288.225.572.424,1.154.6,1.742a18.841,18.841,0,0,1,.85,5.459c0,.289-.028.578-.03.866,0,.119.015-.054,0,.066-.007.052-.018.1-.027.155l-.128.74a.566.566,0,0,0,.938.546l1.7-1.44a.564.564,0,0,0,0-.793.572.572,0,0,0-.794,0l-1.7,1.439.938.546a12.077,12.077,0,0,0,.215-1.616,17.557,17.557,0,0,0-.2-3.247,21.726,21.726,0,0,0-1.219-4.613c-.124-.323-.252-.646-.4-.959v.567l2.338-3.075.056-.073c.06-.079-.135.152.027-.032a3.84,3.84,0,0,1,.625-.6,3.325,3.325,0,0,1,3.221-.4,3.936,3.936,0,0,1,.756.429c.211.147-.116-.109.076.06.06.052.121.1.179.157a3.664,3.664,0,0,1,.322.339,3.354,3.354,0,0,1,.58,3.134,4.693,4.693,0,0,1-.821,1.389l-2.743,3.606-2.333,3.067a.566.566,0,0,0,.2.768A.575.575,0,0,0,2006.262,6426.712Z"/>
      </g>
    </g>
    <path id="Path_669" data-name="Path 669" d="M2004.1,6416.607s3.451,3.716,2.238,8.418l-1.706,2.366-.735-6.271-1.378-3.255Z" fill="#03c8a1" style="mix-blend-mode: multiply;isolation: isolate"/>
  </g>
</svg>
