<svg xmlns="http://www.w3.org/2000/svg" width="26.294" height="26.295" viewBox="0 0 26.294 26.295">
  <g id="Group_2141" data-name="Group 2141" transform="translate(-5624.965 -213.303)">
    <path id="Path_1747" data-name="Path 1747" d="M5630.792,229.194l-.915,3.416-3.345.071a13.168,13.168,0,0,1-.1-12.277h0l2.979.547,1.305,2.96a7.831,7.831,0,0,0,.073,5.283Zm0,0" fill="#fbbb00"/>
    <path id="Path_1748" data-name="Path 1748" d="M5651.03,223.995a13.139,13.139,0,0,1-4.687,12.708h0l-3.751-.192-.531-3.314a7.834,7.834,0,0,0,3.371-4h-7.03v-5.2Zm0,0" fill="#518ef8"/>
    <path id="Path_1749" data-name="Path 1749" d="M5646.342,236.7h0a13.15,13.15,0,0,1-19.811-4.022l4.26-3.487a7.82,7.82,0,0,0,11.268,4Zm0,0" fill="#28b446"/>
    <path id="Path_1750" data-name="Path 1750" d="M5646.5,216.33l-4.259,3.487a7.817,7.817,0,0,0-11.526,4.094l-4.284-3.507h0a13.149,13.149,0,0,1,20.069-4.074Zm0,0" fill="#f14336"/>
  </g>
</svg>
