<svg xmlns="http://www.w3.org/2000/svg" xmlns:xlink="http://www.w3.org/1999/xlink" width="25.119" height="25.119" viewBox="0 0 25.119 25.119">
  <defs>
    <clipPath id="clip-path">
      <circle id="Ellipse_68" data-name="Ellipse 68" cx="12.559" cy="12.559" r="12.559" transform="translate(3554.107 3395.322)" fill="none"/>
    </clipPath>
  </defs>
  <g id="Group_311" data-name="Group 311" transform="translate(-3554.107 -3395.322)">
    <g id="Group_310" data-name="Group 310" clip-path="url(#clip-path)">
      <circle id="Ellipse_65" data-name="Ellipse 65" cx="12.559" cy="12.559" r="12.559" transform="translate(3554.107 3395.322)" fill="#03c8a1"/>
      <g id="Group_295" data-name="Group 295">
        <g id="Group_292" data-name="Group 292">
          <path id="Path_355" data-name="Path 355" d="M3553.1,3404.644s-5.634,1.152-5.565,4.618,10.888,4.664,10.888,4.664a70.19,70.19,0,0,0,20.771-.61,7.433,7.433,0,0,0,3.448-1.552c1.192-.977,2.182-2.442.9-4.206a4.428,4.428,0,0,0-1.915-1.462l-2.012-.827.451,3.073s2.723.741.586,1.6-12.305,3-21.376,1.478-8.131-1.764-8.131-1.764-2.212-1.369,1.3-2.144Z" fill="#ffd244"/>
        </g>
        <g id="Group_294" data-name="Group 294">
          <g id="Group_293" data-name="Group 293">
            <path id="Path_356" data-name="Path 356" d="M3553.072,3404.338a11.4,11.4,0,0,0-3.277,1.235,5.729,5.729,0,0,0-1.983,1.729,3.112,3.112,0,0,0-.52,2.464,3.031,3.031,0,0,0,1.184,1.54,9.27,9.27,0,0,0,2.182,1.152,28.031,28.031,0,0,0,5.19,1.387c.84.154,1.683.273,2.53.386s1.688.207,2.537.275c2.151.174,4.314.234,6.474.206a75.423,75.423,0,0,0,9.248-.687c.867-.119,1.733-.25,2.594-.4a8.075,8.075,0,0,0,2.3-.764,5.457,5.457,0,0,0,2.79-2.8,3.334,3.334,0,0,0-1.448-3.617,10.678,10.678,0,0,0-2.4-1.156l-.731-.3a.326.326,0,0,0-.455.316l.394,2.691.056.382a.327.327,0,0,0,.268.271c-.033-.009-.084-.025,0,0s.13.041.195.064a4.315,4.315,0,0,1,.537.223l.12.064c-.058-.033.058.038.076.05a1.293,1.293,0,0,1,.11.083c.018.015.036.031.053.048-.037-.036-.015-.02,0,.008s.026.035.038.051c.026.035.011-.033,0,0,0,.009.014.026.014.036.006-.075-.015-.039-.005-.007.016.052.022-.057,0-.007,0,.01-.006.068,0,.02s0,.009-.013.02c.06-.045-.012.013-.028.033-.046.055-.012.021-.077.068a1.858,1.858,0,0,1-.2.127,3.255,3.255,0,0,1-.361.16c-.134.052-.271.1-.408.143-.38.124-.766.23-1.153.329-1.093.278-2.3.515-3.465.708q-2.3.383-4.633.58a46.758,46.758,0,0,1-10.927-.238c-1.7-.257-3.387-.568-5.07-.893-.877-.169-1.756-.343-2.621-.562-.119-.03-.237-.062-.355-.094-.06-.017.084.025,0,0l-.06-.018-.128-.04c-.1-.033-.2-.074-.3-.115-.073-.03.069.061,0,0a.365.365,0,0,1,.072.1c.052.133-.022.351-.165.371l.007,0a.305.305,0,0,0,.088-.528,1.575,1.575,0,0,1-.177-.128c-.056-.045-.109-.094-.162-.143.065.06-.009-.01-.037-.043s-.058-.069-.084-.1-.073-.126-.032-.044c-.02-.04-.038-.08-.056-.121-.008-.017-.011-.037-.018-.055,0,0,.007.071,0,.008a.528.528,0,0,0-.007-.065c-.013-.071-.008.036,0,0,0-.021.008-.046.01-.068,0-.059,0,0,0,0l.026-.06c.022-.053.031-.052.013-.028a1.2,1.2,0,0,1,.1-.122c.031-.032-.04.034,0,0l.03-.026c.034-.026.068-.053.1-.077a4.2,4.2,0,0,1,1.419-.521.34.34,0,0,0,.286-.258l.576-2.514.082-.359c.089-.39-.548-.485-.637-.1l-.576,2.514-.082.359.286-.258a5.527,5.527,0,0,0-1.614.563,1.3,1.3,0,0,0-.634.733,1.228,1.228,0,0,0,.515,1.2,1.955,1.955,0,0,0,.26.2l.088-.527a.334.334,0,0,0-.161.521,1.313,1.313,0,0,0,.658.315c.694.207,1.407.357,2.117.5,1.493.308,3,.575,4.5.833a46.427,46.427,0,0,0,5.964.676,52.844,52.844,0,0,0,5.743-.084,53.448,53.448,0,0,0,8.913-1.313c.448-.108.9-.225,1.336-.36a5.2,5.2,0,0,0,1.185-.486.984.984,0,0,0,.5-.623.7.7,0,0,0-.206-.588,2.784,2.784,0,0,0-1.148-.637c-.1-.034-.206-.066-.311-.094l.267.27-.4-2.69-.056-.383-.455.316,1.832.752a3.977,3.977,0,0,1,2.4,2.251,2.758,2.758,0,0,1-1.185,2.9,6.925,6.925,0,0,1-1.9,1.136,10.892,10.892,0,0,1-2.328.561,75.213,75.213,0,0,1-9.365.907c-2.287.078-4.579.055-6.861-.089-1.136-.071-2.272-.166-3.4-.323-.536-.074-1.072-.14-1.606-.224a35.2,35.2,0,0,1-4.708-1.036,15.8,15.8,0,0,1-2.4-.918,6.374,6.374,0,0,1-.942-.548,4.908,4.908,0,0,1-.4-.312c-.059-.051-.116-.1-.172-.158-.036-.036.051.053,0-.007l-.035-.036c-.028-.03-.056-.061-.083-.092a2.657,2.657,0,0,1-.263-.362c.043.071-.011-.022-.02-.039s-.03-.06-.044-.091a1.877,1.877,0,0,1-.079-.2c-.009-.028-.017-.056-.024-.084.025.092-.005-.028-.008-.047a1.424,1.424,0,0,1-.024-.206,2.3,2.3,0,0,1,.042-.573,3.4,3.4,0,0,1,1.254-1.953,9.612,9.612,0,0,1,3.791-1.764c.037-.009.074-.017.111-.027-.1.026-.041.01.007,0l.069-.015a.325.325,0,0,0,.289-.341A.319.319,0,0,0,3553.072,3404.338Z" fill="#070301"/>
          </g>
        </g>
      </g>
      <g id="Group_296" data-name="Group 296">
        <rect id="Rectangle_116" data-name="Rectangle 116" width="32.425" height="2.805" rx="1.12" transform="translate(3550.8 3399)" fill="#fff"/>
      </g>
      <g id="Group_297" data-name="Group 297">
        <path id="Rectangle_117" data-name="Rectangle 117" d="M1.1,0H31.329a1.1,1.1,0,0,1,1.1,1.1V1.68a0,0,0,0,1,0,0H0a0,0,0,0,1,0,0V1.1A1.1,1.1,0,0,1,1.1,0Z" transform="translate(3550.8 3399)" fill="#fff"/>
      </g>
      <g id="Group_298" data-name="Group 298">
        <rect id="Rectangle_118" data-name="Rectangle 118" width="32.425" height="0.464" transform="translate(3550.8 3399.798)" fill="#414eef"/>
      </g>
      <g id="Group_299" data-name="Group 299">
        <rect id="Rectangle_119" data-name="Rectangle 119" width="32.425" height="0.464" transform="translate(3550.8 3400.448)" fill="#ec5e72"/>
      </g>
      <g id="Group_301" data-name="Group 301">
        <g id="Group_300" data-name="Group 300">
          <path id="Path_357" data-name="Path 357" d="M3581.717,3398.773H3552.4a2.858,2.858,0,0,0-1.7.458c-.45.346-.323.824-.323,1.221,0,.378-.094.79.333,1.117a2.871,2.871,0,0,0,1.7.463h28.264c.392,0,.8.016,1.191,0a2.569,2.569,0,0,0,1.519-.507.861.861,0,0,0,.274-.739v-.932c0-.584-.808-1.064-1.937-1.076-.552,0-.552.449,0,.454a1.258,1.258,0,0,1,1.024.39.788.788,0,0,1,.055.435c0,.311.008.623,0,.934-.009.336-.51.59-1.141.592H3553.86c-.488,0-.977,0-1.465,0-.545,0-1.019-.175-1.143-.465a1.116,1.116,0,0,1-.023-.438v-.483c0-.137-.006-.274,0-.41.012-.236.31-.454.737-.526a3.349,3.349,0,0,1,.568-.029h29.183C3582.269,3399.227,3582.27,3398.773,3581.717,3398.773Z" fill="#020202"/>
        </g>
      </g>
      <g id="Group_309" data-name="Group 309">
        <g id="Group_302" data-name="Group 302">
          <circle id="Ellipse_66" data-name="Ellipse 66" cx="1.009" cy="1.009" r="1.009" transform="translate(3567.337 3405.251)" fill="#070600"/>
        </g>
        <g id="Group_303" data-name="Group 303">
          <circle id="Ellipse_67" data-name="Ellipse 67" cx="1.009" cy="1.009" r="1.009" transform="translate(3562.909 3405.251)" fill="#070600"/>
        </g>
        <g id="Group_304" data-name="Group 304">
          <path id="Path_358" data-name="Path 358" d="M3566.705,3408.106a2.287,2.287,0,0,1,.243.621.767.767,0,0,1-.138.632.665.665,0,0,1-.769.143.907.907,0,0,1-.477-.653,1.436,1.436,0,0,1,.11-.819Z" fill="#ec5e72"/>
        </g>
        <g id="Group_306" data-name="Group 306">
          <g id="Group_305" data-name="Group 305">
            <path id="Path_359" data-name="Path 359" d="M3565.025,3407.756a1.408,1.408,0,0,0,2.125.087c.2-.211-.118-.533-.321-.321a.969.969,0,0,1-1.483-.087.227.227,0,0,0-.321,0,.233.233,0,0,0,0,.321Z" fill="#070600"/>
          </g>
        </g>
        <g id="Group_308" data-name="Group 308">
          <g id="Group_307" data-name="Group 307">
            <path id="Path_360" data-name="Path 360" d="M3565.455,3407.969a1.354,1.354,0,0,0,.37,1.67.913.913,0,0,0,.815.1.832.832,0,0,0,.536-.673,1.8,1.8,0,0,0-.275-1.074.227.227,0,0,0-.392.229,3.364,3.364,0,0,1,.156.336,1.366,1.366,0,0,1,.054.179l.008.039s.008.055,0,.029,0,.015,0,.016c0,.019,0,.038,0,.058s0,.054,0,.081c0,.006-.005.045,0,.009l-.006.034a.608.608,0,0,1-.019.078l-.015.044c.009-.023,0,0-.005.008s-.026.046-.041.068.017-.018-.006.008l-.021.022-.03.027c.007-.006.035-.022,0,0s-.046.028-.069.041c0,0-.033.015-.01,0s-.014.005-.02.007c-.023.007-.046.014-.069.019l-.03.006c-.034.007.035,0,0,0s-.055,0-.082,0-.075-.008-.032,0c-.024,0-.047-.009-.07-.016a.582.582,0,0,1-.069-.022c.041.016-.028-.016-.04-.023a.55.55,0,0,1-.071-.047c.028.021-.012-.011-.02-.019a.71.71,0,0,1-.06-.061l-.021-.024c-.015-.018.012.019-.01-.014s-.052-.086-.076-.131c0,0-.018-.039,0,0l-.012-.03a.836.836,0,0,1-.026-.082.632.632,0,0,1-.028-.169,1.126,1.126,0,0,1,.007-.209c0,.011-.006.031,0-.017l.01-.052c.007-.034.015-.069.024-.1a1.961,1.961,0,0,1,.078-.223.228.228,0,0,0-.159-.279.234.234,0,0,0-.279.158Z" fill="#070600"/>
          </g>
        </g>
      </g>
    </g>
  </g>
</svg>
