<svg xmlns="http://www.w3.org/2000/svg" width="166.185" height="146.249" viewBox="0 0 166.185 146.249">
  <g id="Group_566" data-name="Group 566" transform="translate(-2392.444 -6174.227)">
    <g id="Group_532" data-name="Group 532">
      <path id="Rectangle_176" data-name="Rectangle 176" d="M0,0H20.063a0,0,0,0,1,0,0V17.119A10.032,10.032,0,0,1,10.032,27.151h0A10.032,10.032,0,0,1,0,17.119V0A0,0,0,0,1,0,0Z" transform="translate(2455.499 6291.876)" fill="#03c8a1"/>
    </g>
    <g id="Group_533" data-name="Group 533">
      <path id="Rectangle_177" data-name="Rectangle 177" d="M0,0H20.063a0,0,0,0,1,0,0V17.119A10.032,10.032,0,0,1,10.032,27.151h0A10.032,10.032,0,0,1,0,17.119V0A0,0,0,0,1,0,0Z" transform="translate(2482.802 6291.876)" fill="#03c8a1"/>
    </g>
    <g id="Group_537" data-name="Group 537">
      <g id="Group_534" data-name="Group 534">
        <path id="Path_630" data-name="Path 630" d="M2465.53,6319.027h0A10.031,10.031,0,0,1,2455.5,6309v-17.12h20.063V6309A10.031,10.031,0,0,1,2465.53,6319.027Z" fill="#03c8a1"/>
      </g>
      <g id="Group_536" data-name="Group 536">
        <g id="Group_535" data-name="Group 535">
          <path id="Path_631" data-name="Path 631" d="M2465.53,6317.578a8.619,8.619,0,0,1-7.247-3.981,9.71,9.71,0,0,1-1.335-5.385v-16.336l-1.449,1.449h20.063l-1.449-1.449v15.9a11.15,11.15,0,0,1-.705,4.651,8.694,8.694,0,0,1-7.878,5.147,1.45,1.45,0,0,0,0,2.9,11.639,11.639,0,0,0,9.212-4.644,11.784,11.784,0,0,0,2.269-7.2v-16.752a1.47,1.47,0,0,0-1.449-1.449H2455.5a1.47,1.47,0,0,0-1.449,1.449v10.7c0,4.087-.57,8.667,1.632,12.319a11.6,11.6,0,0,0,9.848,5.578A1.45,1.45,0,0,0,2465.53,6317.578Z"/>
        </g>
      </g>
    </g>
    <g id="Group_541" data-name="Group 541">
      <g id="Group_538" data-name="Group 538">
        <path id="Path_632" data-name="Path 632" d="M2492.834,6319.027h0A10.032,10.032,0,0,1,2482.8,6309v-17.12h20.063V6309A10.031,10.031,0,0,1,2492.834,6319.027Z" fill="#03c8a1"/>
      </g>
      <g id="Group_540" data-name="Group 540">
        <g id="Group_539" data-name="Group 539">
          <path id="Path_633" data-name="Path 633" d="M2492.834,6317.578a8.621,8.621,0,0,1-7.248-3.981,9.718,9.718,0,0,1-1.335-5.385v-16.336l-1.449,1.449h20.063l-1.448-1.449v15.9a11.135,11.135,0,0,1-.706,4.651,8.693,8.693,0,0,1-7.877,5.147,1.45,1.45,0,0,0,0,2.9,11.637,11.637,0,0,0,9.211-4.644,11.784,11.784,0,0,0,2.269-7.2v-16.752a1.47,1.47,0,0,0-1.449-1.449H2482.8a1.47,1.47,0,0,0-1.448,1.449v10.7c0,4.087-.57,8.667,1.631,12.319a11.6,11.6,0,0,0,9.849,5.578A1.45,1.45,0,0,0,2492.834,6317.578Z"/>
        </g>
      </g>
    </g>
    <g id="Group_545" data-name="Group 545">
      <g id="Group_542" data-name="Group 542">
        <circle id="Ellipse_107" data-name="Ellipse 107" cx="61.744" cy="61.744" r="61.744" transform="translate(2415.345 6175.672)" fill="#03c8a1"/>
      </g>
      <g id="Group_544" data-name="Group 544">
        <g id="Group_543" data-name="Group 543">
          <path id="Path_634" data-name="Path 634" d="M2537.385,6237.416a59.946,59.946,0,1,1-.694-9.238,60.657,60.657,0,0,1,.694,9.238,1.45,1.45,0,0,0,2.9,0,63.2,63.2,0,1,0-.767,9.813,65.533,65.533,0,0,0,.767-9.813A1.45,1.45,0,0,0,2537.385,6237.416Z"/>
        </g>
      </g>
    </g>
    <g id="Group_549" data-name="Group 549">
      <g id="Group_546" data-name="Group 546">
        <path id="Path_635" data-name="Path 635" d="M2420.905,6211.8s-25.668,2.6-26.992,18.822,46.355,27.151,46.355,27.151,39.673,11.126,92.917,7.4a32.359,32.359,0,0,0,16.107-5.545c5.776-3.978,10.879-10.329,5.977-19.2a20.321,20.321,0,0,0-7.85-7.776l-8.585-4.852.562,14.576s11.794,4.8,1.86,7.782-56.288,7.947-96.021-3.642-35.429-12.251-35.429-12.251-9.223-7.488,6.812-9.373Z" fill="#ffd244"/>
      </g>
      <g id="Group_548" data-name="Group 548">
        <g id="Group_547" data-name="Group 547">
          <path id="Path_636" data-name="Path 636" d="M2420.905,6210.35a49.22,49.22,0,0,0-15.2,4.155,25.693,25.693,0,0,0-9.657,7.1c-2.451,3.1-4.094,7.255-3.478,11.25.469,3.04,2.4,5.681,4.553,7.778a41.592,41.592,0,0,0,9.188,6.456,122.315,122.315,0,0,0,22.493,9.038c3.671,1.133,7.376,2.106,11.1,3.053s7.431,1.8,11.186,2.536c9.51,1.873,19.127,3.219,28.772,4.155a323.043,323.043,0,0,0,41.567,1.355c3.921-.126,7.843-.311,11.755-.6a34.8,34.8,0,0,0,10.633-2.43c5.463-2.235,11.329-6.072,13.759-11.695,2.7-6.235-.112-13.109-4.756-17.61-2.9-2.816-6.65-4.606-10.139-6.579l-3.117-1.761a1.462,1.462,0,0,0-2.18,1.251l.492,12.761.07,1.815a1.521,1.521,0,0,0,1.064,1.4c-.143-.059-.362-.161-.021-.007.282.127.562.256.839.392a19.276,19.276,0,0,1,2.29,1.308c.171.116.34.235.505.359-.243-.183.241.2.315.27a6.285,6.285,0,0,1,.452.442c.074.08.145.163.214.248-.146-.182-.058-.1.015.044.045.086.1.172.146.256.1.174.065-.149-.006,0-.018.037.053.128.045.174.062-.35-.048-.191-.018-.035.047.247.127-.259,0-.034-.025.045-.061.314-.023.09s0,.046-.069.089c.287-.18-.058.054-.142.139-.227.234-.06.093-.375.283a7.849,7.849,0,0,1-.939.493,13.717,13.717,0,0,1-1.685.568c-.624.177-1.255.329-1.889.47-1.752.389-3.524.693-5.3.963-5,.763-10.494,1.271-15.784,1.6q-10.452.651-20.935.42c-16.36-.346-32.8-2.183-48.615-6.5-7.445-2.034-14.837-4.324-22.19-6.671-3.833-1.223-7.669-2.467-11.423-3.917-.516-.2-1.027-.408-1.539-.616-.26-.1.365.16-.021-.01l-.261-.113q-.278-.122-.551-.249c-.441-.207-.854-.445-1.274-.686-.311-.178.281.319.012,0a1.677,1.677,0,0,1,.277.482c.17.647-.264,1.627-.91,1.649a.228.228,0,0,0,.033-.008,1.456,1.456,0,0,0,.639-2.421,8.272,8.272,0,0,1-.727-.685c-.231-.24-.441-.494-.654-.749.262.314-.036-.054-.147-.22s-.224-.349-.322-.53c-.084-.155-.269-.628-.124-.221-.07-.2-.134-.392-.194-.593-.025-.087-.032-.179-.054-.266,0-.016,0,.332.012.039a2.679,2.679,0,0,0,0-.31c-.024-.337-.054.165-.006,0,.028-.1.059-.211.078-.311.052-.275-.01,0-.009,0,.05-.087.1-.18.144-.269.123-.232.163-.227.072-.123a5.53,5.53,0,0,1,.52-.517c.155-.136-.194.14-.02.012.049-.036.1-.073.148-.106.165-.107.327-.213.5-.31a18.182,18.182,0,0,1,6.575-1.734,1.529,1.529,0,0,0,1.4-1.064l3.752-11.456.535-1.635c.582-1.776-2.215-2.537-2.794-.77l-3.752,11.456-.535,1.635,1.4-1.064a23.928,23.928,0,0,0-7.462,1.831,5.98,5.98,0,0,0-3.175,3.114c-.807,2.113.364,4.275,1.732,5.845a8.961,8.961,0,0,0,1.068,1.056l.64-2.421a1.587,1.587,0,0,0-.963,2.355c.55.923,1.86,1.4,2.786,1.8,3,1.307,6.106,2.359,9.206,3.394,6.512,2.175,13.088,4.16,19.67,6.108a200.3,200.3,0,0,0,26.276,6.1,240.377,240.377,0,0,0,66.016.706c2.051-.284,4.1-.607,6.126-1.022a22.258,22.258,0,0,0,5.513-1.685,4.523,4.523,0,0,0,2.535-2.662,3.414,3.414,0,0,0-.641-2.848,12.5,12.5,0,0,0-4.82-3.538q-.663-.32-1.344-.6l1.064,1.4-.492-12.761-.07-1.815-2.18,1.251,7.814,4.416c4.543,2.568,8.5,6.412,9.643,11.7,1.182,5.442-2.459,10-6.65,12.973a30.39,30.39,0,0,1-9,4.368,46.477,46.477,0,0,1-10.644,1.472,321.134,321.134,0,0,1-42.189-.385,302.81,302.81,0,0,1-30.555-3.8c-5.031-.894-10.056-1.9-15-3.184-2.352-.611-4.712-1.184-7.053-1.84a153.326,153.326,0,0,1-20.506-7.161,69.659,69.659,0,0,1-10.278-5.472,28.9,28.9,0,0,1-3.94-3.022,22.31,22.31,0,0,1-1.642-1.656q-.357-.4-.691-.827c-.146-.185.2.273-.023-.031-.045-.063-.092-.125-.137-.187-.111-.155-.22-.311-.325-.47a12.689,12.689,0,0,1-1-1.822c.158.353-.04-.106-.072-.192-.054-.147-.106-.295-.153-.444a8.739,8.739,0,0,1-.255-1c-.026-.134-.048-.268-.069-.4.068.439-.007-.133-.014-.224a8.138,8.138,0,0,1-.01-.976,11.412,11.412,0,0,1,.457-2.653,15.892,15.892,0,0,1,6.514-8.5c5.187-3.586,11.441-5.427,17.739-6.364.169-.025.338-.047.506-.072-.469.07-.186.024.03,0,.1-.013.21-.026.315-.036a1.491,1.491,0,0,0,1.449-1.449A1.459,1.459,0,0,0,2420.905,6210.35Z" fill="#070301"/>
        </g>
      </g>
    </g>
    <g id="Group_550" data-name="Group 550">
      <rect id="Rectangle_178" data-name="Rectangle 178" width="109.458" height="17.902" rx="5.197" transform="translate(2420.93 6190.764)" fill="#fff"/>
    </g>
    <g id="Group_551" data-name="Group 551">
      <path id="Rectangle_179" data-name="Rectangle 179" d="M5.089,0h99.279a5.089,5.089,0,0,1,5.089,5.089v5.634a0,0,0,0,1,0,0H0a0,0,0,0,1,0,0V5.089A5.089,5.089,0,0,1,5.089,0Z" transform="translate(2420.93 6190.764)" fill="#fff"/>
    </g>
    <g id="Group_552" data-name="Group 552">
      <rect id="Rectangle_180" data-name="Rectangle 180" width="109.458" height="2.959" transform="translate(2420.93 6195.853)" fill="#414eef"/>
    </g>
    <g id="Group_553" data-name="Group 553">
      <rect id="Rectangle_181" data-name="Rectangle 181" width="109.458" height="2.959" transform="translate(2420.93 6200.007)" fill="#ec5e72"/>
    </g>
    <g id="Group_555" data-name="Group 555">
      <g id="Group_554" data-name="Group 554">
        <path id="Path_637" data-name="Path 637" d="M2525.3,6189.315H2426.33a6.783,6.783,0,0,0-5.755,2.923c-1.52,2.207-1.093,5.255-1.093,7.8,0,2.411-.317,5.037,1.125,7.13a6.851,6.851,0,0,0,5.746,2.952h95.412a38.987,38.987,0,0,0,4.019-.034,6.737,6.737,0,0,0,5.129-3.232,8.766,8.766,0,0,0,.924-4.718v-5.948a6.665,6.665,0,0,0-6.538-6.868c-1.865-.036-1.865,2.862,0,2.9a3.672,3.672,0,0,1,3.457,2.49,9.251,9.251,0,0,1,.184,2.777c0,1.985.027,3.973,0,5.958a3.8,3.8,0,0,1-3.849,3.78c-.5,0-.993,0-1.49,0h-92.34c-1.649,0-3.3.006-4.946,0a3.827,3.827,0,0,1-3.857-2.969,13.257,13.257,0,0,1-.079-2.792v-3.088c0-.871-.02-1.744,0-2.615a3.655,3.655,0,0,1,2.488-3.356,6.083,6.083,0,0,1,1.915-.185H2525.3A1.449,1.449,0,0,0,2525.3,6189.315Z" fill="#020202"/>
      </g>
    </g>
    <g id="Group_556" data-name="Group 556" style="mix-blend-mode: multiply;isolation: isolate">
      <path id="Path_638" data-name="Path 638" d="M2455.665,6297.1v6.461l18.28,1.889v-6.291Z" fill="#03c8a1"/>
    </g>
    <g id="Group_557" data-name="Group 557" style="mix-blend-mode: multiply;isolation: isolate">
      <path id="Path_639" data-name="Path 639" d="M2483.715,6299.938v4.1l19.15-2.759v-7.738l-13.635,5.249Z" fill="#03c8a1"/>
    </g>
    <g id="Group_558" data-name="Group 558" style="mix-blend-mode: multiply;isolation: isolate">
      <path id="Path_640" data-name="Path 640" d="M2417.338,6251.226l2.217,5.259s25.961,10.683,63.247,12.443,47.773-.642,47.773-.642l.946-3-30.161.652-61.092-8.164Z" fill="#03c8a1"/>
    </g>
    <g id="Group_559" data-name="Group 559">
      <circle id="Ellipse_108" data-name="Ellipse 108" cx="6.442" cy="6.442" r="6.442" transform="translate(2483.985 6222.754)" fill="#070600"/>
    </g>
    <g id="Group_560" data-name="Group 560">
      <circle id="Ellipse_109" data-name="Ellipse 109" cx="6.442" cy="6.442" r="6.442" transform="translate(2455.719 6222.754)" fill="#070600"/>
    </g>
    <g id="Group_561" data-name="Group 561">
      <path id="Path_641" data-name="Path 641" d="M2479.948,6240.976a14.513,14.513,0,0,1,1.554,3.963,4.906,4.906,0,0,1-.883,4.039,4.242,4.242,0,0,1-4.9.908,5.77,5.77,0,0,1-3.049-4.164,9.173,9.173,0,0,1,.7-5.233Z" fill="#ec5e72"/>
    </g>
    <g id="Group_563" data-name="Group 563">
      <g id="Group_562" data-name="Group 562">
        <path id="Path_642" data-name="Path 642" d="M2469.229,6238.74a8.981,8.981,0,0,0,13.564.559c1.288-1.349-.758-3.4-2.049-2.049a6.179,6.179,0,0,1-9.467-.559,1.457,1.457,0,0,0-2.048,0,1.485,1.485,0,0,0,0,2.049Z" fill="#070600"/>
      </g>
    </g>
    <g id="Group_565" data-name="Group 565">
      <g id="Group_564" data-name="Group 564">
        <path id="Path_643" data-name="Path 643" d="M2471.973,6240.1c-1.508,3.657-1.152,8.284,2.358,10.662a5.862,5.862,0,0,0,5.206.631,5.314,5.314,0,0,0,3.42-4.3c.356-2.474-.66-4.7-1.758-6.855a1.449,1.449,0,0,0-2.5,1.463,20.021,20.021,0,0,1,1,2.141,9.278,9.278,0,0,1,.342,1.142c.018.083.035.166.051.25,0,.025.055.35.034.184-.018-.144.007.1.008.1.008.124.016.247.019.372,0,.174-.009.346-.011.52,0,.036-.026.287,0,.057-.01.073-.024.146-.039.218a4.47,4.47,0,0,1-.124.5c-.029.093-.06.186-.095.276.057-.144,0-.012-.032.053a4.991,4.991,0,0,1-.262.436c-.135.195.108-.114-.039.047-.045.047-.088.1-.134.142-.061.061-.125.118-.189.176.043-.039.221-.144-.012.01-.145.094-.292.178-.443.262-.016.008-.21.1-.062.033s-.09.03-.128.043a4.278,4.278,0,0,1-.438.121c-.064.014-.129.022-.192.037-.217.049.219,0,0,0-.175,0-.349.019-.524.013-.1,0-.473-.056-.2,0-.15-.028-.3-.058-.448-.1a4.134,4.134,0,0,1-.435-.143c.258.1-.184-.1-.258-.147a4.454,4.454,0,0,1-.455-.3c.179.135-.076-.073-.127-.12-.134-.123-.261-.254-.382-.389-.045-.052-.089-.1-.133-.157-.1-.114.074.123-.064-.089-.177-.272-.332-.547-.485-.832-.019-.037-.113-.254-.022-.033-.026-.064-.05-.129-.074-.194q-.094-.259-.168-.526a4.006,4.006,0,0,1-.177-1.077,7.762,7.762,0,0,1,.042-1.332c-.008.068-.035.2.018-.112.019-.11.039-.22.061-.33q.067-.329.156-.653a12.214,12.214,0,0,1,.5-1.428,1.453,1.453,0,0,0-1.012-1.782,1.5,1.5,0,0,0-1.782,1.012Z" fill="#070600"/>
      </g>
    </g>
  </g>
</svg>
