<svg xmlns="http://www.w3.org/2000/svg" width="34.145" height="34.145" viewBox="0 0 34.145 34.145">
  <g id="Group_31" data-name="Group 31" transform="translate(-1392.254 -143.835)">
    <g id="Group_8" data-name="Group 8">
      <g id="Group_7" data-name="Group 7">
        <g id="Group_4" data-name="Group 4">
          <path id="Path_20" data-name="Path 20" d="M1416.118,155.784a2.863,2.863,0,0,0-1.649-1.649,4.781,4.781,0,0,0-1.616-.3c-.914-.04-1.19-.051-3.516-.051s-2.6.011-3.517.051a4.8,4.8,0,0,0-1.615.3,2.7,2.7,0,0,0-1,.649,2.663,2.663,0,0,0-.653,1,4.762,4.762,0,0,0-.3,1.616c-.041.914-.051,1.193-.051,3.516s.01,2.6.051,3.517a4.783,4.783,0,0,0,.3,1.615,2.708,2.708,0,0,0,.65,1,2.673,2.673,0,0,0,1,.649,4.793,4.793,0,0,0,1.616.3c.915.041,1.194.051,3.517.051s2.6-.01,3.516-.051a4.8,4.8,0,0,0,1.615-.3,2.883,2.883,0,0,0,1.653-1.652,4.786,4.786,0,0,0,.3-1.616c.04-.918.051-1.19.051-3.513s-.011-2.6-.051-3.516A4.8,4.8,0,0,0,1416.118,155.784Zm-6.788,9.6a4.472,4.472,0,1,1,4.472-4.472A4.473,4.473,0,0,1,1409.33,165.381Zm4.649-8.077a1.044,1.044,0,1,1,1.044-1.044A1.044,1.044,0,0,1,1413.979,157.3Z" fill="#0ac7ce"/>
        </g>
        <g id="Group_5" data-name="Group 5">
          <path id="Path_21" data-name="Path 21" d="M1409.33,158.008a2.9,2.9,0,1,0,2.9,2.9A2.9,2.9,0,0,0,1409.33,158.008Z" fill="#0ac7ce"/>
        </g>
        <g id="Group_6" data-name="Group 6">
          <path id="Path_22" data-name="Path 22" d="M1409.327,143.835a17.072,17.072,0,1,0,17.072,17.073A17.073,17.073,0,0,0,1409.327,143.835Zm8.652,20.662a6.39,6.39,0,0,1-.405,2.112,4.452,4.452,0,0,1-2.547,2.547,6.348,6.348,0,0,1-2.112.4c-.929.041-1.225.051-3.588.051s-2.66-.01-3.588-.051a6.364,6.364,0,0,1-2.112-.4,4.454,4.454,0,0,1-2.547-2.547,6.346,6.346,0,0,1-.4-2.112c-.041-.928-.051-1.224-.051-3.588s.01-2.659.054-3.591a6.39,6.39,0,0,1,.405-2.112,4.454,4.454,0,0,1,2.547-2.547,6.373,6.373,0,0,1,2.112-.4c.929-.041,1.224-.051,3.588-.051s2.66.01,3.591.054a6.383,6.383,0,0,1,2.112.4,4.459,4.459,0,0,1,2.548,2.547,6.352,6.352,0,0,1,.4,2.112c.041.929.044,1.225.044,3.588S1418.019,163.569,1417.979,164.5Z" fill="#0ac7ce"/>
        </g>
      </g>
    </g>
  </g>
</svg>
