<svg xmlns="http://www.w3.org/2000/svg" width="285.439" height="31.002" viewBox="0 0 285.439 31.002">
  <g id="Group_110" data-name="Group 110" transform="translate(-2958.317 -1952.142)">
    <g id="Group_108" data-name="Group 108">
      <path id="Path_110" data-name="Path 110" d="M2979.36,1952.142a14.9,14.9,0,0,0-14.141,10.213,12.477,12.477,0,0,1,1.762-.128,12.251,12.251,0,0,1,9.886,19.489,14.892,14.892,0,1,0,2.493-29.574Z" fill="#2b72f0"/>
      <circle id="Ellipse_19" data-name="Ellipse 19" cx="8.664" cy="8.664" r="8.664" transform="translate(2958.317 1965.816)" fill="#0ac7ce"/>
      <path id="Path_111" data-name="Path 111" d="M2970.244,1961.366a13.184,13.184,0,0,0-5.025.989,12.25,12.25,0,0,1,11.642,19.361,14.975,14.975,0,0,0,4.471.078,13.223,13.223,0,0,0-11.088-20.428Z" fill="#97e4ff" style="mix-blend-mode: color-burn;isolation: isolate"/>
    </g>
    <g id="Group_109" data-name="Group 109">
      <path id="Path_112" data-name="Path 112" d="M3065.191,1967.013a1.6,1.6,0,0,0,.144-.144,3.065,3.065,0,0,0,.8-2.4,3.324,3.324,0,0,0-1.341-2.308,4.714,4.714,0,0,0-2.767-.729c-.741-.032-1.491-.026-2.217-.021-.516,0-1.032.008-1.548,0a.928.928,0,0,0-.664.214.912.912,0,0,0-.223.686c.011,3.729.011,7.109,0,10.333a.9.9,0,0,0,.226.671.856.856,0,0,0,.624.211h.06c.617-.017,1.235-.025,1.852-.032.935-.012,1.9-.024,2.854-.068a3.451,3.451,0,0,0,3.38-2.183,3.272,3.272,0,0,0-.518-3.649A5.1,5.1,0,0,0,3065.191,1967.013Zm-4.824,4.089h-.461v-2.662c.379.011.752,0,1.118-.014a7.187,7.187,0,0,1,2.272.158.988.988,0,0,1,.772,1.067c0,.947-.373,1.2-.781,1.328a2.387,2.387,0,0,1-.679.116C3061.866,1971.1,3061.125,1971.1,3060.367,1971.1Zm2.536-5.177a3.82,3.82,0,0,1-.938.079l-.231,0c-.514.01-1.03.008-1.555.006h-.258v-2.089l.643-.007c.834-.012,1.622-.022,2.416.028.5.032.664.569.658,1.02A.827.827,0,0,1,3062.9,1965.925Z" fill="#fff"/>
      <path id="Path_113" data-name="Path 113" d="M3202.272,1967.013a1.75,1.75,0,0,0,.138-.138,3.07,3.07,0,0,0,.811-2.394,3.332,3.332,0,0,0-1.336-2.313,4.69,4.69,0,0,0-2.767-.733c-.751-.033-1.511-.027-2.245-.021-.507,0-1.014.006-1.521,0a.917.917,0,0,0-.671.215.906.906,0,0,0-.223.677c.012,3.494.012,6.971,0,10.334a.894.894,0,0,0,.227.678.859.859,0,0,0,.62.211h.055c.622-.017,1.243-.025,1.865-.032.944-.012,1.921-.023,2.884-.071a3.425,3.425,0,0,0,3.377-2.256,3.256,3.256,0,0,0-.547-3.57A5.466,5.466,0,0,0,3202.272,1967.013Zm-4.667,4.093-.626-.005v-2.67h.029c.9,0,1.807-.005,2.711,0a1.271,1.271,0,0,1,1.387.928,1.513,1.513,0,0,1-.19,1.273,1.327,1.327,0,0,1-1.051.461C3199.12,1971.12,3198.384,1971.113,3197.6,1971.106Zm2.354-5.183a5.824,5.824,0,0,1-1.111.08l-.291,0c-.445.01-.891.006-1.337,0h-.234v-2.086l.632-.006c.83-.01,1.615-.019,2.412.023.557.029.7.661.689,1.03C3200.709,1965.558,3200.51,1965.807,3199.959,1965.923Z" fill="#fff"/>
      <path id="Path_114" data-name="Path 114" d="M3044.135,1961.419l-.292,0c-.76,0-.992.23-.993.983v6.336q-.333-.5-.667-.995c-1.154-1.72-2.346-3.5-3.477-5.271a1.963,1.963,0,0,0-2.089-1.063l-.077.01c-.7.086-.873.285-.874,1.014v9.856c0,.492-.007.789.218,1.014a1.053,1.053,0,0,0,.82.218h.188l.264,0c.8,0,1.016-.217,1.016-1v-6.358l.1.15,1.628,2.451c.814,1.225,1.628,2.449,2.45,3.69.664,1,.791,1.069,2.028,1.068.759,0,.979-.226.979-1v-9.6l0-.278c0-.493.007-.791-.218-1.015S3044.622,1961.414,3044.135,1961.419Z" fill="#fff"/>
      <path id="Path_115" data-name="Path 115" d="M3087.456,1972.073c0-.754-.227-.972-1-.972h-5.66v-2.587h1.36q1.89,0,3.783.006a.841.841,0,0,0,.68-.235.815.815,0,0,0,.174-.643,3.582,3.582,0,0,1,0-.671.826.826,0,0,0-.175-.648.88.88,0,0,0-.675-.235c-1.271.01-2.543.009-3.815.008h-1.343v-2.253h1.558q1.7,0,3.4,0h.221c.516.007.8.006,1.024-.216s.223-.5.225-.967l0-.283a.847.847,0,0,0-.953-.961c-2.375.012-4.748.012-7.053,0h-.009a.928.928,0,0,0-.691.238.991.991,0,0,0-.243.727q.011,3.719.006,7.437v2.741c0,.727.237.961.972.962h2.538q2.112,0,4.227,0h.38a1.1,1.1,0,0,0,.856-.222c.224-.224.221-.516.216-1Z" fill="#fff"/>
      <path id="Path_116" data-name="Path 116" d="M3243.52,1971.338a.965.965,0,0,0-.727-.243c-1.419.009-2.837.008-4.256.006h-1.42l-.017-2.587h4.459c1.326,0,1.512-.18,1.53-1.487v-.042a.9.9,0,0,0-.218-.678.913.913,0,0,0-.673-.22c-1.247.014-2.5.011-3.744.009h-1.377v-2.253h4.949l.233,0c.494,0,.794.006,1.019-.217s.223-.5.225-.974l0-.27a.976.976,0,0,0-.238-.725,1.017,1.017,0,0,0-.708-.242c-2.34.012-4.713.012-7.053,0a.848.848,0,0,0-.95.958q.011,3.745.006,7.489v2.689c0,.733.235.968.966.969h2.506q2.128,0,4.259,0h.377c.414,0,.66-.022.859-.219.221-.219.222-.5.224-.961l0-.3A.938.938,0,0,0,3243.52,1971.338Z" fill="#fff"/>
      <path id="Path_117" data-name="Path 117" d="M3023.72,1965.765v-2.836c0-.641,0-.994-.259-1.253s-.609-.256-1.249-.255c-.784,0-.989.211-1,1.015q-.011.988-.014,1.978c-.009,1.654-.018,3.363-.091,5.038-.045,1.039-.351,1.437-1.259,1.637a4.669,4.669,0,0,1-1.62.075,1.433,1.433,0,0,1-1.364-1.008,6.145,6.145,0,0,1-.235-1.506c-.021-1.492-.017-3.011-.014-4.481q0-.883,0-1.768c0-.759-.223-.978-.994-.98-.074,0-.143,0-.215,0a2.428,2.428,0,0,1-.365-.006.873.873,0,0,0-.69.173.912.912,0,0,0-.248.713c.007.887.006,1.774.005,2.661,0,1.031,0,2.063.01,3.1a12.916,12.916,0,0,0,.183,2.331,3.594,3.594,0,0,0,2.761,3.017,6.4,6.4,0,0,0,2.955.183,4.185,4.185,0,0,0,2.934-1.77,4.755,4.755,0,0,0,.755-2.583c.027-.816.021-1.641.015-2.44Q3023.72,1966.281,3023.72,1965.765Z" fill="#fff"/>
      <path id="Path_118" data-name="Path 118" d="M3183.149,1971.213q-.744-1.783-1.48-3.572-.493-1.207-.983-2.419-.663-1.641-1.335-3.277a.9.9,0,0,0-.706-.511,8.275,8.275,0,0,0-1.27,0,.836.836,0,0,0-.666.487c-.471,1.162-.949,2.375-1.423,3.607q-.771,2-1.535,4.008-.562,1.476-1.128,2.949a.786.786,0,0,0,.013.723.8.8,0,0,0,.647.312c.249.015.463.026.647.026.966,0,1.147-.279,1.552-1.524l.476-1.317c.339-.928.679-1.857,1.013-2.787.116-.324.224-.651.333-.978.12-.362.24-.725.372-1.084.1-.286.217-.57.335-.861q.3.768.595,1.533.582,1.5,1.158,3c.2.535.4,1.072.6,1.609.229.622.458,1.244.7,1.863a.889.889,0,0,0,.7.509c.3.026.606.02.9.016l.266,0a.711.711,0,0,0,.732-1.1Z" fill="#fff"/>
      <path id="Path_119" data-name="Path 119" d="M3163.084,1961.419c-.295.009-.636.016-.967,0a.736.736,0,0,0-.795.56c-.192.563-.4,1.121-.6,1.679l-.014.036q-1.146,3.1-2.3,6.2l-3.033-8.472h-1.588a.859.859,0,0,0-.736.285.873.873,0,0,0-.011.8c.095.264.2.522.307.781.071.172.142.344.208.516l.775,2.007q1.38,3.578,2.772,7.15a.981.981,0,0,0,.774.544c.075.006.152.015.231.023a4.835,4.835,0,0,0,.532.038,1.345,1.345,0,0,0,.71-.167,1.466,1.466,0,0,0,.537-.922,3.149,3.149,0,0,1,.1-.32l.044-.1c.024-.056.047-.111.07-.168q1.34-3.414,2.677-6.828.19-.484.377-.97c.213-.549.425-1.1.644-1.645a.681.681,0,0,0-.716-1.025Z" fill="#fff"/>
      <path id="Path_120" data-name="Path 120" d="M3106.063,1971.095c-1.1.01-2.208.007-3.314.006h-1.175v-8.658c0-.82-.2-1.021-1.037-1.021-.058.007-.131,0-.2,0a2.523,2.523,0,0,1-.339-.005.86.86,0,0,0-.688.17.921.921,0,0,0-.251.712c.013,3.364.013,6.841,0,10.334a.9.9,0,0,0,.221.674.877.877,0,0,0,.648.218h.023c1.322-.013,2.645-.011,3.965-.009h1.414c1.4,0,1.594-.189,1.595-1.556v-.038a.845.845,0,0,0-.214-.622A.884.884,0,0,0,3106.063,1971.095Z" fill="#fff"/>
      <path id="Path_121" data-name="Path 121" d="M3223.025,1971.34a.923.923,0,0,0-.726-.249c-1.056.017-2.131.014-3.173.011l-1.272,0v-8.7c0-.759-.223-.979-.993-.981l-.2,0a2.4,2.4,0,0,1-.331-.005.915.915,0,0,0-.724.171.962.962,0,0,0-.263.752q.018,3.938.01,7.876v2.44c0,.021,0,.042,0,.064a.724.724,0,0,0,.188.61.762.762,0,0,0,.639.186h1.608c1.51,0,3.021,0,4.533.009h.018a.9.9,0,0,0,.693-.249.874.874,0,0,0,.173-.69,2.355,2.355,0,0,1,0-.531A.883.883,0,0,0,3223.025,1971.34Z" fill="#fff"/>
      <path id="Path_122" data-name="Path 122" d="M3120.782,1961.625a.912.912,0,0,0-.728-.206c-.134.011-.269.007-.4.005l-.233,0c-.732,0-.967.238-.968.964v6.4q0,1.555,0,3.111,0,.22,0,.39c-.006.494-.009.791.214,1.017s.518.227.991.224c.123,0,.266,0,.429,0h.039a.934.934,0,0,0,.681-.236.987.987,0,0,0,.242-.717c-.01-1.214-.008-2.428-.007-3.642v-2.709c0-1.285,0-2.571.007-3.856A.985.985,0,0,0,3120.782,1961.625Z" fill="#fff"/>
      <path id="Path_123" data-name="Path 123" d="M3142.422,1971.928a.762.762,0,0,0-.819-.828h-8.368v1.452c0,.731.236.966.965.967h2.371q2.173,0,4.346,0h.417c.423,0,.675-.023.875-.222.221-.222.218-.517.214-.962C3142.422,1972.221,3142.42,1972.085,3142.422,1971.928Z" fill="#fff"/>
      <path id="Path_124" data-name="Path 124" d="M3133.235,1963.841h2.877c1.519,0,3.037,0,4.555,0h.416c.423,0,.676-.023.875-.223.221-.222.218-.516.215-.961,0-.118,0-.255,0-.413a.765.765,0,0,0-.821-.827h-1.505c-1.9,0-3.866,0-5.8.017a.93.93,0,0,0-.79.714,5.585,5.585,0,0,0-.028.908c0,.118.006.239.006.365Z" fill="#fff"/>
      <rect id="Rectangle_64" data-name="Rectangle 64" width="8.466" height="2.201" transform="translate(3133.253 1966.199)" fill="#fff"/>
    </g>
  </g>
</svg>
