<svg xmlns="http://www.w3.org/2000/svg" width="42.259" height="42.259" viewBox="0 0 42.259 42.259">
  <g id="Group_106" data-name="Group 106" transform="translate(-3615.483 -1946.513)">
    <path id="Path_109" data-name="Path 109" d="M3643.9,1968.527a10.26,10.26,0,0,0-3.915-2.456,5.956,5.956,0,1,0-6.74,0,10.318,10.318,0,0,0-6.932,9.741h1.609a8.693,8.693,0,1,1,17.386,0h1.61A10.235,10.235,0,0,0,3643.9,1968.527Zm-11.631-7.364a4.346,4.346,0,1,1,4.346,4.346A4.351,4.351,0,0,1,3632.266,1961.163Z" fill="#fff"/>
    <circle id="Ellipse_18" data-name="Ellipse 18" cx="21.13" cy="21.13" r="21.13" transform="translate(3615.483 1946.513)" fill="#fff" opacity="0.26"/>
  </g>
</svg>
