<svg xmlns="http://www.w3.org/2000/svg" width="26.804" height="26.804" viewBox="0 0 26.804 26.804">
  <g id="Group_36" data-name="Group 36" transform="translate(-201.792 -4616.687)">
    <circle id="Ellipse_7" data-name="Ellipse 7" cx="13.402" cy="13.402" r="13.402" transform="translate(201.792 4616.687)" fill="#2b72f0"/>
    <g id="Group_35" data-name="Group 35">
      <path id="Path_35" data-name="Path 35" d="M216.534,4632.74H213.88a4.086,4.086,0,0,1,2.386-4.064,2.983,2.983,0,0,0,.794-.531,1.117,1.117,0,0,0,.177-1.238,2.065,2.065,0,0,0-2.033-1.239,2.154,2.154,0,0,0-2.209,2.032l-2.649-.349a4.885,4.885,0,0,1,4.858-4.332,4.834,4.834,0,0,1,4.509,2.827,3.742,3.742,0,0,1-.707,4.154,6.639,6.639,0,0,1-1.415.971,1.731,1.731,0,0,0-1.057,1.769Zm0,0" fill="#fff"/>
      <path id="Path_36" data-name="Path 36" d="M216.974,4635.389a1.767,1.767,0,1,1-1.77-1.764,1.767,1.767,0,0,1,1.77,1.764Zm0,0" fill="#fff"/>
    </g>
  </g>
</svg>
