<svg xmlns="http://www.w3.org/2000/svg" width="47.539" height="47.539" viewBox="0 0 47.539 47.539">
  <g id="Group_1712" data-name="Group 1712" transform="translate(-3918.905 -1131.327)">
    <circle id="Ellipse_277" data-name="Ellipse 277" cx="23.769" cy="23.769" r="23.769" transform="translate(3918.905 1131.327)" fill="#ffc500"/>
    <g id="Group_1706" data-name="Group 1706">
      <circle id="Ellipse_278" data-name="Ellipse 278" cx="3.886" cy="3.886" r="3.886" transform="translate(3929.081 1148.848)" fill="#fff"/>
      <g id="Group_1705" data-name="Group 1705">
        <path id="Path_1487" data-name="Path 1487" d="M3936.1,1152.734a3.135,3.135,0,1,1-2.565-3.086,3.17,3.17,0,0,1,2.565,3.086.75.75,0,0,0,1.5,0,4.7,4.7,0,0,0-3.086-4.368,4.634,4.634,0,1,0,3.086,4.368A.75.75,0,0,0,3936.1,1152.734Z" fill="#070600"/>
      </g>
    </g>
    <g id="Group_1708" data-name="Group 1708">
      <circle id="Ellipse_279" data-name="Ellipse 279" cx="3.886" cy="3.886" r="3.886" transform="translate(3946.905 1148.848)" fill="#fff"/>
      <g id="Group_1707" data-name="Group 1707">
        <path id="Path_1488" data-name="Path 1488" d="M3953.926,1152.734a3.135,3.135,0,1,1-2.564-3.086,3.166,3.166,0,0,1,2.564,3.086.751.751,0,0,0,1.5,0,4.706,4.706,0,0,0-3.086-4.368,4.638,4.638,0,0,0-5.52,6.764,4.637,4.637,0,0,0,8.606-2.4A.751.751,0,0,0,3953.926,1152.734Z" fill="#070600"/>
      </g>
    </g>
    <g id="Group_1709" data-name="Group 1709">
      <path id="Path_1489" data-name="Path 1489" d="M3948.577,1145.2a4.082,4.082,0,0,1,5.337.556.751.751,0,1,0,1.061-1.062,5.594,5.594,0,0,0-7.155-.79.772.772,0,0,0-.269,1.027.756.756,0,0,0,1.026.269Z" fill="#070600"/>
    </g>
    <g id="Group_1710" data-name="Group 1710">
      <path id="Path_1490" data-name="Path 1490" d="M3930.407,1145.3a4.087,4.087,0,0,1,5.22-.081.768.768,0,0,0,1.061,0,.757.757,0,0,0,0-1.061,5.615,5.615,0,0,0-7.342.081.75.75,0,0,0,1.061,1.061Z" fill="#070600"/>
    </g>
    <g id="Group_1711" data-name="Group 1711">
      <path id="Path_1491" data-name="Path 1491" d="M3945.252,1162.61a2.947,2.947,0,0,1-5.155.24c-.512-.817-1.811-.064-1.3.757a4.446,4.446,0,0,0,7.747-.239c.451-.853-.844-1.613-1.3-.758Z" fill="#070600"/>
    </g>
  </g>
</svg>
