<svg xmlns="http://www.w3.org/2000/svg" width="34.146" height="34.146" viewBox="0 0 34.146 34.146">
  <g id="Group_29" data-name="Group 29" transform="translate(-1499.345 -143.843)">
    <path id="Path_40" data-name="Path 40" d="M1514.909,163.581l4.537-3.024-4.537-3.025Z" fill="#0ac7ce"/>
    <path id="Path_41" data-name="Path 41" d="M1516.418,143.843a17.073,17.073,0,1,0,17.073,17.073A17.073,17.073,0,0,0,1516.418,143.843Zm8.838,21.006a2.022,2.022,0,0,1-1.7,1.705c-1.478.129-2.956.27-4.436.363a47.857,47.857,0,0,1-6.083-.029c-1.239-.08-2.474-.217-3.71-.33a2,2,0,0,1-1.741-1.705c-.09-.971-.148-1.945-.222-2.918-.006-.081-.02-.162-.031-.243V159.42a1.637,1.637,0,0,0,.028-.172c.074-.985.14-1.97.221-2.954a2.016,2.016,0,0,1,1.692-1.736c.747-.078,1.493-.156,2.241-.225,1.674-.153,3.352-.212,5.033-.21a63.09,63.09,0,0,1,6.938.421,2.035,2.035,0,0,1,1.767,1.7c.107,1.118.195,2.239.239,3.361A34.783,34.783,0,0,1,1525.256,164.849Z" fill="#0ac7ce"/>
  </g>
</svg>
